<svg id="Capa_1" enable-background="new 0 0 512 512" height="512" viewBox="0 0 512 512" width="512" xmlns="http://www.w3.org/2000/svg"><g><path d="m457.929 80.739-54.577-80.739h-229.265l-54.578 80.739-.019 59.871c0 15.589 5.414 29.929 14.443 41.27v90.691l-30.908-31.571h-48.972v30h36.359l43.522 44.454v61.325c-19.318 13.415-32 35.747-32 60.995 0 40.928 33.298 74.226 74.227 74.226 32.878 0 60.816-21.496 70.54-51.167h166.804v51.167h30v-330.12c9.029-11.341 14.443-25.681 14.443-41.27zm-267.91-50.739h197.401l37.985 56.194h-273.373zm135.174 111.63c-.543 19.594-16.64 35.37-36.364 35.37-20.066 0-36.391-16.325-36.391-36.39v-24.416h72.729s.021 25.095.026 25.436zm-175.703-25.436h72.781v24.416c0 20.065-16.325 36.39-36.391 36.39s-36.391-16.325-36.391-36.39v-24.416zm26.67 365.806c-24.387 0-44.227-19.84-44.227-44.226s19.84-44.226 44.227-44.226c24.386 0 44.226 19.84 44.226 44.226s-19.84 44.226-44.226 44.226zm237.344-156.999v37.582h-124.785v30h124.785v38.25h-163.454c-3.512-37.685-35.304-67.286-73.89-67.286-4.166 0-8.246.362-12.227 1.025v-39.571-.668h249.57v.668zm0-30.668h-249.57v-91.078c6.875 2.416 14.257 3.745 21.947 3.745 20.744 0 39.29-9.569 51.474-24.519 12.184 14.95 30.73 24.519 51.474 24.519 20.681 0 39.179-9.508 51.364-24.379 12.185 14.871 30.684 24.379 51.365 24.379 7.69 0 15.072-1.329 21.946-3.745zm14.443-153.723c0 20.065-16.324 36.39-36.39 36.39-20.065 0-36.391-16.325-36.391-36.39v-24.416h72.78v24.416z"/></g></svg>