<svg id="Capa_1" enable-background="new 0 0 512 512" height="512" viewBox="0 0 512 512" width="512" xmlns="http://www.w3.org/2000/svg"><g><g><path d="m365 90h-50v-40c0-27.614-22.386-50-50-50h-100c-27.614 0-50 22.386-50 50v40h-10-40c-8.284 0-15 6.716-15 15s6.716 15 15 15h300c8.284 0 15-6.716 15-15s-6.716-15-15-15z"/><path d="m467 190c-8.271 0-15-6.729-15-15s6.729-15 15-15h30c8.284 0 15-6.716 15-15s-6.716-15-15-15h-30c-24.813 0-45 20.187-45 45s20.187 45 45 45c8.271 0 15 6.729 15 15s-6.729 15-15 15h-30c-8.284 0-15 6.716-15 15s6.716 15 15 15h30c24.813 0 45-20.187 45-45s-20.187-45-45-45z"/></g><path d="m375 250h-63.151c-2.784 10.818-7.339 20.924-13.328 30h76.479c8.284 0 15-6.716 15-15s-6.716-15-15-15z"/><g><path d="m115 225c0 55.228 44.772 100 100 100 34.908 0 65.633-17.891 83.521-45h-83.521c-13.445 0-26.09-5.241-35.606-14.757-5.858-5.858-5.858-15.355 0-21.213 5.857-5.858 15.355-5.858 21.213 0 3.85 3.85 8.962 5.97 14.394 5.97s10.543-2.12 14.394-5.97c5.857-5.858 15.355-5.858 21.213 0 1.733 1.733 2.94 3.788 3.648 5.97h57.595c2.057-7.99 3.151-16.367 3.151-25v-75h-200.002z"/></g><g><path d="m202.91 512h24.179l17.992-100.918-10.6-5.3c-.752-.376-1.477-.79-2.187-1.222-5.419 1.897-11.236 2.941-17.295 2.941s-11.875-1.044-17.295-2.941c-.71.432-1.435.846-2.187 1.222l-10.6 5.3z"/><path d="m396.064 375.743c-12.797-17.301-28.392-31.825-46.137-43.135.048.941.073 1.889.073 2.842v39.099c0 30.345-24.678 55.032-55.011 55.032-7.589 0-14.945-1.549-21.914-4.595l-15.512 87.014h157.437c8.284 0 15-6.716 15-15v-18.308c0-37.336-11.734-72.936-33.936-102.949z"/><path d="m156.925 424.986c-6.968 3.046-14.325 4.595-21.913 4.595-.001 0-.001 0-.003 0-30.332-.002-55.009-24.689-55.009-55.032v-39.099c0-.953.025-1.901.073-2.842-17.746 11.309-33.341 25.834-46.138 43.135-22.201 30.013-33.935 65.613-33.935 102.949v18.308c0 8.284 6.716 15 15 15h157.438z"/></g><path d="m192.589 353.061c-.055.64-.089 1.285-.089 1.939 0 12.426 10.074 22.5 22.5 22.5s22.5-10.074 22.5-22.5c0-.656-.034-1.305-.089-1.947-7.329 1.276-14.82 1.947-22.411 1.947-7.641 0-15.128-.668-22.411-1.939z"/><path d="m266.422 344.428c.702 3.417 1.078 6.95 1.078 10.572 0 10.833-3.299 20.908-8.943 29.278l25.263 12.631c16.622 8.311 36.18-3.776 36.18-22.361v-39.098c0-8.892-4.482-16.288-10.973-20.682-12.145 12.742-26.647 22.793-42.605 29.66z"/><path d="m121.024 314.735c-6.518 4.39-11.024 11.801-11.024 20.715v39.099c0 18.585 19.558 30.672 36.18 22.361l25.263-12.631c-5.644-8.37-8.943-18.446-8.943-29.278 0-3.635.379-7.181 1.086-10.609-16.133-6.975-30.587-17.121-42.562-29.657z"/></g></svg>