<svg width="512" height="512" xmlns="http://www.w3.org/2000/svg">

 <g>
  <title>background</title>
  <rect fill="none" id="canvas_background" height="402" width="582" y="-1" x="-1"/>
 </g>
 <g>
  <title fill="#ffffff">Layer 1</title>
  <path fill="#ffffff" id="svg_3" d="m365,90l-50,0l0,-40c0,-27.614 -22.386,-50 -50,-50l-100,0c-27.614,0 -50,22.386 -50,50l0,40l-10,0l-40,0c-8.284,0 -15,6.716 -15,15s6.716,15 15,15l300,0c8.284,0 15,-6.716 15,-15s-6.716,-15 -15,-15z"/>
  <path fill="#ffffff" id="svg_4" d="m467,190c-8.271,0 -15,-6.729 -15,-15s6.729,-15 15,-15l30,0c8.284,0 15,-6.716 15,-15s-6.716,-15 -15,-15l-30,0c-24.813,0 -45,20.187 -45,45s20.187,45 45,45c8.271,0 15,6.729 15,15s-6.729,15 -15,15l-30,0c-8.284,0 -15,6.716 -15,15s6.716,15 15,15l30,0c24.813,0 45,-20.187 45,-45s-20.187,-45 -45,-45z"/>
  <path fill="#ffffff" id="svg_5" d="m375,250l-63.151,0c-2.784,10.818 -7.339,20.924 -13.328,30l76.479,0c8.284,0 15,-6.716 15,-15s-6.716,-15 -15,-15z"/>
  <path fill="#ffffff" id="svg_7" d="m115,225c0,55.228 44.772,100 100,100c34.908,0 65.633,-17.891 83.521,-45l-83.521,0c-13.445,0 -26.09,-5.241 -35.606,-14.757c-5.858,-5.858 -5.858,-15.355 0,-21.213c5.857,-5.858 15.355,-5.858 21.213,0c3.85,3.85 8.962,5.97 14.394,5.97s10.543,-2.12 14.394,-5.97c5.857,-5.858 15.355,-5.858 21.213,0c1.733,1.733 2.94,3.788 3.648,5.97l57.595,0c2.057,-7.99 3.151,-16.367 3.151,-25l0,-75l-200.002,0l0,75z"/>
  <path fill="#ffffff" id="svg_9" d="m202.91,512l24.179,0l17.992,-100.918l-10.6,-5.3c-0.752,-0.376 -1.477,-0.79 -2.187,-1.222c-5.419,1.897 -11.236,2.941 -17.295,2.941s-11.875,-1.044 -17.295,-2.941c-0.71,0.432 -1.435,0.846 -2.187,1.222l-10.6,5.3l17.993,100.918z"/>
  <path fill="#ffffff" id="svg_10" d="m396.064,375.743c-12.797,-17.301 -28.392,-31.825 -46.137,-43.135c0.048,0.941 0.073,1.889 0.073,2.842l0,39.099c0,30.345 -24.678,55.032 -55.011,55.032c-7.589,0 -14.945,-1.549 -21.914,-4.595l-15.512,87.014l157.437,0c8.284,0 15,-6.716 15,-15l0,-18.308c0,-37.336 -11.734,-72.936 -33.936,-102.949z"/>
  <path fill="#ffffff" id="svg_11" d="m156.925,424.986c-6.968,3.046 -14.325,4.595 -21.913,4.595c-0.001,0 -0.001,0 -0.003,0c-30.332,-0.002 -55.009,-24.689 -55.009,-55.032l0,-39.099c0,-0.953 0.025,-1.901 0.073,-2.842c-17.746,11.309 -33.341,25.834 -46.138,43.135c-22.201,30.013 -33.935,65.613 -33.935,102.949l0,18.308c0,8.284 6.716,15 15,15l157.438,0l-15.513,-87.014z"/>
  <path fill="#ffffff" id="svg_12" d="m192.589,353.061c-0.055,0.64 -0.089,1.285 -0.089,1.939c0,12.426 10.074,22.5 22.5,22.5s22.5,-10.074 22.5,-22.5c0,-0.656 -0.034,-1.305 -0.089,-1.947c-7.329,1.276 -14.82,1.947 -22.411,1.947c-7.641,0 -15.128,-0.668 -22.411,-1.939z"/>
  <path fill="#ffffff" id="svg_13" d="m266.422,344.428c0.702,3.417 1.078,6.95 1.078,10.572c0,10.833 -3.299,20.908 -8.943,29.278l25.263,12.631c16.622,8.311 36.18,-3.776 36.18,-22.361l0,-39.098c0,-8.892 -4.482,-16.288 -10.973,-20.682c-12.145,12.742 -26.647,22.793 -42.605,29.66z"/>
  <path fill="#ffffff" id="svg_14" d="m121.024,314.735c-6.518,4.39 -11.024,11.801 -11.024,20.715l0,39.099c0,18.585 19.558,30.672 36.18,22.361l25.263,-12.631c-5.644,-8.37 -8.943,-18.446 -8.943,-29.278c0,-3.635 0.379,-7.181 1.086,-10.609c-16.133,-6.975 -30.587,-17.121 -42.562,-29.657z"/>
 </g>
</svg>