<svg id="Capa_1" enable-background="new 0 0 512 512" height="512" viewBox="0 0 512 512" width="512" xmlns="http://www.w3.org/2000/svg"><g><path d="m314.641 315.408c-3.245-5.606-7.861-10.429-13.612-13.983-.039-.024-.079-.044-.118-.068 5.787-6.504 10.852-13.663 15.06-21.357h59.029c8.284 0 15-6.716 15-15s-6.716-15-15-15h-47.745c1.792-8.052 2.745-16.416 2.745-25v-75h35c8.284 0 15-6.716 15-15s-6.716-15-15-15h-35v-55c0-35.841-29.159-65-65-65h-100c-35.841 0-65 29.159-65 65v55h-35c-8.284 0-15 6.716-15 15s6.716 15 15 15h35v75c0 29.28 11.005 56.033 29.088 76.357-.039.024-.079.044-.118.068-5.751 3.554-10.367 8.377-13.612 13.984-32.658 11.568-60.702 32.321-81.423 60.334-22.201 30.013-33.935 65.613-33.935 102.949v18.308c0 8.284 6.716 15 15 15h400c8.284 0 15-6.716 15-15v-18.308c0-37.336-11.734-72.936-33.936-102.95-20.72-28.012-48.765-48.766-81.423-60.334zm-84.641 39.592c0 8.271-6.729 15-15 15s-15-6.729-15-15 6.729-15 15-15 15 6.729 15 15zm-90-19.55c0-5.032 3.316-7.625 4.743-8.506 1.426-.881 5.229-2.688 9.729-.438l19.609 9.804c-2.613 5.698-4.081 12.024-4.081 18.69s1.468 12.992 4.081 18.689l-19.608 9.804c-4.5 2.251-8.303.444-9.729-.438-1.426-.881-4.743-3.474-4.743-8.506v-39.099zm43.401 67.12 13.115-6.557c5.644 2.553 11.898 3.987 18.484 3.987s12.84-1.434 18.484-3.988l13.115 6.557-14.161 79.431h-34.875zm92.126-19.077-19.608-9.804c2.613-5.697 4.081-12.023 4.081-18.689s-1.468-12.992-4.081-18.689l19.609-9.804c4.5-2.251 8.303-.444 9.729.438 1.426.881 4.742 3.474 4.742 8.506v39.099c0 5.032-3.316 7.625-4.743 8.506-1.424.88-5.226 2.689-9.729.437zm-21.273-133.493c-.708-2.182-1.915-4.237-3.648-5.97-5.857-5.858-15.355-5.858-21.213 0-3.85 3.85-8.962 5.97-14.394 5.97s-10.543-2.12-14.394-5.97c-5.857-5.858-15.355-5.858-21.213 0s-5.858 15.355 0 21.213c9.518 9.516 22.163 14.757 35.608 14.757h64.731c-15.603 18.336-38.825 30-64.731 30-46.869 0-85-38.131-85-85v-75h170v75c0 8.698-1.319 17.092-3.757 25zm-124.254-185c0-19.299 15.701-35 35-35h100c19.299 0 35 15.701 35 35v55h-170zm-100 413.692c0-55.512 31.376-104.742 80-128.541v24.398c0 13.964 7.092 26.685 18.971 34.026 6.465 3.996 13.721 6.011 21.005 6.011 1.68 0 3.361-.118 5.035-.333l12.078 67.747h-137.089zm370 3.308h-137.089l12.078-67.747c1.674.215 3.354.333 5.034.333 7.284 0 14.541-2.016 21.006-6.011 11.879-7.342 18.971-20.062 18.971-34.026v-24.398c48.623 23.799 80 73.029 80 128.541z"/><path d="m467 190c-8.271 0-15-6.729-15-15s6.729-15 15-15h30c8.284 0 15-6.716 15-15s-6.716-15-15-15h-30c-24.813 0-45 20.187-45 45s20.187 45 45 45c8.271 0 15 6.729 15 15s-6.729 15-15 15h-30c-8.284 0-15 6.716-15 15s6.716 15 15 15h30c24.813 0 45-20.187 45-45s-20.187-45-45-45z"/></g></svg>