<svg id="Capa_1" enable-background="new 0 0 512 512" height="512" viewBox="0 0 512 512" width="512" xmlns="http://www.w3.org/2000/svg"><g><path d="m430.43 442.39-111.93-158.81v-46.35c0-5.51-4.49-10-10-10s-10 4.49-10 10v49.52c0 2.05.65 4.09 1.83 5.76l113.76 161.4c2.88 4.09 4.41 8.909 4.41 13.92-.02 13.3-10.87 24.149-24.17 24.17h-252.66c-13.3-.021-24.15-10.87-24.17-24.17 0-5.011 1.53-9.83 4.41-13.92l66.23-93.96c2.81-3.99 2.35-9.39-1.1-12.84l-25.83-25.82 21.57-21.58 19.65 19.65c2.09 2.09 4.98 3.15 7.93 2.89 2.94-.25 5.61-1.78 7.31-4.2l18-25.54c1.18-1.67 1.83-3.71 1.83-5.76v-226.75h61v87.23c0 5.52 4.49 10 10 10s10-4.48 10-10v-93.9l28-37.33c2.29-3.05 2.65-7.06.94-10.47-1.7-3.41-5.13-5.53-8.94-5.53h-141c-3.81 0-7.24 2.12-8.94 5.53-1.71 3.41-1.35 7.42.94 10.47l28 37.33v230.25l-9.33 13.23-18.31-18.31c-1.89-1.89-4.4-2.93-7.08-2.93-.904 0-1.787.129-2.636.36l-31.281-31.282-13.561-27.12c-1.438-2.875-4.169-4.884-7.343-5.399-3.173-.515-6.399.527-8.673 2.8l-42.857 42.857c-2.273 2.273-3.314 5.5-2.8 8.673.515 3.173 2.524 5.905 5.399 7.343l27.12 13.561 31.282 31.282c-.232.852-.361 1.738-.361 2.646 0 2.67 1.04 5.18 2.93 7.07l26.95 26.94-61.38 87.09c-5.28 7.48-8.07 16.28-8.07 25.44 0 11.8 4.6 22.89 12.94 31.229s19.431 12.94 31.231 12.94h252.66c11.8 0 22.89-4.601 31.23-12.94 8.34-8.34 12.94-19.43 12.94-31.229 0-9.161-2.79-17.961-8.07-25.441zm-111.93-422.39-15 20h-71l-15-20zm-201.956 250.199-16.162-8.081 23.236-23.236 8.081 16.162c.481.961 1.113 1.839 1.873 2.599l31.501 31.502-14.431 14.427-31.5-31.499c-.76-.761-1.637-1.393-2.598-1.874z"/><circle cx="308.5" cy="192.23" r="10"/></g></svg>