<svg id="Layer_1" enable-background="new 0 0 512.119 512.119" height="512" viewBox="0 0 512.119 512.119" width="512" xmlns="http://www.w3.org/2000/svg"><g><path d="m370.901 35.73c-6.677 0-13.239 1.258-19.369 3.682-9.125-23.307-32.034-39.412-57.633-39.412-26.771 0-50.563 17.576-58.779 42.591-28.216.939-50.882 24.186-50.882 52.626 0 6.501 1.199 12.915 3.509 18.92-8.346 4.712-13.79 13.625-13.79 23.755 0 15.049 12.243 27.292 27.292 27.292 11.878 0 22.008-7.627 25.75-18.24 3.243.618 6.55.929 9.895.929 8.044 0 15.963-1.859 23.118-5.351 3.404 12.999 10.478 24.818 20.537 34.074 13.08 12.037 30.08 18.665 47.866 18.665 35.844 0 65.907-26.951 70.187-62.083 15.494-9.567 24.956-26.369 24.956-44.792-.001-29.035-23.622-52.656-52.657-52.656zm17.17 86.18c-2.352 1.207-3.894 3.563-4.06 6.201-1.84 29.243-26.261 52.15-55.597 52.15-14.014 0-27.405-5.222-37.709-14.703-10.245-9.427-16.56-22.221-17.78-36.025-.244-2.768-1.999-5.173-4.56-6.251-.938-.395-1.927-.588-2.91-.588-1.701 0-3.385.579-4.748 1.693-6.693 5.472-15.151 8.486-23.814 8.486-4.553 0-9.001-.803-13.222-2.386-2.321-.87-4.925-.536-6.953.891-2.027 1.429-3.218 3.767-3.18 6.247l.003.267c0 6.778-5.515 12.292-12.293 12.292s-12.292-5.514-12.292-12.292c0-6.078 4.345-11.182 10.331-12.138 2.457-.392 4.56-1.978 5.613-4.232 1.053-2.255.919-4.885-.358-7.021-3.47-5.807-5.305-12.476-5.305-19.283 0-20.763 16.893-37.655 37.655-37.655 1.089 0 2.188.047 3.268.14 3.762.322 7.169-2.194 7.971-5.878 4.644-21.338 23.892-36.825 45.768-36.825 21.816 0 41.052 15.437 45.739 36.705.524 2.381 2.175 4.359 4.423 5.302 2.248.944 4.814.736 6.883-.56 5.971-3.74 12.872-5.717 19.957-5.717 20.764 0 37.656 16.892 37.656 37.656 0 14.19-7.85 27.036-20.486 33.524z"/><path d="m315.293 274.131c-2.93-2.929-7.678-2.929-10.607 0s-2.929 7.678 0 10.606l1.768 1.768-29.478 29.478c-11.677-10.602-25.43-18.639-40.351-23.57v-16.383c.022-.236.034-.474.034-.716s-.012-.48-.034-.716v-26.761c.022-.236.034-.474.034-.716s-.012-.48-.034-.716v-51.143h2.499c4.143 0 7.5-3.358 7.5-7.5s-3.357-7.5-7.5-7.5h-75.752c-4.143 0-7.5 3.358-7.5 7.5s3.357 7.5 7.5 7.5h2.5v30.554c0 4.142 3.357 7.5 7.5 7.5s7.5-3.358 7.5-7.5v-30.554h40.753v14.598h-15.377c-4.143 0-7.5 3.358-7.5 7.5s3.357 7.5 7.5 7.5h15.377v14.762h-15.343c-4.143 0-7.5 3.358-7.5 7.5s3.357 7.5 7.5 7.5h15.343v13.193h-15.343c-4.143 0-7.5 3.358-7.5 7.5s3.357 7.5 7.5 7.5h15.343v15.166c0 3.378 2.259 6.34 5.517 7.233 16.894 4.632 32.284 13.794 44.509 26.499 1.396 1.452 3.318 2.28 5.332 2.299 1.989.05 3.951-.772 5.376-2.196l34.702-34.702 16.628 16.628-40.418 40.418c-2.14 2.14-2.783 5.356-1.633 8.155 4.164 10.127 6.562 20.779 7.153 31.735-31.215 10.24-68.104 8.894-104.562-3.915-26.63-9.449-57.583-9.837-90.098-1.218 4.281-39.448 32.366-73.05 71.225-83.703 3.258-.893 5.517-3.854 5.517-7.233v-37.757c0-4.142-3.357-7.5-7.5-7.5s-7.5 3.358-7.5 7.5v32.189c-45.801 15.123-77.311 58.329-77.311 107.02 0 17.404 3.863 34.096 11.482 49.612 1.304 2.654 3.968 4.195 6.738 4.195 1.109 0 2.236-.247 3.3-.77 3.719-1.826 5.252-6.32 3.427-10.038-5.843-11.898-9.135-24.6-9.815-37.828 22.949-6.641 54.777-11.243 85.54-.327 21.919 7.701 44.051 11.561 65.271 11.561 15.234 0 29.999-1.99 43.876-5.975-5.222 48.979-46.792 87.256-97.134 87.256-26.059 0-50.566-10.138-69.009-28.547-2.934-2.927-7.682-2.922-10.607.01s-2.922 7.68.01 10.606c21.275 21.236 49.547 32.931 79.606 32.931 62.136 0 112.688-50.551 112.688-112.687 0-13.12-2.222-25.917-6.61-38.115l36.97-36.97 1.768 1.768c1.465 1.464 3.385 2.197 5.304 2.197s3.839-.732 5.304-2.197c2.929-2.929 2.929-7.678 0-10.606z"/></g></svg>