<svg id="Capa_1" enable-background="new 0 0 512 512" height="512" viewBox="0 0 512 512" width="512" xmlns="http://www.w3.org/2000/svg"><g><path d="m138.215 319.827-47.803-48.827h-36.359v-30h48.972l56.627 57.84z" fill="#dcd2cd"/><path d="m443.504 512h-30v-60.916l30 9.749z" fill="#dcd2cd"/><g><path d="m163.934 304.335-30-10.002v-112.833h30z" fill="#efe2dd"/><path d="m443.504 294.333-30 10.002v-122.835h30z" fill="#dcd2cd"/></g><g><g><path d="m457.929 80.739-54.577-80.739h-114.633l-10.667 53.333 10.667 52.167h160z" fill="#12a8ff"/><path d="m174.087 0-54.578 80.739 9.21 24.761h160v-105.5z" fill="#5ec5f2"/></g></g><g><path d="m443.504 362.583v-68.25h-154.675l-10.777 79z" fill="#fd9002"/><path d="m288.829 460.833h154.675v-68.25l-165.452-8.583z" fill="#fd9002"/><path d="m278.052 362.583h165.452v30h-165.452z" fill="#f16b00"/><path d="m288.719 362.583h.11v30h-.11z"/><path d="m288.829 294.333h-154.895v141.284c0 13.904 11.311 25.216 25.216 25.216h129.679z" fill="#fdae02"/></g><g><circle cx="176.16" cy="437.774" fill="#fff7f7" r="59.226"/><path d="m176.16 512c-40.929 0-74.227-33.298-74.227-74.226s33.298-74.226 74.227-74.226c40.928 0 74.226 33.298 74.226 74.226s-33.298 74.226-74.226 74.226zm0-118.452c-24.387 0-44.227 19.84-44.227 44.226s19.84 44.226 44.227 44.226c24.386 0 44.226-19.84 44.226-44.226s-19.84-44.226-44.226-44.226z" fill="#5a5555"/></g><g><g><path d="m288.829 80.781-10.776 57.885 10.776 68.33c31.055-.06 56.303-25.341 56.303-56.41l7.587-69.806h-63.89z" fill="#86ddff"/><path d="m224.719 80.781 7.587 69.806c0 31.106 25.307 56.413 56.413 56.413.037 0 .073-.003.11-.003v-126.216z" fill="#b6ebff"/></g><path d="m175.903 207c-31.106 0-56.413-25.307-56.413-56.413v-69.806h112.826v69.806c0 31.106-25.307 56.413-56.413 56.413z" fill="#86ddff"/><path d="m401.534 207c-31.106 0-56.413-25.307-56.413-56.413v-69.806h112.826v69.806c0 31.106-25.307 56.413-56.413 56.413z" fill="#5ec5f2"/></g></g></svg>