<svg width="511.728" height="511.728" xmlns="http://www.w3.org/2000/svg">

 <g>
  <title>background</title>
  <rect fill="none" id="canvas_background" height="402" width="582" y="-1" x="-1"/>
 </g>
 <g>
  <title fill="#ff7b0f">Layer 1</title>
  <path fill="#ff7b0f" id="svg_1" d="m147.925,379.116c-22.357,-1.142 -21.936,-32.588 -0.001,-33.68c62.135,0.216 226.021,0.058 290.132,0.103c17.535,0 32.537,-11.933 36.481,-29.017l36.404,-157.641c2.085,-9.026 -0.019,-18.368 -5.771,-25.629s-14.363,-11.484 -23.626,-11.484c-25.791,0 -244.716,-0.991 -356.849,-1.438l-17.775,-65.953c-4.267,-15.761 -18.65,-26.768 -34.978,-26.768l-56.942,0c-8.284,0 -15,6.716 -15,15s6.716,15 15,15l56.942,0c2.811,0 5.286,1.895 6.017,4.592l68.265,253.276c-12.003,0.436 -23.183,5.318 -31.661,13.92c-8.908,9.04 -13.692,21.006 -13.471,33.695c0.442,25.377 21.451,46.023 46.833,46.023l21.872,0c-3.251,6.824 -5.076,14.453 -5.076,22.501c0,28.95 23.552,52.502 52.502,52.502s52.502,-23.552 52.502,-52.502c0,-8.049 -1.826,-15.677 -5.077,-22.501l94.716,0c-3.248,6.822 -5.073,14.447 -5.073,22.493c0,28.95 23.553,52.502 52.502,52.502c28.95,0 52.503,-23.553 52.503,-52.502c0,-8.359 -1.974,-16.263 -5.464,-23.285c5.936,-1.999 10.216,-7.598 10.216,-14.207c0,-8.284 -6.716,-15 -15,-15l-301.123,0zm91.799,52.501c0,12.408 -10.094,22.502 -22.502,22.502s-22.502,-10.094 -22.502,-22.502c0,-12.401 10.084,-22.491 22.483,-22.501l0.038,0c12.399,0.01 22.483,10.1 22.483,22.501zm167.07,22.494c-12.407,0 -22.502,-10.095 -22.502,-22.502c0,-12.285 9.898,-22.296 22.137,-22.493l0.731,0c12.24,0.197 22.138,10.208 22.138,22.493c-0.001,12.407 -10.096,22.502 -22.504,22.502zm74.86,-302.233c0.089,0.112 0.076,0.165 0.057,0.251l-15.339,66.425l-51.942,0l8.845,-67.023l58.149,0.234c0.089,0.002 0.142,0.002 0.23,0.113zm-154.645,163.66l0,-66.984l53.202,0l-8.84,66.984l-44.362,0zm-74.382,0l-8.912,-66.984l53.294,0l0,66.984l-44.382,0zm-69.053,0l-0.047,0c-3.656,-0.001 -6.877,-2.467 -7.828,-5.98l-16.442,-61.004l54.193,0l8.912,66.984l-38.788,0zm56.149,-96.983l-9.021,-67.799l66.306,0.267l0,67.532l-57.285,0zm87.286,0l0,-67.411l66.022,0.266l-8.861,67.145l-57.161,0zm-126.588,-67.922l9.037,67.921l-58.287,0l-18.38,-68.194l67.63,0.273zm237.635,164.905l-36.426,0l8.84,-66.984l48.973,0l-14.137,61.217c-0.784,3.396 -3.765,5.767 -7.25,5.767z"/>
 </g>
</svg>