<svg width="512" height="512" xmlns="http://www.w3.org/2000/svg">

 <g>
  <title>background</title>
  <rect fill="none" id="canvas_background" height="402" width="582" y="-1" x="-1"/>
 </g>
 <g>
  <title fill="#ec8b3b">Layer 1</title>
  <path fill="#ec8b3b" id="svg_2" d="m457.929,80.739l-54.577,-80.739l-229.265,0l-54.578,80.739l-0.019,59.871c0,15.589 5.414,29.929 14.443,41.27l0,90.691l-30.908,-31.571l-48.972,0l0,30l36.359,0l43.522,44.454l0,61.325c-19.318,13.415 -32,35.747 -32,60.995c0,40.928 33.298,74.226 74.227,74.226c32.878,0 60.816,-21.496 70.54,-51.167l166.804,0l0,51.167l30,0l0,-330.12c9.029,-11.341 14.443,-25.681 14.443,-41.27l-0.019,-59.871zm-267.91,-50.739l197.401,0l37.985,56.194l-273.373,0l37.987,-56.194zm135.174,111.63c-0.543,19.594 -16.64,35.37 -36.364,35.37c-20.066,0 -36.391,-16.325 -36.391,-36.39l0,-24.416l72.729,0s0.021,25.095 0.026,25.436zm-175.703,-25.436l72.781,0l0,24.416c0,20.065 -16.325,36.39 -36.391,36.39s-36.391,-16.325 -36.391,-36.39l0,-24.416l0.001,0zm26.67,365.806c-24.387,0 -44.227,-19.84 -44.227,-44.226s19.84,-44.226 44.227,-44.226c24.386,0 44.226,19.84 44.226,44.226s-19.84,44.226 -44.226,44.226zm237.344,-156.999l0,37.582l-124.785,0l0,30l124.785,0l0,38.25l-163.454,0c-3.512,-37.685 -35.304,-67.286 -73.89,-67.286c-4.166,0 -8.246,0.362 -12.227,1.025l0,-39.571l0,-0.668l249.57,0l0,0.668l0.001,0zm0,-30.668l-249.57,0l0,-91.078c6.875,2.416 14.257,3.745 21.947,3.745c20.744,0 39.29,-9.569 51.474,-24.519c12.184,14.95 30.73,24.519 51.474,24.519c20.681,0 39.179,-9.508 51.364,-24.379c12.185,14.871 30.684,24.379 51.365,24.379c7.69,0 15.072,-1.329 21.946,-3.745l0,91.078zm14.443,-153.723c0,20.065 -16.324,36.39 -36.39,36.39c-20.065,0 -36.391,-16.325 -36.391,-36.39l0,-24.416l72.78,0l0,24.416l0.001,0z"/>
 </g>
</svg>