<svg width="2720" height="800" xmlns="http://www.w3.org/2000/svg" preserveAspectRatio="xMidYMid meet">
 <g>
  <title>background</title>
  <rect x="-1" y="-1" width="2722" height="802" id="canvas_background" fill="none"/>
 </g>

 <g>
  <title>Layer 1</title>
  <g id="svg_70">
   <g stroke="null" id="svg_1">
    <path stroke="null" stroke-width="0" d="m359.780021,788.361382c-132.073011,-9.798965 -253.068931,-93.729234 -313.992933,-217.707447c-26.840644,-54.533372 -35.361484,-89.894856 -38.343777,-156.357403c-1.704168,-46.438575 -0.852084,-61.776086 6.816672,-95.00736c57.515666,-259.033518 339.555451,-387.698194 567.913947,-259.45956c97.989653,55.385456 173.399082,164.452201 191.292845,276.927281c6.39063,40.900029 2.982294,122.700088 -6.816672,160.617823c-8.520839,32.37919 -38.343777,97.563611 -57.089624,124.830297c-59.219834,86.060478 -151.2449,144.002186 -259.885602,162.748033c-34.083358,5.964588 -47.716701,6.816672 -89.894856,3.408336zm127.812591,-26.840644c68.592757,-19.171889 138.037599,-62.62817 183.624089,-115.031332l20.450015,-23.85835l-5.964588,-23.006266c-5.538546,-21.728141 -5.538546,-24.710434 4.26042,-53.255246c17.041679,-49.420869 13.207301,-100.971947 -8.946881,-121.848004c-14.911469,-13.633343 -22.580224,-29.396896 -30.675022,-63.054212c-6.816672,-25.98856 -8.946881,-28.970854 -28.11877,-41.752113c-16.189595,-11.077091 -18.745847,-14.059385 -11.077091,-14.059385c5.538546,0 16.615637,7.242714 25.562518,16.189595c13.207301,12.781259 17.467721,21.302099 21.302099,42.604197c4.26042,20.023973 9.798965,31.953148 23.85835,50.272953c30.24898,38.769819 35.361484,77.539639 16.615637,126.960507c-11.929175,31.527106 -12.781259,39.195861 -6.39063,55.811498c5.964588,15.337511 11.503133,10.225007 29.396896,-26.414602c19.171889,-38.769819 21.728141,-44.308365 23.85835,-56.23754c0.852084,-5.538546 4.686462,-20.023973 8.094797,-31.953148c9.372923,-32.805232 12.781259,-89.468814 6.816672,-129.516759c-19.597931,-141.871976 -105.232367,-251.364763 -237.305378,-303.767925c-64.332338,-25.562518 -126.108423,-7.668755 -157.209487,45.160449c-10.651049,18.745847 -11.503133,19.171889 -32.805232,19.171889c-25.562518,0 -51.125037,13.207301 -67.740673,34.935442c-12.781259,16.615637 -24.710434,49.420869 -24.710434,66.888589c0,18.319805 11.503133,51.551078 20.023973,58.36775c6.816672,5.112504 6.816672,6.39063 1.278126,10.225007c-14.911469,9.798965 -34.083358,-29.396896 -34.083358,-69.444841c0,-30.24898 23.006266,-78.391723 45.160449,-93.303192c19.171889,-13.207301 48.994827,-24.710434 65.184422,-24.710434c8.520839,-0.426042 14.059385,-4.686462 23.006266,-19.171889c11.503133,-17.893763 45.586491,-44.734407 57.089624,-44.734407c2.982294,0 5.538546,-1.704168 5.538546,-4.26042c0,-6.39063 -53.255246,-5.112504 -95.859443,2.13021c-191.292845,33.657316 -326.774192,215.151195 -304.620009,408.148208c19.171889,166.582411 139.741766,298.22938 301.211673,328.904402c45.160449,8.520839 120.569878,5.538546 163.174075,-6.39063z" id="svg_1" fill="#ec8b3b"/>
    <path stroke="null" stroke-width="0" d="m329.923756,744.412392c0,-3.408336 5.964588,-18.745847 13.207301,-34.083358c11.929175,-25.136476 12.781259,-30.24898 10.225007,-55.385456c-8.094797,-83.078184 -9.798965,-89.042772 -19.171889,-83.078184c-2.982294,2.13021 -4.26042,8.094797 -2.556252,16.189595c2.982294,14.911469 -3.408336,24.284392 -16.615637,24.284392c-5.112504,0 -11.929175,2.982294 -14.911469,6.39063c-2.982294,3.408336 -8.946881,6.39063 -14.059385,6.39063c-7.668755,0 -8.094797,1.704168 -5.538546,18.319805c5.964588,38.343777 8.094797,85.208394 3.834378,82.652142c-5.964588,-3.834378 -11.077091,-67.314631 -11.077091,-131.646969l0.426042,-54.533372l-31.527106,0l-31.527106,0l0,-17.041679l0,-17.041679l38.343777,0c37.917735,0 38.343777,0 44.734407,-12.781259c3.834378,-7.242714 10.225007,-12.781259 14.485427,-12.781259c8.946881,0 21.728141,12.781259 21.728141,22.154182c0,6.816672 24.284392,13.207301 27.692728,7.668755c0.852084,-1.704168 -1.278126,-13.633343 -4.686462,-27.266686c-3.408336,-13.207301 -5.112504,-25.98856 -3.408336,-28.544812c1.704168,-2.556252 4.26042,-29.396896 5.964588,-59.219834c2.13021,-43.456281 4.686462,-57.941708 11.929175,-72.001093c5.112504,-9.798965 9.372923,-25.136476 9.372923,-34.083358c0,-23.006266 12.781259,-37.065651 40.900029,-45.586491c12.781259,-3.408336 32.805232,-13.207301 44.734407,-21.302099c29.822938,-20.023973 47.290659,-19.597931 65.184422,0.852084c23.85835,27.692728 43.456281,46.438575 57.941708,54.959414c8.094797,4.686462 15.337511,11.503133 16.189595,14.911469c1.704168,5.112504 0.852084,5.112504 -5.964588,-0.426042c-4.26042,-3.834378 -16.189595,-11.077091 -25.98856,-16.189595c-9.798965,-4.686462 -21.728141,-14.911469 -27.266686,-22.580224c-18.745847,-27.692728 -30.24898,-37.491693 -44.308365,-37.491693c-21.302099,0 -83.078184,44.734407 -83.078184,60.071918c0,2.13021 7.242714,3.834378 16.615637,3.834378c20.023973,0 42.604197,14.485427 51.551078,32.37919c3.408336,7.242714 13.207301,28.544812 21.302099,47.716701c13.207301,30.675022 21.302099,42.604197 21.302099,31.101064c0,-8.520839 23.432308,-53.255246 24.710434,-46.864617c0.426042,3.834378 -3.834378,16.189595 -9.798965,28.11877c-7.242714,14.911469 -10.651049,28.544812 -10.651049,44.308365c0,12.781259 -2.556252,26.840644 -5.538546,31.953148c-23.85835,40.900029 -29.396896,55.811498 -29.396896,75.835471c0,28.970854 -2.982294,35.361484 -28.544812,60.924002c-11.929175,11.929175 -21.728141,25.562518 -21.728141,29.822938c0,4.26042 -8.946881,15.337511 -19.597931,24.710434c-17.893763,15.763553 -20.023973,19.597931 -22.154182,39.621903c-2.13021,24.284392 -9.372923,30.24898 -9.372923,7.668755c0,-7.668755 4.686462,-23.006266 10.651049,-34.083358c5.964588,-11.077091 10.651049,-24.710434 10.651049,-30.675022c0,-17.041679 -11.503133,-39.621903 -22.580224,-43.882323c-13.207301,-5.112504 -28.544812,-24.284392 -28.544812,-35.787526c0,-6.39063 -1.278126,-7.668755 -4.686462,-4.26042c-6.816672,6.816672 -9.372923,51.97712 -4.26042,73.705261c11.077091,44.734407 10.225007,66.036505 -4.26042,98.841737c-14.059385,32.805232 -20.876057,43.456281 -20.876057,33.231274zm108.640703,-130.794885c3.834378,-8.520839 16.189595,-25.562518 27.692728,-37.917735c20.876057,-22.154182 21.302099,-23.006266 21.302099,-48.994827c0,-23.006266 2.13021,-30.675022 17.041679,-57.515666c9.372923,-17.041679 17.041679,-36.213568 17.041679,-42.604197c0,-6.39063 -5.964588,-24.284392 -13.633343,-39.621903c-7.242714,-15.337511 -17.467721,-39.621903 -23.006266,-53.681288c-10.225007,-28.11877 -21.728141,-39.195861 -46.438575,-44.734407c-31.527106,-7.242714 -66.462547,22.580224 -72.853177,62.62817c-2.13021,14.911469 -1.278126,18.319805 6.39063,22.154182c12.355217,6.816672 11.503133,16.615637 -0.852084,14.485427c-9.372923,-1.704168 -10.225007,-0.852084 -10.651049,20.876057c-0.426042,12.355217 -1.278126,33.231274 -1.278126,46.012533c-1.278126,30.24898 9.798965,90.320898 19.171889,104.380283c6.39063,9.798965 9.798965,10.651049 37.917735,11.077091c30.24898,0.426042 30.24898,0.426042 14.485427,5.538546c-8.946881,2.556252 -16.615637,5.964588 -16.615637,6.816672c-1.278126,6.39063 10.651049,46.864617 14.059385,46.864617c2.13021,0 6.816672,-7.242714 10.225007,-15.763553zm-140.59385,-1.278126c7.242714,-4.686462 16.189595,-8.520839 20.450015,-8.520839c3.834378,0 7.242714,-2.13021 7.242714,-4.686462c0,-6.39063 -23.85835,-1.704168 -37.065651,6.816672c-9.372923,6.39063 -13.207301,14.911469 -6.39063,14.911469c1.704168,0 8.946881,-3.834378 15.763553,-8.520839zm8.094797,-29.396896c4.26042,-4.686462 16.615637,-13.633343 26.414602,-19.597931c20.023973,-11.929175 25.562518,-21.728141 9.372923,-16.615637c-14.911469,4.26042 -43.030239,18.745847 -51.125037,26.414602c-4.26042,3.408336 -7.668755,11.077091 -7.668755,16.615637c0,8.520839 1.278126,9.372923 7.668755,5.964588c3.834378,-2.13021 11.077091,-8.094797 15.337511,-12.781259zm-9.798965,-30.675022c1.278126,-6.39063 7.668755,-18.745847 14.059385,-27.692728c11.077091,-16.189595 14.059385,-27.266686 8.094797,-27.266686c-5.538546,0.426042 -39.621903,53.255246 -39.621903,61.350044c0,11.503133 14.059385,6.39063 17.467721,-6.39063zm25.562518,-6.816672c5.112504,-6.39063 5.112504,-6.816672 -1.704168,-4.26042c-4.26042,1.704168 -9.798965,2.982294 -11.929175,2.982294c-2.13021,0 -3.834378,2.13021 -3.834378,4.26042c0,6.816672 11.077091,5.112504 17.467721,-2.982294zm-34.083358,-18.745847c6.816672,-11.077091 3.834378,-12.355217 -32.37919,-12.355217c-29.396896,0 -37.065651,1.278126 -39.195861,6.816672c-3.834378,10.225007 3.408336,12.355217 37.065651,11.929175c20.876057,-0.426042 31.953148,-2.556252 34.5094,-6.39063zm58.793792,5.112504c7.668755,-4.686462 2.13021,-13.207301 -8.520839,-13.207301c-10.651049,0 -25.136476,7.242714 -25.136476,12.781259c0,5.112504 25.562518,5.538546 33.657316,0.426042zm62.202128,-259.033518c5.964588,-11.077091 9.798965,-20.450015 8.946881,-21.302099c-0.852084,-1.278126 -7.242714,0.852084 -14.485427,4.686462c-12.781259,6.39063 -25.136476,28.544812 -20.450015,36.213568c5.112504,7.668755 14.911469,0 25.98856,-19.597931z" id="svg_2" fill="#ec8b3b"/>
    <path stroke="null" stroke-width="0" d="m368.267534,465.354901c-3.834378,-4.686462 -2.982294,-11.503133 5.538546,-32.805232c5.964588,-14.911469 11.503133,-29.822938 12.781259,-33.231274c1.278126,-3.834378 2.556252,-2.13021 2.556252,4.26042c0,5.964588 -4.26042,20.876057 -10.225007,32.805232l-10.225007,22.580224l9.372923,6.39063c6.816672,4.686462 7.668755,6.39063 2.13021,6.39063c-3.408336,0 -8.946881,-2.982294 -11.929175,-6.39063z" id="svg_16" fill="#ec8b3b"/>
    <path stroke="null" stroke-width="0" d="m410.871731,378.442339c0,-4.686462 26.840644,-17.467721 37.065651,-17.467721c8.946881,0 26.840644,11.503133 26.840644,17.041679c0,2.13021 -4.686462,1.704168 -10.651049,-0.852084c-8.094797,-3.408336 -14.911469,-3.408336 -27.266686,0c-19.597931,5.964588 -25.98856,6.39063 -25.98856,1.278126z" id="svg_17" fill="#ec8b3b"/>
    <path stroke="null" stroke-width="0" d="m317.994581,650.683158c-0.426042,-8.094797 2.556252,-19.597931 5.964588,-25.562518l6.39063,-10.651049l-2.556252,10.651049c-1.704168,5.964588 -4.26042,17.467721 -6.39063,25.562518l-3.408336,14.911469l0,-14.911469z" id="svg_18" fill="#ec8b3b"/>
    <path stroke="null" stroke-width="0" d="m564.672882,622.138346c-11.929175,-13.633343 -24.710434,-32.805232 -28.544812,-43.030239c-6.39063,-15.763553 -6.39063,-20.876057 -1.278126,-42.604197c2.982294,-13.207301 5.112504,-39.621903 4.686462,-58.793792l-1.278126,-34.5094l17.467721,-20.876057c18.319805,-22.580224 23.006266,-46.864617 10.651049,-57.089624c-3.408336,-2.982294 -6.39063,-7.668755 -6.39063,-10.225007c0,-2.556252 5.112504,0.852084 11.077091,7.668755c14.485427,16.615637 12.355217,40.473987 -5.964588,59.645876c-19.597931,20.450015 -22.580224,28.970854 -18.319805,51.125037c2.13021,11.077091 1.704168,27.266686 -0.426042,37.491693c-12.355217,57.515666 -10.225007,65.184422 26.414602,109.492787c27.692728,32.805232 20.876057,34.5094 -8.094797,1.704168z" id="svg_19" fill="#ec8b3b"/>
    <path stroke="null" stroke-width="0" d="m130.536114,522.018483c-11.929175,-13.207301 -17.893763,-30.24898 -17.893763,-51.551078c0,-22.154182 11.503133,-41.326071 31.527106,-53.681288c10.225007,-6.39063 15.337511,-12.781259 15.337511,-19.171889c0,-22.580224 32.37919,-53.681288 64.75838,-62.62817c18.319805,-4.686462 37.917735,-0.852084 40.900029,8.520839c1.278126,4.26042 0,4.26042 -6.816672,0.852084c-17.041679,-8.946881 -39.195861,-4.26042 -66.036505,13.633343c-12.355217,8.520839 -28.544812,35.787526 -28.544812,48.994827c0,4.686462 -5.964588,10.651049 -15.337511,14.911469c-10.651049,5.112504 -17.467721,12.781259 -23.432308,26.840644c-11.503133,25.562518 -8.094797,47.716701 11.077091,67.740673c7.668755,8.094797 11.503133,14.911469 8.520839,14.911469c-2.556252,0 -8.946881,-4.26042 -14.059385,-9.372923z" id="svg_35" fill="#ec8b3b"/>
    <path stroke="null" stroke-width="0" d="m508.861384,318.370421c0,-2.13021 8.094797,-4.26042 18.319805,-4.26042c9.798965,0 27.266686,-2.982294 38.769819,-6.39063c24.284392,-7.242714 31.527106,-8.094797 25.98856,-2.556252c-12.355217,11.929175 -83.078184,23.006266 -83.078184,13.207301z" id="svg_36" fill="#ec8b3b"/>
    <path stroke="null" stroke-width="0" d="m325.663336,240.830782c0,-14.059385 22.154182,-58.793792 38.343777,-77.539639c18.319805,-20.450015 41.752113,-32.37919 64.75838,-32.37919c18.745847,0 46.438575,11.503133 49.420869,20.450015c2.13021,6.816672 -7.242714,5.964588 -20.450015,-1.278126c-15.763553,-8.946881 -42.178155,-7.668755 -61.776086,3.408336c-20.023973,11.077091 -36.63961,34.083358 -51.125037,69.018799c-10.651049,26.840644 -19.171889,34.935442 -19.171889,18.319805z" id="svg_37" fill="#ec8b3b"/>
   </g>
   <g stroke="null" id="svg_68">
    <path stroke="null" d="m939.642215,310.475342c-13,-15 -14,-20 -3,-29c8,-7 18,-7 27,-2c8,6 25,10 38,10c18,0 23,-5 20,-22c-2,-15 -15,-25 -46,-36c-95,-31 -64,-146 35,-127c36,6 53,29 35,47c-7,7 -16,6 -30,-1c-26,-14 -52,-4 -52,19c0,19 19,30 49,30c25,0 54,35 54,65c0,14 -9,35 -18,45c-24,26 -86,27 -109,1z" id="svg_10" fill="#ec8b3b"/>
    <path stroke="null" d="m1200.642215,322.475342c-4,-3 -7,-53 -7,-109c0,-118 1,-119 91,-112c57,4 63,31 7,36c-43,4 -62,23 -53,52c5,16 15,20 46,20c27,0 39,4 39,14c0,16 -21,26 -56,26c-17,0 -24,6 -24,20c0,17 7,20 45,20c38,0 45,3 45,20c0,18 -7,20 -63,20c-35,0 -67,-3 -70,-7z" id="svg_11" fill="#ec8b3b"/>
    <path stroke="null" d="m1449.642215,313.475342c-8,-22 -6,-165 3,-188c6,-16 16,-9 65,48c32,36 62,63 67,60c5,-3 9,-34 9,-70c0,-57 2,-65 18,-62c15,3 17,18 20,116c2,105 2,112 -17,112c-11,0 -39,-23 -66,-55c-26,-30 -51,-52 -56,-49c-5,3 -9,27 -9,55c0,35 -4,49 -14,49c-8,0 -17,-7 -20,-16z" id="svg_12" fill="#ec8b3b"/>
    <path stroke="null" d="m1735.642215,217.475342c2,-92 6,-113 18,-113c11,0 16,14 18,55c3,57 12,70 48,70c26,0 34,-17 34,-74c0,-47 5,-57 26,-49c11,4 14,30 14,114c0,102 -1,109 -20,109c-14,0 -20,-7 -20,-24c0,-54 -71,-64 -80,-11c-3,18 -12,31 -23,33c-16,3 -17,-6 -15,-110z" id="svg_13" fill="#ec8b3b"/>
    <path stroke="null" d="m2007.642215,295.475342c-29,-29 -34,-41 -34,-79c0,-56 27,-92 80,-108c34,-10 46,-9 79,5c115,52 75,216 -52,216c-31,0 -46,-7 -73,-34zm111,-12c8,-4 23,-20 31,-36c19,-37 5,-80 -32,-97c-37,-16 -52,-14 -79,14c-59,58 2,149 80,119z" id="svg_32" fill="#ec8b3b"/>
    <path stroke="null" d="m2278.642215,307.475342c-3,-13 -5,-63 -3,-113l3,-90l59,0c51,1 61,4 82,28c28,33 29,47 8,93c-12,26 -14,40 -6,63c18,50 -13,58 -40,11c-23,-40 -54,-40 -63,0c-8,35 -32,40 -40,8zm103,-90c29,-29 7,-78 -34,-78c-26,0 -39,29 -30,66c7,26 43,33 64,12z" id="svg_14" fill="#ec8b3b"/>
    <path stroke="null" d="m2543.642215,315.475342c0,-26 83,-207 91,-199c5,5 26,51 48,103c42,100 41,122 -4,102c-32,-15 -82,-16 -90,-2c-9,15 -45,12 -45,-4zm105,-47c8,-13 -2,-59 -14,-59c-11,0 -32,50 -26,61c8,12 32,11 40,-2z" id="svg_15" fill="#ec8b3b"/>
    <path stroke="null" d="m2307.642215,691.475342c-14,-8 -18,-47 -15,-149l1,-73l64,0c61,0 66,2 95,35c60,69 32,165 -54,185c-49,11 -76,12 -91,2zm111,-57c31,-30 32,-73 5,-103c-22,-24 -63,-38 -79,-27c-12,7 -15,137 -4,148c14,15 55,6 78,-18z" id="svg_5" fill="#ec8b3b"/>
    <path stroke="null" d="m1838.642215,677.475342c-3,-13 -5,-63 -3,-113l3,-90l58,-3c51,-3 60,0 82,24c29,32 31,51 8,98c-13,29 -14,40 -5,61c24,51 -16,55 -41,4c-7,-13 -22,-25 -34,-27c-18,-3 -24,3 -31,29c-10,40 -29,49 -37,17zm113,-108c24,-38 -29,-88 -63,-60c-15,13 -20,61 -8,73c14,15 59,6 71,-13z" id="svg_4" fill="#ec8b3b"/>
    <path stroke="null" d="m1638.642215,692.475342c-62,-15 -101,-103 -71,-161c23,-44 54,-62 107,-62c41,0 51,4 78,35c57,66 33,162 -47,185c-20,5 -39,9 -42,9c-3,-1 -14,-3 -25,-6zm88,-65c33,-39 17,-99 -32,-116c-58,-20 -115,40 -89,95c25,53 84,63 121,21z" id="svg_21" fill="#ec8b3b"/>
    <path stroke="null" d="m1367.642215,676.475342c-3,-8 -3,-56 -2,-108l3,-94l68,-3c55,-2 67,0 67,12c0,15 -18,22 -70,28c-19,2 -25,9 -25,28c0,22 5,26 40,30c52,6 56,34 5,38c-39,4 -50,15 -50,55c0,28 -26,39 -36,14z" id="svg_7" fill="#ec8b3b"/>
    <path stroke="null" d="m936.642215,689.475342c-22,-9 -23,-14 -20,-112l2,-103l65,0c61,0 65,2 78,28c12,24 11,31 -1,50c-12,19 -12,24 -1,35c20,19 17,66 -5,86c-23,21 -87,30 -118,16zm98,-46c20,-24 -1,-49 -45,-51c-35,-1 -36,0 -36,33c0,32 2,34 34,34c18,0 39,-7 47,-16zm-6,-114c0,-22 -5,-25 -37,-28c-36,-3 -38,-2 -38,28c0,30 2,31 38,28c32,-3 37,-6 37,-28z" id="svg_41" fill="#ec8b3b"/>
    <path stroke="null" d="m1133.642215,666.732666c0,-26 83,-207 91,-199c5,5 26,51 48,103c42,100 41,122 -4,102c-32,-15 -82,-16 -90,-2c-9,15 -45,12 -45,-4zm105,-47c8,-13 -2,-59 -14,-59c-11,0 -32,50 -26,61c8,12 32,11 40,-2z" id="svg_64" fill="#ec8b3b"/>
    <path stroke="null" d="m2055.642215,676.732666c0,-26 83,-207 91,-199c5,5 26,51 48,103c42,100 41,122 -4,102c-32,-15 -82,-16 -90,-2c-9,15 -45,12 -45,-4zm105,-47c8,-13 -2,-59 -14,-59c-11,0 -32,50 -26,61c8,12 32,11 40,-2z" id="svg_66" fill="#ec8b3b"/>
    <path stroke="null" d="m2543.642215,663.732666c0,-26 83,-207 91,-199c5,5 26,51 48,103c42,100 41,122 -4,102c-32,-15 -82,-16 -90,-2c-9,15 -45,12 -45,-4zm105,-47c8,-13 -2,-59 -14,-59c-11,0 -32,50 -26,61c8,12 32,11 40,-2z" id="svg_67" fill="#ec8b3b"/>
   </g>
  </g>
 </g>
</svg>