<svg width="1850" height="1850" xmlns="http://www.w3.org/2000/svg" preserveAspectRatio="xMidYMid meet">

 <g>
  <title>background</title>
  <rect fill="none" id="canvas_background" height="1852" width="1852" y="-1" x="-1"/>
 </g>
 <g>
  <g id="svg_15">
   <title fill="#ec8b3b">Layer 1</title>
   <path fill="#ec8b3b" id="svg_4" d="m850.045018,1836.556641c-310,-23 -594,-220 -737,-511c-63,-128 -83,-211 -90,-367c-4,-109 -2,-145 16,-223c135,-608 797,-910 1333,-609c230,130 407,386 449,650c15,96 7,288 -16,377c-20,76 -90,229 -134,293c-139,202 -355,338 -610,382c-80,14 -112,16 -211,8zm300,-63c161,-45 324,-147 431,-270l48,-56l-14,-54c-13,-51 -13,-58 10,-125c40,-116 31,-237 -21,-286c-35,-32 -53,-69 -72,-148c-16,-61 -21,-68 -66,-98c-38,-26 -44,-33 -26,-33c13,0 39,17 60,38c31,30 41,50 50,100c10,47 23,75 56,118c71,91 83,182 39,298c-28,74 -30,92 -15,131c14,36 27,24 69,-62c45,-91 51,-104 56,-132c2,-13 11,-47 19,-75c22,-77 30,-210 16,-304c-46,-333 -247,-590 -557,-713c-151,-60 -296,-18 -369,106c-25,44 -27,45 -77,45c-60,0 -120,31 -159,82c-30,39 -58,116 -58,157c0,43 27,121 47,137c16,12 16,15 3,24c-35,23 -80,-69 -80,-163c0,-71 54,-184 106,-219c45,-31 115,-58 153,-58c20,-1 33,-11 54,-45c27,-42 107,-105 134,-105c7,0 13,-4 13,-10c0,-15 -125,-12 -225,5c-449,79 -767,505 -715,958c45,391 328,700 707,772c106,20 283,13 383,-15z"/>
   <path fill="#ec8b3b" id="svg_5" d="m780.045018,1733.556641c0,-8 14,-44 31,-80c28,-59 30,-71 24,-130c-19,-195 -23,-209 -45,-195c-7,5 -10,19 -6,38c7,35 -8,57 -39,57c-12,0 -28,7 -35,15c-7,8 -21,15 -33,15c-18,0 -19,4 -13,43c14,90 19,200 9,194c-14,-9 -26,-158 -26,-309l1,-128l-74,0l-74,0l0,-40l0,-40l90,0c89,0 90,0 105,-30c9,-17 24,-30 34,-30c21,0 51,30 51,52c0,16 57,31 65,18c2,-4 -3,-32 -11,-64c-8,-31 -12,-61 -8,-67c4,-6 10,-69 14,-139c5,-102 11,-136 28,-169c12,-23 22,-59 22,-80c0,-54 30,-87 96,-107c30,-8 77,-31 105,-50c70,-47 111,-46 153,2c56,65 102,109 136,129c19,11 36,27 38,35c4,12 2,12 -14,-1c-10,-9 -38,-26 -61,-38c-23,-11 -51,-35 -64,-53c-44,-65 -71,-88 -104,-88c-50,0 -195,105 -195,141c0,5 17,9 39,9c47,0 100,34 121,76c8,17 31,67 50,112c31,72 50,100 50,73c0,-20 55,-125 58,-110c1,9 -9,38 -23,66c-17,35 -25,67 -25,104c0,30 -6,63 -13,75c-56,96 -69,131 -69,178c0,68 -7,83 -67,143c-28,28 -51,60 -51,70c0,10 -21,36 -46,58c-42,37 -47,46 -52,93c-5,57 -22,71 -22,18c0,-18 11,-54 25,-80c14,-26 25,-58 25,-72c0,-40 -27,-93 -53,-103c-31,-12 -67,-57 -67,-84c0,-15 -3,-18 -11,-10c-16,16 -22,122 -10,173c26,105 24,155 -10,232c-33,77 -49,102 -49,78zm255,-307c9,-20 38,-60 65,-89c49,-52 50,-54 50,-115c0,-54 5,-72 40,-135c22,-40 40,-85 40,-100c0,-15 -14,-57 -32,-93c-17,-36 -41,-93 -54,-126c-24,-66 -51,-92 -109,-105c-74,-17 -156,53 -171,147c-5,35 -3,43 15,52c29,16 27,39 -2,34c-22,-4 -24,-2 -25,49c-1,29 -3,78 -3,108c-3,71 23,212 45,245c15,23 23,25 89,26c71,1 71,1 34,13c-21,6 -39,14 -39,16c-3,15 25,110 33,110c5,0 16,-17 24,-37zm-330,-3c17,-11 38,-20 48,-20c9,0 17,-5 17,-11c0,-15 -56,-4 -87,16c-22,15 -31,35 -15,35c4,0 21,-9 37,-20zm19,-69c10,-11 39,-32 62,-46c47,-28 60,-51 22,-39c-35,10 -101,44 -120,62c-10,8 -18,26 -18,39c0,20 3,22 18,14c9,-5 26,-19 36,-30zm-23,-72c3,-15 18,-44 33,-65c26,-38 33,-64 19,-64c-13,1 -93,125 -93,144c0,27 33,15 41,-15zm60,-16c12,-15 12,-16 -4,-10c-10,4 -23,7 -28,7c-5,0 -9,5 -9,10c0,16 26,12 41,-7zm-80,-44c16,-26 9,-29 -76,-29c-69,0 -87,3 -92,16c-9,24 8,29 87,28c49,-1 75,-6 81,-15zm138,12c18,-11 5,-31 -20,-31c-25,0 -59,17 -59,30c0,12 60,13 79,1zm146,-608c14,-26 23,-48 21,-50c-2,-3 -17,2 -34,11c-30,15 -59,67 -48,85c12,18 35,0 61,-46z"/>
   <path fill="#ec8b3b" id="svg_6" d="m870.045018,1078.556641c-9,-11 -7,-27 13,-77c14,-35 27,-70 30,-78c3,-9 6,-5 6,10c0,14 -10,49 -24,77l-24,53l22,15c16,11 18,15 5,15c-8,0 -21,-7 -28,-15z"/>
   <path fill="#ec8b3b" id="svg_7" d="m970.045018,874.556641c0,-11 63,-41 87,-41c21,0 63,27 63,40c0,5 -11,4 -25,-2c-19,-8 -35,-8 -64,0c-46,14 -61,15 -61,3z"/>
   <path fill="#ec8b3b" id="svg_8" d="m752.045018,1513.556641c-1,-19 6,-46 14,-60l15,-25l-6,25c-4,14 -10,41 -15,60l-8,35l0,-35z"/>
   <path fill="#ec8b3b" id="svg_9" d="m1331.045018,1446.556641c-28,-32 -58,-77 -67,-101c-15,-37 -15,-49 -3,-100c7,-31 12,-93 11,-138l-3,-81l41,-49c43,-53 54,-110 25,-134c-8,-7 -15,-18 -15,-24c0,-6 12,2 26,18c34,39 29,95 -14,140c-46,48 -53,68 -43,120c5,26 4,64 -1,88c-29,135 -24,153 62,257c65,77 49,81 -19,4z"/>
   <path fill="#ec8b3b" id="svg_10" d="m312.045018,1211.556641c-28,-31 -42,-71 -42,-121c0,-52 27,-97 74,-126c24,-15 36,-30 36,-45c0,-53 76,-126 152,-147c43,-11 89,-2 96,20c3,10 0,10 -16,2c-40,-21 -92,-10 -155,32c-29,20 -67,84 -67,115c0,11 -14,25 -36,35c-25,12 -41,30 -55,63c-27,60 -19,112 26,159c18,19 27,35 20,35c-6,0 -21,-10 -33,-22z"/>
   <path fill="#ec8b3b" id="svg_11" d="m1200.045018,733.556641c0,-5 19,-10 43,-10c23,0 64,-7 91,-15c57,-17 74,-19 61,-6c-29,28 -195,54 -195,31z"/>
   <path fill="#ec8b3b" id="svg_12" d="m770.045018,551.556641c0,-33 52,-138 90,-182c43,-48 98,-76 152,-76c44,0 109,27 116,48c5,16 -17,14 -48,-3c-37,-21 -99,-18 -145,8c-47,26 -86,80 -120,162c-25,63 -45,82 -45,43z"/>
  </g>
 </g>
</svg>