<svg width="2810" height="880" xmlns="http://www.w3.org/2000/svg" preserveAspectRatio="xMidYMid meet">

 <g>
  <title>background</title>
  <rect fill="none" id="canvas_background" height="402" width="582" y="-1" x="-1"/>
 </g>
 <g>
  <title fill="#ec8b3b">Layer 1</title>
  <path fill="#ec8b3b" id="svg_1" d="m309,781c-57,-22 -129,-71 -162,-110c-14,-17 -38,-56 -54,-88c-25,-51 -28,-69 -28,-153c0,-85 3,-101 29,-155c38,-76 105,-143 181,-181c148,-72 350,-23 446,109c28,39 38,59 68,130c6,15 11,58 11,95c0,157 -100,297 -252,353c-66,24 -175,24 -239,0zm212,-12c109,-35 182,-96 186,-157c1,-20 6,-59 11,-87c6,-39 9,-45 15,-29c4,12 3,33 -3,48c-21,56 -6,92 17,39c43,-105 43,-203 0,-297c-43,-93 -137,-174 -220,-190c-43,-8 -100,13 -119,43c-7,12 -22,21 -33,21c-11,0 -33,11 -50,24c-27,22 -30,30 -29,80c0,62 -12,74 -22,22c-9,-50 12,-104 50,-127c17,-10 37,-19 45,-19c12,0 61,-44 61,-56c0,-8 -57,-4 -91,7c-127,41 -193,106 -248,242c-14,36 -14,158 0,194c33,80 45,101 85,143c39,42 76,65 154,98c33,14 148,15 191,1z"/>
  <path fill="#ec8b3b" id="svg_2" d="m375,740c16,-61 16,-69 6,-87c-10,-17 -10,-16 -11,5c0,12 -5,22 -11,22c-7,0 -9,-10 -5,-26c6,-22 4,-24 -11,-16c-13,8 -16,21 -14,59c1,26 0,45 -3,42c-4,-4 -9,-44 -12,-90c-3,-45 -8,-87 -11,-92c-3,-6 -1,-7 5,-3c7,4 12,2 12,-3c0,-6 -14,-11 -31,-11c-17,0 -28,4 -24,10c3,6 1,10 -4,10c-6,0 -11,-7 -11,-15c0,-10 10,-15 32,-15c17,0 40,-7 50,-17c17,-15 19,-15 37,1c17,16 18,14 19,-49c2,-107 32,-185 72,-185c10,0 23,-7 30,-15c14,-17 66,-20 75,-5c4,7 -2,9 -19,4c-28,-7 -86,27 -86,51c0,8 -9,16 -19,20c-24,7 -45,61 -28,69c9,5 9,7 0,12c-15,7 -18,34 -4,34c5,0 11,-6 14,-12c2,-7 3,4 3,24c-1,24 -6,38 -14,38c-9,0 -11,10 -6,38c9,50 11,52 47,53c18,1 25,3 16,6c-11,2 -15,11 -12,22c4,17 9,15 36,-13c18,-18 22,-20 10,-6c-13,14 -23,31 -23,38c0,6 -7,15 -15,20c-9,4 -20,21 -24,38l-9,29l-1,-27c-1,-15 4,-30 9,-33c17,-11 11,-43 -12,-65c-12,-11 -24,-17 -27,-14c-3,3 -5,33 -3,67c1,42 -3,70 -14,87l-15,25l6,-25zm65,-431c0,-6 -4,-7 -10,-4c-5,3 -10,11 -10,16c0,6 5,7 10,4c6,-3 10,-11 10,-16z"/>
  <path fill="#ec8b3b" id="svg_3" d="m932,720c-22,-9 -23,-14 -20,-112l3,-103l61,-3c44,-2 64,1 73,12c6,8 14,50 16,94c4,69 2,82 -15,97c-22,20 -86,28 -118,15zm87,-44c13,-16 5,-42 -15,-50c-19,-7 -54,10 -54,27c0,33 48,49 69,23zm-15,-92c23,-9 20,-42 -5,-49c-30,-10 -57,18 -39,39c14,18 21,19 44,10z"/>
  <path fill="#ec8b3b" id="svg_4" d="m1835,708c-3,-13 -5,-63 -3,-113l3,-90l58,-3c51,-3 60,0 82,24c29,32 31,51 8,98c-13,29 -14,40 -5,61c24,51 -16,55 -41,4c-7,-13 -22,-25 -34,-27c-18,-3 -24,3 -31,29c-10,40 -29,49 -37,17zm113,-108c24,-38 -29,-88 -63,-60c-15,13 -20,61 -8,73c14,15 59,6 71,-13z"/>
  <path fill="#ec8b3b" id="svg_5" d="m2304,722c-14,-8 -18,-47 -15,-149l1,-73l64,0c61,0 66,2 95,35c60,69 32,165 -54,185c-49,11 -76,12 -91,2zm111,-57c31,-30 32,-73 5,-103c-22,-24 -63,-38 -79,-27c-12,7 -15,137 -4,148c14,15 55,6 78,-18z"/>
  <path fill="#ec8b3b" id="svg_6" d="m1130,708c0,-3 20,-52 44,-108l43,-102l26,54c22,47 67,154 67,161c0,1 -40,2 -90,2c-49,0 -90,-3 -90,-7zm110,-52c0,-22 -11,-46 -21,-46c-11,0 -29,42 -22,53c8,13 43,7 43,-7z"/>
  <path fill="#ec8b3b" id="svg_7" d="m1364,707c-3,-8 -3,-56 -2,-108l3,-94l68,-3c55,-2 67,0 67,12c0,15 -18,22 -70,28c-19,2 -25,9 -25,28c0,22 5,26 40,30c52,6 56,34 5,38c-39,4 -50,15 -50,55c0,28 -26,39 -36,14z"/>
  <path fill="#ec8b3b" id="svg_8" d="m2075,655c12,-33 33,-82 45,-108c22,-46 23,-47 34,-25c19,35 76,176 76,185c0,4 -40,8 -89,8l-89,1l23,-61zm92,0c5,-17 -23,-49 -35,-41c-7,4 -12,18 -12,32c0,20 4,25 22,22c12,-2 23,-8 25,-13z"/>
  <path fill="#ec8b3b" id="svg_9" d="m2540,704c0,-10 31,-84 75,-179l14,-30l24,55c13,30 33,80 44,110l21,55l-89,0c-59,0 -89,-4 -89,-11zm110,-48c0,-22 -11,-46 -21,-46c-12,0 -31,39 -24,50c9,15 45,12 45,-4z"/>
  <path fill="#ec8b3b" id="svg_10" d="m936,341c-13,-15 -14,-20 -3,-29c8,-7 18,-7 27,-2c8,6 25,10 38,10c18,0 23,-5 20,-22c-2,-15 -15,-25 -46,-36c-95,-31 -64,-146 35,-127c36,6 53,29 35,47c-7,7 -16,6 -30,-1c-26,-14 -52,-4 -52,19c0,19 19,30 49,30c25,0 54,35 54,65c0,14 -9,35 -18,45c-24,26 -86,27 -109,1z"/>
  <path fill="#ec8b3b" id="svg_11" d="m1197,353c-4,-3 -7,-53 -7,-109c0,-118 1,-119 91,-112c57,4 63,31 7,36c-43,4 -62,23 -53,52c5,16 15,20 46,20c27,0 39,4 39,14c0,16 -21,26 -56,26c-17,0 -24,6 -24,20c0,17 7,20 45,20c38,0 45,3 45,20c0,18 -7,20 -63,20c-35,0 -67,-3 -70,-7z"/>
  <path fill="#ec8b3b" id="svg_12" d="m1446,344c-8,-22 -6,-165 3,-188c6,-16 16,-9 65,48c32,36 62,63 67,60c5,-3 9,-34 9,-70c0,-57 2,-65 18,-62c15,3 17,18 20,116c2,105 2,112 -17,112c-11,0 -39,-23 -66,-55c-26,-30 -51,-52 -56,-49c-5,3 -9,27 -9,55c0,35 -4,49 -14,49c-8,0 -17,-7 -20,-16z"/>
  <path fill="#ec8b3b" id="svg_13" d="m1732,248c2,-92 6,-113 18,-113c11,0 16,14 18,55c3,57 12,70 48,70c26,0 34,-17 34,-74c0,-47 5,-57 26,-49c11,4 14,30 14,114c0,102 -1,109 -20,109c-14,0 -20,-7 -20,-24c0,-54 -71,-64 -80,-11c-3,18 -12,31 -23,33c-16,3 -17,-6 -15,-110z"/>
  <path fill="#ec8b3b" id="svg_14" d="m2275,338c-3,-13 -5,-63 -3,-113l3,-90l59,0c51,1 61,4 82,28c28,33 29,47 8,93c-12,26 -14,40 -6,63c18,50 -13,58 -40,11c-23,-40 -54,-40 -63,0c-8,35 -32,40 -40,8zm103,-90c29,-29 7,-78 -34,-78c-26,0 -39,29 -30,66c7,26 43,33 64,12z"/>
  <path fill="#ec8b3b" id="svg_15" d="m2540,346c0,-26 83,-207 91,-199c5,5 26,51 48,103c42,100 41,122 -4,102c-32,-15 -82,-16 -90,-2c-9,15 -45,12 -45,-4zm105,-47c8,-13 -2,-59 -14,-59c-11,0 -32,50 -26,61c8,12 32,11 40,-2z"/>
  <path fill="#ec8b3b" id="svg_16" d="m309,781c-57,-22 -129,-71 -162,-110c-14,-17 -38,-56 -54,-88c-25,-51 -28,-69 -28,-153c0,-85 3,-101 29,-155c38,-76 105,-143 181,-181c148,-72 350,-23 446,109c28,39 38,59 68,130c6,15 11,58 11,95c0,157 -100,297 -252,353c-66,24 -175,24 -239,0zm212,-12c109,-35 182,-96 186,-157c1,-20 6,-59 11,-87c6,-39 9,-45 15,-29c4,12 3,33 -3,48c-21,56 -6,92 17,39c43,-105 43,-203 0,-297c-43,-93 -137,-174 -220,-190c-43,-8 -100,13 -119,43c-7,12 -22,21 -33,21c-11,0 -33,11 -50,24c-27,22 -30,30 -29,80c0,31 -3,56 -8,56c-14,0 -20,-69 -8,-105c13,-39 63,-78 91,-71c11,2 21,-6 28,-20c6,-13 15,-24 21,-24c5,0 10,-4 10,-10c0,-13 -49,-13 -91,1c-127,41 -193,106 -248,242c-14,36 -14,158 0,194c33,80 45,101 85,143c39,42 76,65 154,98c33,14 148,15 191,1z"/>
  <path fill="#ec8b3b" id="svg_17" d="m375,740c16,-61 16,-69 6,-87c-10,-17 -10,-16 -11,5c0,12 -5,22 -11,22c-7,0 -9,-10 -5,-26c6,-22 4,-24 -11,-16c-13,8 -16,21 -14,59c1,26 0,45 -3,42c-4,-4 -9,-44 -12,-90c-3,-45 -8,-87 -11,-92c-3,-6 -1,-7 5,-3c7,4 12,2 12,-3c0,-6 -14,-11 -31,-11c-17,0 -28,4 -24,10c3,6 1,10 -4,10c-6,0 -11,-7 -11,-15c0,-10 10,-15 32,-15c17,0 40,-7 50,-17c17,-15 19,-15 37,1c17,16 18,14 19,-49c2,-107 32,-185 72,-185c10,0 23,-7 30,-15c14,-17 66,-20 75,-5c4,7 -2,9 -19,4c-28,-7 -86,27 -86,51c0,8 -9,16 -19,20c-24,7 -45,61 -28,69c9,5 9,7 0,12c-15,7 -18,34 -4,34c5,0 11,-6 14,-12c2,-7 3,4 3,24c-1,24 -6,38 -14,38c-9,0 -11,10 -6,38c9,50 11,52 47,53c18,1 25,3 16,6c-11,2 -15,11 -12,22c4,17 9,15 36,-13c18,-18 22,-20 10,-6c-13,14 -23,31 -23,38c0,6 -7,15 -15,20c-9,4 -20,21 -24,38l-9,29l-1,-27c-1,-15 4,-30 9,-33c17,-11 11,-43 -12,-65c-12,-11 -24,-17 -27,-14c-3,3 -5,33 -3,67c1,42 -3,70 -14,87l-15,25l6,-25zm2,-147c-4,-3 -7,0 -7,7c0,7 3,10 7,7c3,-4 3,-10 0,-14zm10,-20c-4,-3 -10,-3 -14,0c-3,4 0,7 7,7c7,0 10,-3 7,-7zm54,-265c11,-21 11,-22 -4,-9c-10,7 -17,17 -17,22c0,15 9,10 21,-13z"/>
  <path fill="#ec8b3b" id="svg_18" d="m586,632c-21,-30 -26,-48 -24,-85c4,-56 -12,-65 -29,-17c-9,28 -12,30 -12,12c-1,-13 7,-37 16,-52c16,-27 15,-31 -8,-89c-13,-35 -31,-64 -41,-67c-10,-3 -18,-10 -18,-15c0,-23 44,16 58,52c17,44 28,49 43,17c9,-22 9,-22 3,2c-3,14 -8,39 -11,55l-6,30l24,-20c13,-11 18,-13 12,-4c-7,8 -13,47 -15,86c-3,64 0,74 21,97c14,14 22,28 19,31c-3,3 -17,-12 -32,-33z"/>
  <path fill="#ec8b3b" id="svg_19" d="m360,286c0,-15 32,-75 48,-89c30,-28 102,-25 102,4c0,6 -7,6 -20,-1c-30,-16 -63,-3 -87,35c-13,19 -23,39 -23,45c0,5 -4,10 -10,10c-5,0 -10,-2 -10,-4z"/>
  <path fill="#ec8b3b" id="svg_20" d="m932,720c-22,-9 -23,-14 -20,-112l3,-103l61,-3c44,-2 64,1 73,12c6,8 14,50 16,94c4,69 2,82 -15,97c-22,20 -86,28 -118,15zm87,-44c6,-7 9,-21 5,-30c-7,-18 -7,-18 -45,-20c-22,-2 -26,2 -26,29c0,27 4,31 27,33c15,1 33,-4 39,-12zm-6,-94c4,-1 7,-11 7,-22c0,-21 -1,-22 -41,-25c-21,-2 -25,2 -25,25c0,26 13,31 59,22z"/>
  <path fill="#ec8b3b" id="svg_21" d="m1635,723c-62,-15 -101,-103 -71,-161c23,-44 54,-62 107,-62c41,0 51,4 78,35c57,66 33,162 -47,185c-20,5 -39,9 -42,9c-3,-1 -14,-3 -25,-6zm88,-65c33,-39 17,-99 -32,-116c-58,-20 -115,40 -89,95c25,53 84,63 121,21z"/>
  <path fill="#ec8b3b" id="svg_22" d="m1835,708c-3,-13 -5,-63 -3,-113l3,-90l58,-3c51,-3 60,0 82,24c29,32 31,51 8,98c-13,29 -14,40 -5,61c24,51 -16,55 -41,4c-7,-14 -23,-25 -38,-27c-20,-2 -25,2 -27,23c-4,48 -27,62 -37,23zm112,-107c16,-21 16,-23 -1,-46c-7,-10 -27,-20 -43,-21c-30,-2 -30,-1 -30,45c0,47 0,47 31,43c17,-3 36,-12 43,-21z"/>
  <path fill="#ec8b3b" id="svg_23" d="m2304,722c-14,-8 -18,-47 -15,-149l1,-73l64,0c61,0 66,2 95,35c60,69 32,165 -54,185c-49,11 -76,12 -91,2zm111,-56c53,-53 12,-136 -67,-136c-22,0 -23,3 -23,78l0,78l33,2c23,2 39,-4 57,-22z"/>
  <path fill="#ec8b3b" id="svg_24" d="m1130,708c0,-3 20,-52 44,-108l43,-102l26,54c22,47 67,154 67,161c0,1 -40,2 -90,2c-49,0 -90,-3 -90,-7zm94,-38l32,7l-15,-33c-8,-19 -18,-34 -22,-34c-8,0 -40,58 -38,69c0,3 3,1 5,-5c3,-8 16,-9 38,-4zm6,-74c0,-3 -4,-8 -10,-11c-5,-3 -10,-1 -10,4c0,6 5,11 10,11c6,0 10,-2 10,-4z"/>
  <path fill="#ec8b3b" id="svg_25" d="m1364,707c-3,-8 -3,-56 -2,-108l3,-94l68,-3c55,-2 67,0 67,12c0,18 -39,30 -74,24c-21,-4 -23,-1 -23,31c0,35 1,36 41,36c30,0 41,4 41,15c0,10 -14,17 -45,20c-25,3 -44,8 -42,13c1,4 2,21 2,37c0,31 -26,43 -36,17z"/>
  <path fill="#ec8b3b" id="svg_26" d="m2075,655c12,-33 33,-82 45,-108c22,-46 23,-47 34,-25c19,35 76,176 76,185c0,4 -40,8 -89,8l-89,1l23,-61zm92,-1c2,-5 -3,-19 -11,-29c-17,-23 -30,-14 -40,27c-6,25 -4,26 21,19c15,-4 28,-12 30,-17zm-17,-64c0,-5 -2,-10 -4,-10c-3,0 -8,5 -11,10c-3,6 -1,10 4,10c6,0 11,-4 11,-10z"/>
  <path fill="#ec8b3b" id="svg_27" d="m2540,704c0,-10 31,-84 75,-179l14,-30l24,55c13,30 33,80 44,110l21,55l-89,0c-59,0 -89,-4 -89,-11zm124,-41c-6,-5 -14,-18 -18,-30c-10,-31 -22,-29 -40,5l-15,28l42,2c23,1 37,-1 31,-5zm-24,-67c0,-3 -4,-8 -10,-11c-5,-3 -10,-1 -10,4c0,6 5,11 10,11c6,0 10,-2 10,-4z"/>
  <path fill="#ec8b3b" id="svg_28" d="m936,341c-14,-16 -15,-20 -2,-30c11,-9 17,-9 27,2c20,21 61,9 57,-16c-2,-14 -16,-25 -46,-35c-95,-31 -64,-146 35,-127c36,6 53,29 35,47c-7,7 -16,6 -30,-1c-26,-14 -52,-4 -52,19c0,19 19,30 49,30c25,0 54,35 54,65c0,14 -9,35 -18,45c-24,26 -86,27 -109,1z"/>
  <path fill="#ec8b3b" id="svg_29" d="m1197,353c-4,-3 -7,-52 -7,-109c0,-115 -1,-114 80,-114c78,0 82,37 4,41c-41,3 -46,11 -36,62c1,4 20,7 42,7c29,0 40,4 40,15c0,16 -40,30 -68,23c-12,-4 -17,1 -17,19c0,21 4,23 48,23c40,0 47,3 47,20c0,18 -7,20 -63,20c-35,0 -67,-3 -70,-7z"/>
  <path fill="#ec8b3b" id="svg_30" d="m1446,344c-8,-22 -6,-165 3,-188c6,-15 16,-8 68,50c33,38 62,76 65,84c3,8 6,-23 7,-69c1,-47 3,-87 6,-89c2,-3 11,-2 20,1c12,5 15,26 15,117c0,102 -1,110 -19,110c-12,0 -42,-27 -76,-66c-31,-37 -56,-61 -55,-53c1,8 2,38 1,67c-1,37 -5,52 -15,52c-8,0 -17,-7 -20,-16z"/>
  <path fill="#ec8b3b" id="svg_31" d="m1732,248c2,-92 6,-113 18,-113c12,0 15,13 15,61l0,61l35,1c41,2 50,-9 50,-69c0,-50 5,-60 26,-52c11,4 14,30 14,114c0,102 -1,109 -20,109c-18,0 -26,-23 -22,-61c1,-3 -16,-6 -36,-5c-33,1 -37,4 -42,31c-3,18 -12,31 -23,33c-16,3 -17,-6 -15,-110z"/>
  <path fill="#ec8b3b" id="svg_32" d="m2004,326c-29,-29 -34,-41 -34,-79c0,-56 27,-92 80,-108c34,-10 46,-9 79,5c115,52 75,216 -52,216c-31,0 -46,-7 -73,-34zm111,-12c8,-4 23,-20 31,-36c19,-37 5,-80 -32,-97c-37,-16 -52,-14 -79,14c-59,58 2,149 80,119z"/>
  <path fill="#ec8b3b" id="svg_33" d="m2275,338c-3,-13 -5,-63 -3,-113l3,-90l59,0c51,1 61,4 82,28c28,33 29,47 8,93c-12,26 -14,40 -6,63c17,49 -13,58 -39,12c-9,-16 -28,-30 -42,-33c-15,-3 -24,-1 -21,3c9,14 -8,59 -22,59c-7,0 -16,-10 -19,-22zm103,-90c29,-29 7,-78 -34,-78c-26,0 -39,29 -30,66c7,26 43,33 64,12z"/>
  <path fill="#ec8b3b" id="svg_34" d="m2540,346c0,-26 83,-207 91,-199c5,5 26,51 48,103c42,100 41,122 -4,102c-32,-15 -82,-16 -90,-2c-9,15 -45,12 -45,-4zm109,-70c-5,-17 -9,-32 -9,-33c0,-2 -4,-3 -8,-3c-5,0 -16,16 -25,35l-17,36l34,-3c32,-2 33,-3 25,-32zm-12,-53c-4,-3 -10,-3 -14,0c-3,4 0,7 7,7c7,0 10,-3 7,-7z"/>
  <path fill="#ec8b3b" id="svg_35" d="m330,784c-106,-28 -185,-95 -236,-200c-26,-53 -29,-69 -29,-154c1,-84 4,-102 30,-155c37,-76 104,-144 180,-180c49,-23 75,-29 144,-30c56,-1 98,3 125,13c160,61 249,185 250,347c0,137 -54,243 -159,310c-95,61 -198,78 -305,49zm243,-33c27,-12 69,-41 93,-63c36,-33 43,-46 43,-76c0,-21 3,-59 8,-87c6,-38 10,-45 16,-31c4,10 3,34 -3,52c-6,19 -10,44 -7,56c3,19 7,15 28,-27c20,-42 24,-65 24,-145c0,-85 -3,-101 -29,-152c-49,-96 -166,-188 -240,-188c-34,0 -93,32 -102,55c-4,8 -17,15 -30,15c-12,0 -36,11 -51,24c-24,21 -28,31 -28,80c0,63 -11,74 -21,22c-13,-71 44,-153 96,-139c12,3 20,-2 25,-16c3,-12 18,-28 33,-37c26,-14 24,-15 -40,-10c-82,6 -133,31 -204,98c-112,106 -139,276 -66,411c35,64 119,141 185,166c71,29 200,25 270,-8z"/>
  <path fill="#ec8b3b" id="svg_36" d="m375,740c15,-54 16,-88 7,-124c-8,-27 -8,-36 1,-33c19,6 21,121 2,154c-15,26 -16,26 -10,3z"/>
  <path fill="#ec8b3b" id="svg_37" d="m315,684c-4,-31 -5,-58 -2,-60c3,-3 1,-20 -3,-38c-5,-25 -4,-33 7,-33c7,0 11,7 8,16c-6,21 10,47 19,32c15,-24 26,-9 26,34c0,26 -5,45 -11,45c-7,0 -9,-10 -5,-24c7,-28 -10,-44 -27,-27c-9,9 -7,11 8,6c16,-5 17,-5 5,3c-9,7 -13,25 -11,56c4,64 -5,57 -14,-10z"/>
  <path fill="#ec8b3b" id="svg_38" d="m431,700c-1,-15 4,-31 10,-37c19,-19 1,-59 -36,-78c-27,-15 -37,-17 -47,-7c-22,22 -29,13 -13,-18c16,-32 20,-54 5,-30c-6,10 -22,13 -51,11c-28,-2 -39,1 -35,8c4,6 2,11 -3,11c-6,0 -11,-7 -11,-15c0,-11 11,-15 36,-15c23,0 41,-6 49,-17c16,-22 38,-7 32,24c-3,15 0,22 7,20c6,-2 12,-34 13,-78c4,-122 32,-199 73,-199c10,0 23,-7 30,-15c14,-17 66,-20 75,-5c4,7 -2,9 -19,4c-28,-7 -86,27 -86,51c0,8 -9,16 -19,20c-24,7 -45,61 -28,69c9,5 9,7 0,12c-7,3 -13,18 -13,32l1,27l14,-25c19,-33 19,-16 0,24c-11,23 -13,43 -7,72c7,34 12,40 42,45c19,4 28,7 18,8c-11,1 -14,7 -11,20c4,17 8,15 36,-13c18,-18 22,-20 10,-6c-13,14 -23,31 -23,38c0,6 -7,15 -15,20c-9,4 -20,21 -24,38c-9,28 -9,28 -10,4zm19,-402c0,-6 -7,-5 -15,2c-8,7 -15,17 -15,22c0,6 7,5 15,-2c8,-7 15,-17 15,-22z"/>
  <path fill="#ec8b3b" id="svg_39" d="m586,632c-21,-30 -26,-48 -24,-85c4,-56 -12,-65 -29,-17c-10,31 -12,32 -12,9c-1,-14 6,-34 14,-45c8,-10 15,-26 15,-34c0,-28 -45,-120 -62,-126c-10,-3 -18,-10 -18,-15c0,-23 44,16 58,52c17,44 28,49 43,17c9,-22 9,-22 3,2c-3,14 -8,41 -11,60c-6,35 -5,35 13,15c11,-12 16,-16 12,-10c-4,6 -8,43 -10,82c-3,64 0,74 21,97c14,14 22,28 19,31c-3,3 -17,-12 -32,-33z"/>
  <path fill="#ec8b3b" id="svg_40" d="m413,493c4,-3 10,-3 14,0c3,4 0,7 -7,7c-7,0 -10,-3 -7,-7z"/>
  <path fill="#ec8b3b" id="svg_41" d="m933,720c-22,-9 -23,-14 -20,-112l2,-103l65,0c61,0 65,2 78,28c12,24 11,31 -1,50c-12,19 -12,24 -1,35c20,19 17,66 -5,86c-23,21 -87,30 -118,16zm98,-46c20,-24 -1,-49 -45,-51c-35,-1 -36,0 -36,33c0,32 2,34 34,34c18,0 39,-7 47,-16zm-6,-114c0,-22 -5,-25 -37,-28c-36,-3 -38,-2 -38,28c0,30 2,31 38,28c32,-3 37,-6 37,-28z"/>
  <path fill="#ec8b3b" id="svg_42" d="m1635,723c-35,-8 -73,-53 -80,-93c-12,-73 38,-130 113,-130c37,0 50,6 78,34c27,27 34,42 34,71c0,54 -31,99 -78,113c-22,7 -41,11 -43,11c-2,-1 -13,-3 -24,-6zm89,-64c29,-34 27,-69 -5,-103c-43,-46 -129,-11 -129,52c0,78 85,110 134,51z"/>
  <path fill="#ec8b3b" id="svg_43" d="m1835,708c-3,-13 -4,-63 -3,-113l3,-90l63,0c56,0 66,3 82,25c25,33 25,61 -2,95c-20,26 -20,28 -4,56c9,16 14,34 11,39c-10,16 -43,-7 -47,-32c-2,-18 -11,-24 -35,-26c-29,-3 -32,-1 -35,29c-4,39 -25,50 -33,17zm109,-94c19,-18 21,-55 4,-72c-7,-7 -27,-12 -45,-12c-33,0 -33,0 -33,50c0,49 1,50 29,50c16,0 37,-7 45,-16z"/>
  <path fill="#ec8b3b" id="svg_44" d="m2300,722c-6,-2 -10,-49 -10,-113l0,-110l65,2c61,2 68,5 95,36c42,48 42,105 -1,151c-16,17 -41,33 -55,33c-66,4 -85,4 -94,1zm110,-42c3,0 13,-13 22,-28c32,-54 -8,-122 -71,-122l-36,0l2,82c1,46 2,84 2,84c1,1 18,-2 39,-7c20,-5 39,-9 42,-9z"/>
  <path fill="#ec8b3b" id="svg_45" d="m1130,707c0,-7 4,-17 9,-22c4,-6 23,-49 42,-97l33,-87l18,27c10,15 18,31 18,36c0,5 11,32 24,60c38,82 41,96 17,96c-12,0 -21,-3 -21,-7c0,-9 -98,-8 -107,1c-11,11 -33,6 -33,-7zm130,-34c0,-3 -6,-17 -14,-31c-8,-15 -18,-36 -21,-47c-7,-17 -9,-15 -17,15c-5,19 -14,39 -19,45c-17,17 -9,22 31,22c22,0 40,-2 40,-4z"/>
  <path fill="#ec8b3b" id="svg_46" d="m1368,713c-2,-5 -3,-53 -3,-108l0,-100l68,-3c53,-2 67,0 67,11c0,20 -18,25 -63,21l-37,-3l0,40l0,40l43,-3c32,-2 42,1 42,12c0,10 -13,16 -42,18c-43,3 -43,3 -43,43c0,27 -4,39 -14,39c-8,0 -16,-3 -18,-7z"/>
  <path fill="#ec8b3b" id="svg_47" d="m2060,694c6,-16 14,-38 19,-49c5,-11 17,-40 27,-65c22,-55 44,-90 44,-71c0,8 11,37 24,65c36,78 56,126 56,136c0,6 -9,10 -21,10c-12,0 -17,-4 -13,-11c6,-11 -8,-10 -114,8c-32,5 -32,5 -22,-23zm120,-29c0,-8 -4,-17 -10,-20c-5,-3 -14,-20 -19,-38l-8,-32l-12,28c-26,66 -25,73 13,74c24,1 36,-3 36,-12z"/>
  <path fill="#ec8b3b" id="svg_48" d="m2540,702c0,-10 6,-26 13,-37c7,-11 22,-42 32,-69c27,-75 42,-99 50,-86c4,6 24,55 45,108c31,80 35,98 23,100c-9,2 -18,0 -22,-5c-8,-10 -101,-11 -101,-1c0,5 -9,8 -20,8c-12,0 -20,-7 -20,-18zm119,-38c-1,-5 -5,-18 -10,-29c-4,-11 -10,-29 -14,-40c-7,-19 -8,-19 -17,5c-6,14 -14,33 -19,42c-15,29 -10,35 26,33c19,-1 35,-6 34,-11z"/>
  <path fill="#ec8b3b" id="svg_49" d="m936,341c-14,-15 -14,-20 -2,-30c11,-9 17,-8 29,4c20,19 41,19 58,-1c16,-20 2,-47 -27,-49c-62,-5 -92,-42 -74,-89c12,-34 45,-49 87,-41c37,7 53,29 34,48c-9,9 -14,9 -20,-1c-5,-8 -21,-12 -37,-10c-23,2 -29,8 -29,28c0,22 5,25 38,28c66,6 94,82 44,117c-30,21 -80,19 -101,-4z"/>
  <path fill="#ec8b3b" id="svg_50" d="m1199,358c-1,-2 -3,-51 -5,-111c-2,-104 -2,-107 20,-113c42,-10 111,0 111,16c0,11 -13,16 -47,18c-47,3 -48,4 -48,38c0,34 0,34 45,34c32,0 45,4 45,14c0,19 -18,24 -57,18c-31,-4 -33,-3 -33,26l0,31l50,-3c44,-3 50,-1 50,15c0,17 -8,19 -65,19c-36,0 -66,-1 -66,-2z"/>
  <path fill="#ec8b3b" id="svg_51" d="m1450,353c-5,-76 -5,-183 0,-197c5,-14 19,-1 73,64l67,83l0,-87c0,-78 2,-87 18,-84c15,3 17,18 20,116c2,105 1,112 -17,112c-18,0 -30,-12 -103,-102l-28,-33l0,68c0,53 -3,67 -15,67c-8,0 -15,-3 -15,-7z"/>
  <path fill="#ec8b3b" id="svg_52" d="m1732,248c2,-92 6,-113 18,-113c12,0 15,14 15,63l0,62l43,0l42,0l0,-58c0,-63 4,-74 26,-65c11,4 14,30 14,114c0,102 -1,109 -20,109c-16,0 -20,-7 -20,-35c0,-35 -1,-35 -43,-35c-41,0 -42,1 -42,32c0,23 -5,34 -18,36c-16,3 -17,-6 -15,-110z"/>
  <path fill="#ec8b3b" id="svg_53" d="m2004,326c-28,-28 -34,-42 -34,-76c0,-125 164,-162 216,-49c35,79 -20,159 -109,159c-31,0 -46,-7 -73,-34zm123,-11c45,-32 37,-112 -14,-139c-24,-12 -33,-12 -60,-1c-53,22 -61,91 -16,132c28,27 60,29 90,8z"/>
  <path fill="#ec8b3b" id="svg_54" d="m2278,348c-3,-7 -5,-58 -4,-113l1,-100l59,0c51,1 61,4 81,28c27,31 26,84 -2,104c-16,12 -16,15 -1,47c9,19 14,37 11,40c-12,11 -33,6 -33,-8c0,-7 -7,-19 -15,-26c-8,-7 -12,-16 -9,-21c3,-5 -9,-9 -25,-9c-29,0 -31,3 -31,35c0,35 -22,50 -32,23zm110,-100c16,-16 15,-53 0,-66c-7,-5 -28,-12 -45,-14l-33,-5l0,49c0,48 0,48 33,48c18,0 38,-5 45,-12z"/>
  <path fill="#ec8b3b" id="svg_55" d="m2540,347c0,-7 4,-17 9,-22c6,-6 12,-23 15,-38c3,-16 9,-34 14,-40c5,-7 17,-34 27,-60c10,-26 22,-44 26,-40c5,5 20,36 33,68c13,33 31,77 40,98c15,35 15,38 -1,44c-9,4 -19,1 -21,-5c-2,-7 -25,-12 -58,-12c-34,0 -53,4 -49,10c3,6 -3,10 -14,10c-12,0 -21,-6 -21,-13zm114,-64c-7,-16 -14,-36 -14,-45c0,-30 -20,-20 -27,12c-3,17 -10,33 -14,36c-21,12 -6,24 30,24l40,0l-15,-27z"/>
  <path fill="#ec8b3b" id="svg_56" d="m333,785c-99,-27 -193,-107 -239,-202c-24,-51 -28,-70 -28,-153c-1,-86 2,-101 29,-155c38,-76 104,-142 181,-179c49,-24 73,-30 143,-31c94,-2 134,9 218,62c61,39 83,65 126,152c28,58 32,75 32,146c-1,88 -14,137 -54,201c-56,87 -140,145 -241,164c-68,13 -103,12 -167,-5zm247,-37c80,-37 130,-90 129,-136c0,-21 3,-59 8,-87c6,-38 10,-45 16,-31c4,10 3,34 -3,52c-6,19 -10,44 -7,56c3,19 7,15 28,-27c20,-42 24,-65 24,-145c0,-82 -4,-102 -27,-150c-48,-100 -167,-190 -250,-190c-28,0 -45,8 -74,35c-20,19 -45,35 -55,35c-9,0 -31,11 -48,25c-27,23 -29,31 -28,80c3,61 -9,74 -19,21c-12,-69 45,-152 96,-139c12,3 20,-2 25,-16c3,-12 18,-28 33,-37c26,-14 24,-15 -40,-10c-288,22 -416,389 -207,596c77,76 143,100 259,97c67,-2 97,-9 140,-29z"/>
  <path fill="#ec8b3b" id="svg_57" d="m376,740c4,-14 8,-46 8,-72c1,-27 4,-48 9,-48c13,0 7,95 -9,120l-15,25l7,-25z"/>
  <path fill="#ec8b3b" id="svg_58" d="m320,726c0,-7 -3,-34 -6,-60c-5,-32 -3,-46 5,-46c7,0 9,4 6,10c-4,6 1,7 12,4c15,-5 15,-4 3,4c-9,7 -13,25 -11,56c1,25 0,46 -3,46c-3,0 -6,-6 -6,-14z"/>
  <path fill="#ec8b3b" id="svg_59" d="m431,698c-1,-15 4,-30 9,-33c16,-10 11,-43 -10,-63c-19,-18 -19,-18 18,-14c22,3 31,7 21,11c-11,4 -13,13 -8,31c4,14 7,18 8,9c1,-8 16,-28 34,-45l32,-29l-27,31c-16,16 -28,35 -28,42c0,6 -7,15 -15,20c-9,4 -20,21 -24,38l-9,29l-1,-27z"/>
  <path fill="#ec8b3b" id="svg_60" d="m355,651c5,-24 3,-29 -18,-35c-17,-4 -26,-14 -29,-34c-3,-19 0,-29 9,-29c8,0 11,7 8,16c-6,21 10,47 19,32c15,-24 26,-9 26,34c0,26 -5,45 -11,45c-6,0 -8,-11 -4,-29z"/>
  <path fill="#ec8b3b" id="svg_61" d="m587,633c-24,-34 -26,-45 -22,-103c4,-43 11,-69 22,-80c15,-13 16,-13 5,1c-6,8 -12,47 -14,86c-3,64 0,74 21,97c14,14 22,28 19,31c-3,3 -17,-12 -31,-32z"/>
  <path fill="#ec8b3b" id="svg_62" d="m346,559c10,-21 12,-35 6,-41c-7,-7 -10,-4 -9,8c2,15 -5,18 -42,15c-29,-2 -41,1 -37,8c4,6 2,11 -3,11c-6,0 -11,-7 -11,-15c0,-11 11,-15 36,-15c23,0 41,-6 49,-17c17,-23 38,-7 30,24c-4,18 -2,24 7,21c7,-3 16,-18 19,-34l5,-29l8,32c9,39 2,53 -23,46c-10,-3 -22,0 -25,6c-16,26 -25,8 -10,-20z"/>
  <path fill="#ec8b3b" id="svg_63" d="m177,542c-19,-21 -23,-67 -7,-77c6,-4 22,-24 35,-45c24,-38 79,-68 90,-49c4,5 -5,9 -18,9c-24,0 -57,27 -57,48c0,6 -9,16 -20,22c-28,15 -36,55 -16,85c19,29 16,32 -7,7z"/>
  <path fill="#ec8b3b" id="svg_64" d="m521,539c-1,-14 6,-34 14,-45c8,-10 15,-26 15,-34c0,-28 -45,-120 -62,-126c-10,-3 -18,-10 -18,-15c0,-23 44,16 58,52c17,44 28,49 43,17c9,-22 9,-22 3,2c-3,14 -8,41 -11,60c-3,19 -10,40 -15,47c-5,6 -13,24 -18,40l-8,28l-1,-26z"/>
  <path fill="#ec8b3b" id="svg_65" d="m403,484c-4,-12 -8,-13 -14,-3c-10,16 -1,-61 13,-121c13,-51 33,-80 58,-80c10,0 23,-7 30,-15c14,-17 66,-20 75,-5c4,7 -2,9 -18,5c-16,-4 -36,1 -57,14c-19,11 -37,18 -41,16c-10,-7 -33,24 -25,32c4,4 11,1 15,-6c6,-8 11,-9 15,-3c3,6 -2,13 -13,17c-11,3 -24,20 -30,37c-13,38 -14,41 -1,33c6,-3 10,-1 10,4c0,6 -4,11 -10,11c-5,0 -10,12 -10,28l1,27l14,-25c17,-29 20,-19 4,12c-9,16 -8,23 2,29c11,7 11,9 1,9c-7,0 -15,-7 -19,-16z"/>
  <path fill="#ec8b3b" id="svg_66" d="m690,438c-11,-18 -20,-41 -20,-50c0,-27 -38,-48 -67,-37c-13,5 -34,9 -46,8c-15,-1 -11,-4 13,-11c40,-11 63,-28 38,-28c-16,0 -44,-27 -36,-35c9,-9 109,91 113,114c2,13 14,35 26,48c13,12 17,23 11,23c-7,0 -21,-15 -32,-32z"/>
  <path fill="#ec8b3b" id="svg_67" d="m450,410c0,-8 25,-20 41,-20c20,0 7,18 -16,22c-14,3 -25,2 -25,-2z"/>
  <path fill="#ec8b3b" id="svg_68" d="m360,286c0,-15 32,-75 48,-89c30,-27 102,-25 102,4c0,5 -9,4 -20,-3c-31,-20 -70,1 -94,49c-17,35 -36,55 -36,39z"/>
  <path fill="#ec8b3b" id="svg_69" d="m1130,713c0,-3 12,-31 27,-62c14,-31 34,-78 43,-104c14,-39 19,-45 25,-30c5,10 7,21 7,26c-1,4 3,7 10,7c6,0 8,3 5,6c-3,4 -1,16 5,28c7,11 11,24 10,29c-1,4 3,7 10,7c6,0 8,3 5,6c-3,4 -1,16 5,28c7,11 12,24 13,28c0,3 3,10 8,14c13,13 7,24 -13,24c-11,0 -20,-4 -20,-10c0,-5 -22,-10 -49,-10c-28,0 -53,5 -56,10c-7,11 -35,14 -35,3zm130,-40c0,-3 -6,-17 -14,-31c-8,-15 -17,-36 -20,-46c-7,-21 -16,-17 -21,11c-2,10 -4,19 -5,21c-2,1 -3,6 -4,11c0,5 -4,13 -8,17c-16,15 -7,21 32,21c22,0 40,-2 40,-4z"/>
  <path fill="#ec8b3b" id="svg_70" d="m2065,690c9,-16 13,-30 10,-30c-3,0 1,-10 10,-23c8,-13 12,-27 8,-30c-3,-4 -2,-7 4,-7c9,0 20,-24 27,-60c4,-15 25,-43 26,-32c0,7 7,29 17,50c9,20 15,40 15,45c-1,4 3,7 9,7c5,0 8,3 6,8c-3,4 3,25 14,46c24,50 24,56 -2,56c-11,0 -17,-4 -14,-10c4,-6 -14,-9 -45,-9c-28,1 -53,6 -56,10c-3,5 -14,9 -25,9c-18,0 -19,-2 -4,-30zm115,-23c0,-7 -5,-18 -10,-23c-6,-6 -12,-21 -15,-34c-7,-36 -13,-35 -29,5c-23,54 -20,62 19,63c22,1 35,-3 35,-11z"/>
  <path fill="#ec8b3b" id="svg_71" d="m2540,700c0,-11 5,-20 11,-20c5,0 7,-4 4,-10c-3,-5 -2,-10 3,-10c9,0 27,-47 24,-62c-1,-5 3,-8 9,-8c5,0 8,-4 4,-9c-3,-5 -1,-12 5,-16c6,-4 8,-11 5,-16c-4,-5 -1,-9 4,-9c6,0 11,-10 11,-22c1,-22 1,-22 15,-4c8,10 12,23 9,27c-3,5 0,9 5,9c6,0 10,3 9,8c-1,8 4,23 38,105c18,44 20,57 9,57c-7,0 -16,-4 -19,-9c-3,-5 -28,-9 -56,-9c-28,0 -53,4 -56,9c-10,17 -34,9 -34,-11zm129,-29c2,-1 -2,-7 -8,-15c-7,-8 -14,-24 -16,-37c-8,-40 -24,-46 -31,-11c-4,18 -11,35 -15,38c-5,3 -9,11 -9,19c0,10 11,13 38,10c20,-1 39,-3 41,-4z"/>
  <path fill="#ec8b3b" id="svg_72" d="m1450,353c-4,-85 -4,-186 0,-197c3,-10 27,12 73,66l67,80l1,-48c1,-27 0,-66 -1,-87c-1,-32 1,-38 16,-35c15,3 18,16 18,116c1,128 -7,138 -59,75c-16,-20 -42,-50 -57,-67l-27,-31l-1,68c0,53 -3,67 -15,67c-8,0 -15,-3 -15,-7z"/>
  <path fill="#ec8b3b" id="svg_73" d="m1732,248c2,-92 6,-113 18,-113c12,0 15,13 13,63l-3,62l45,0c39,0 45,-3 51,-24c3,-13 3,-40 0,-59c-3,-20 -2,-38 2,-41c20,-12 27,17 27,117c0,95 -2,107 -17,107c-14,0 -18,-8 -18,-35c0,-35 0,-35 -44,-35c-44,0 -45,0 -43,32c2,24 -3,33 -16,36c-16,3 -17,-5 -15,-110z"/>
  <path fill="#ec8b3b" id="svg_74" d="m2540,356c0,-2 7,-19 15,-39c8,-19 11,-37 8,-41c-4,-3 0,-6 7,-6c7,0 11,-3 7,-6c-3,-3 4,-22 15,-42c11,-20 22,-45 24,-55c2,-11 6,-22 8,-25c5,-4 26,38 31,63c2,6 16,40 33,75c17,36 28,68 25,72c-6,12 -33,10 -33,-2c0,-5 -25,-10 -56,-10c-34,0 -53,4 -49,10c3,6 -3,10 -14,10c-12,0 -21,-2 -21,-4zm116,-46c10,0 12,-5 7,-12c-4,-7 -8,-15 -9,-18c-6,-30 -18,-60 -24,-60c-8,0 -19,23 -21,45c0,6 -6,16 -12,23c-13,16 9,35 31,27c8,-3 20,-5 28,-5z"/>
  <path fill="#ec8b3b" id="svg_75" d="m333,785c-99,-27 -193,-107 -239,-202c-24,-51 -28,-70 -28,-153c-1,-86 2,-101 29,-155c38,-76 104,-142 181,-179c49,-24 73,-30 143,-31c94,-2 134,9 218,62c61,39 83,65 126,152c28,58 32,75 32,146c-1,88 -14,137 -54,201c-56,87 -140,145 -241,164c-68,13 -103,12 -167,-5zm247,-37c30,-14 72,-43 93,-64c32,-31 38,-43 33,-66c-3,-15 -2,-36 2,-45c5,-14 8,-10 13,17l6,35l24,-50c20,-42 24,-65 24,-145c0,-82 -4,-102 -27,-150c-48,-100 -167,-190 -250,-190c-28,0 -45,8 -74,35c-20,19 -45,35 -55,35c-9,0 -31,11 -48,25c-27,23 -29,31 -28,80c3,61 -9,74 -19,21c-12,-69 45,-152 96,-139c12,3 20,-2 25,-16c3,-12 18,-28 33,-37c26,-14 24,-15 -40,-10c-288,22 -416,389 -207,596c77,76 143,100 259,97c67,-2 97,-9 140,-29z"/>
  <path fill="#ec8b3b" id="svg_76" d="m377,740c4,-14 8,-46 8,-72c0,-27 3,-48 8,-48c13,0 7,94 -9,120l-15,25l8,-25z"/>
  <path fill="#ec8b3b" id="svg_77" d="m435,699c2,-15 7,-38 11,-51c4,-18 0,-31 -15,-45c-20,-19 -20,-19 17,-14c20,3 30,6 21,8c-11,3 -15,11 -11,29c3,19 7,22 13,12c6,-9 9,-9 9,-1c0,7 -7,16 -15,21c-9,4 -20,21 -25,38c-9,25 -9,25 -5,3z"/>
  <path fill="#ec8b3b" id="svg_78" d="m362,645c-1,-11 -12,-25 -24,-30c-27,-12 -35,-42 -17,-59c9,-8 11,-7 6,7c-10,27 2,50 19,36c20,-16 26,-7 21,33c-2,18 -5,24 -5,13z"/>
  <path fill="#ec8b3b" id="svg_79" d="m583,627c-19,-27 -22,-42 -18,-97c4,-43 11,-69 22,-80c15,-13 16,-13 5,1c-6,8 -12,47 -14,86c-3,64 0,74 21,97c14,14 20,26 15,26c-5,0 -19,-15 -31,-33z"/>
  <path fill="#ec8b3b" id="svg_80" d="m375,590c-3,-5 -2,-10 4,-10c5,0 13,5 16,10c3,6 2,10 -4,10c-5,0 -13,-4 -16,-10z"/>
  <path fill="#ec8b3b" id="svg_81" d="m346,559c10,-21 12,-35 6,-41c-7,-7 -10,-4 -9,8c2,16 -4,18 -38,15c-50,-4 -60,-11 -15,-11c19,0 38,-7 45,-17c17,-23 38,-7 30,24c-4,18 -2,24 7,21c7,-3 16,-18 19,-34l5,-29l8,32c9,39 2,53 -23,46c-10,-3 -22,0 -25,6c-16,26 -25,8 -10,-20z"/>
  <path fill="#ec8b3b" id="svg_82" d="m177,542c-25,-27 -20,-63 13,-102c21,-24 30,-29 30,-17c0,9 -9,21 -20,27c-28,15 -36,55 -16,85c19,29 16,32 -7,7z"/>
  <path fill="#ec8b3b" id="svg_83" d="m521,543c-1,-12 7,-35 16,-52c15,-24 16,-35 7,-58c-20,-50 -26,-71 -13,-45c14,27 24,28 39,5c10,-16 11,-16 4,2c-4,11 -9,36 -12,55c-2,19 -9,40 -14,47c-5,6 -13,24 -18,40c-7,23 -8,24 -9,6z"/>
  <path fill="#ec8b3b" id="svg_84" d="m721,515c0,-35 2,-37 11,-19c7,15 7,28 -1,40c-9,16 -10,12 -10,-21z"/>
  <path fill="#ec8b3b" id="svg_85" d="m403,484c-5,-13 -8,-13 -15,-2c-7,9 -8,8 -4,-5c3,-10 6,-35 7,-55c0,-20 3,-31 6,-24c2,6 9,10 14,6c5,-3 9,0 9,5c0,6 -4,11 -10,11c-5,0 -10,12 -10,28l1,27l15,-25c10,-16 13,-18 8,-5c-4,11 -7,28 -8,38c0,21 -5,22 -13,1z"/>
  <path fill="#ec8b3b" id="svg_86" d="m653,363c-18,-19 -26,-21 -48,-13c-15,6 -36,9 -48,9c-20,-1 -21,-2 -2,-6c11,-3 31,-10 45,-15l24,-9l-24,-12c-13,-7 -26,-18 -28,-26c-5,-16 -3,-14 68,48c24,22 42,41 40,43c-3,2 -15,-6 -27,-19z"/>
  <path fill="#ec8b3b" id="svg_87" d="m406,350c7,-40 30,-70 54,-70c9,0 21,-5 28,-12c9,-9 12,-9 12,-1c0,11 -37,29 -52,25c-10,-2 -31,28 -24,35c4,4 11,1 15,-6c6,-8 11,-9 15,-3c3,6 -2,13 -12,17c-11,3 -24,15 -31,28c-10,19 -10,18 -5,-13z"/>
  <path fill="#ec8b3b" id="svg_88" d="m360,285c0,-13 26,-63 44,-82c20,-24 89,-33 101,-14c3,6 -9,8 -29,4c-29,-4 -39,-1 -61,23c-14,15 -28,38 -31,51c-5,19 -24,34 -24,18z"/>
  <path fill="#ec8b3b" id="svg_89" d="m933,720c-22,-9 -23,-13 -19,-112l5,-103l60,-1c41,-1 64,3 72,12c6,8 8,14 4,14c-4,0 -2,6 4,14c10,12 9,20 -4,39c-14,22 -14,26 0,37c20,17 19,50 -3,78c-20,26 -83,38 -119,22zm88,-39c33,-27 16,-55 -35,-58c-34,-1 -36,1 -36,31c0,18 3,36 7,39c12,13 41,7 64,-12zm4,-121c0,-22 -5,-25 -37,-28c-36,-3 -38,-2 -38,28c0,30 2,31 38,28c32,-3 37,-6 37,-28z"/>
  <path fill="#ec8b3b" id="svg_90" d="m1640,721c-8,-5 -17,-9 -20,-7c-7,3 -54,-49 -58,-65c-13,-51 -9,-69 21,-103c36,-41 84,-55 129,-37c32,12 68,65 68,100c0,34 -39,98 -64,104c-11,3 -30,8 -41,11c-11,4 -27,2 -35,-3zm65,-37c28,-11 45,-57 35,-96c-12,-41 -44,-61 -85,-54c-61,11 -84,79 -44,130c20,26 57,34 94,20z"/>
  <path fill="#ec8b3b" id="svg_91" d="m1837,713c-3,-10 -4,-61 -3,-113l1,-95l64,0c43,0 66,5 69,13c2,7 10,19 18,26c20,20 17,43 -8,79c-21,29 -21,31 -5,59c20,36 14,52 -14,37c-12,-6 -18,-13 -15,-16c13,-14 -16,-43 -44,-43c-25,0 -29,4 -32,32c-3,35 -24,49 -31,21zm107,-99c19,-18 21,-55 4,-72c-7,-7 -27,-12 -45,-12c-33,0 -33,0 -33,50c0,49 1,50 29,50c16,0 37,-7 45,-16z"/>
  <path fill="#ec8b3b" id="svg_92" d="m2301,720c-5,-3 -9,-54 -10,-113l-2,-108l62,2c71,3 102,22 119,74c14,41 9,75 -12,99c-10,11 -18,23 -18,27c0,15 -120,32 -139,19zm84,-30c4,-6 10,-8 14,-5c12,7 38,-26 46,-57c13,-51 -28,-97 -87,-98l-38,0l0,78c0,43 3,82 7,85c10,11 51,8 58,-3z"/>
  <path fill="#ec8b3b" id="svg_93" d="m1130,707c0,-7 4,-17 9,-22c5,-6 25,-47 44,-93c27,-66 36,-80 45,-69c7,8 9,17 5,20c-3,4 0,7 7,7c7,0 10,3 7,6c-3,4 -1,16 5,28c7,11 11,24 10,29c-1,4 3,7 10,7c6,0 8,3 5,6c-3,4 -1,16 5,28c7,11 12,24 13,28c0,3 3,10 8,14c13,13 7,24 -13,24c-11,0 -20,-4 -20,-10c0,-5 -22,-10 -49,-10c-28,0 -53,5 -56,10c-9,15 -35,12 -35,-3zm130,-34c0,-3 -6,-17 -14,-31c-8,-15 -17,-36 -20,-46c-7,-21 -16,-17 -21,11c-2,10 -4,19 -5,21c-2,1 -3,6 -4,11c0,5 -4,13 -8,17c-16,15 -7,21 32,21c22,0 40,-2 40,-4z"/>
  <path fill="#ec8b3b" id="svg_94" d="m1369,713c0,-5 -1,-53 -2,-108l0,-100l66,-3c55,-2 67,0 67,13c0,16 -6,18 -62,15l-38,-2l0,42l0,42l43,-4c32,-2 42,1 42,12c0,10 -13,16 -42,18c-43,3 -43,3 -43,43c0,28 -4,39 -15,39c-8,0 -15,-3 -16,-7z"/>
  <path fill="#ec8b3b" id="svg_95" d="m2065,690c9,-16 13,-30 10,-30c-3,0 1,-10 10,-23c8,-13 12,-27 8,-30c-3,-4 -2,-7 4,-7c9,0 24,-34 27,-62c1,-4 6,-12 12,-18c8,-8 16,1 29,32c10,24 17,46 16,51c0,4 4,7 10,7c5,0 8,3 6,8c-3,4 3,25 14,46c24,50 24,56 -2,56c-11,0 -17,-4 -14,-10c4,-6 -14,-9 -45,-9c-28,1 -53,6 -56,10c-3,5 -14,9 -25,9c-18,0 -19,-2 -4,-30zm115,-23c0,-7 -5,-18 -10,-23c-6,-6 -12,-21 -15,-34c-7,-36 -13,-35 -29,5c-23,54 -20,62 19,63c22,1 35,-3 35,-11z"/>
  <path fill="#ec8b3b" id="svg_96" d="m2540,700c0,-11 5,-20 11,-20c5,0 7,-4 4,-10c-3,-5 -2,-10 3,-10c9,0 27,-47 24,-62c-1,-5 3,-8 9,-8c5,0 8,-4 4,-9c-3,-5 -1,-12 5,-16c6,-4 8,-11 5,-16c-4,-5 -1,-9 4,-9c6,0 11,-7 11,-15c0,-8 5,-15 10,-15c9,0 14,14 11,33c0,4 3,7 9,7c6,0 9,3 8,8c-1,8 4,23 38,105c18,44 20,57 9,57c-7,0 -16,-4 -19,-9c-3,-5 -28,-9 -56,-9c-28,0 -53,4 -56,9c-10,17 -34,9 -34,-11zm129,-29c2,-1 -2,-7 -8,-15c-7,-8 -14,-24 -16,-37c-8,-40 -24,-46 -31,-11c-4,18 -11,35 -15,38c-5,3 -9,11 -9,19c0,10 11,13 38,10c20,-1 39,-3 41,-4z"/>
  <path fill="#ec8b3b" id="svg_97" d="m954,350c-30,-12 -37,-25 -20,-39c11,-9 17,-8 29,4c20,19 41,19 58,-1c16,-20 1,-49 -27,-50c-39,-2 -65,-16 -74,-40c-11,-29 -3,-54 24,-74c34,-24 106,-15 106,14c0,20 -20,31 -30,16c-4,-6 -20,-10 -36,-8c-23,2 -29,8 -29,28c0,22 5,25 38,28c70,6 95,89 36,119c-28,15 -45,15 -75,3z"/>
  <path fill="#ec8b3b" id="svg_98" d="m1199,355c0,0 -1,-48 -2,-107c-1,-65 2,-109 8,-111c6,-1 35,-3 65,-2c42,0 55,4 55,15c0,10 -11,15 -30,16c-16,1 -38,2 -47,3c-14,1 -18,10 -18,36c0,35 0,35 45,35c32,0 45,4 45,14c0,19 -18,24 -57,18c-31,-4 -33,-3 -33,28l0,32l50,-4c42,-2 50,0 50,14c0,16 -9,18 -65,15c-36,-1 -65,-2 -66,-2z"/>
  <path fill="#ec8b3b" id="svg_99" d="m1450,353c-4,-85 -4,-186 0,-197c3,-10 27,12 73,66l67,80l1,-48c2,-106 4,-119 18,-119c12,0 15,21 15,109c1,126 -8,138 -57,81c-18,-21 -44,-52 -59,-69l-27,-31l-1,68c0,53 -3,67 -15,67c-8,0 -15,-3 -15,-7z"/>
  <path fill="#ec8b3b" id="svg_100" d="m1732,248c2,-92 6,-113 18,-113c12,0 15,13 13,63l-3,62l45,0c39,0 45,-3 51,-24c3,-13 3,-39 0,-57c-6,-37 -1,-50 17,-43c9,3 11,35 10,112c-2,87 -5,108 -18,110c-11,3 -15,-5 -15,-32c0,-36 0,-36 -44,-36c-44,0 -45,0 -43,32c2,24 -3,33 -16,36c-16,3 -17,-5 -15,-110z"/>
  <path fill="#ec8b3b" id="svg_101" d="m2020,343c-44,-31 -60,-116 -29,-160c17,-24 66,-49 94,-47c78,5 114,56 106,151c-1,18 -49,63 -69,65c-52,5 -86,2 -102,-9zm115,-38c15,-14 25,-36 25,-53c0,-33 -30,-77 -58,-84c-30,-8 -81,18 -92,47c-15,40 -12,52 20,85c36,37 72,39 105,5z"/>
  <path fill="#ec8b3b" id="svg_102" d="m2279,353c0,-5 -1,-55 -2,-113l-1,-105l56,0c48,0 60,4 81,27c28,30 29,86 2,101c-19,10 -19,24 -1,59c8,15 12,29 8,32c-11,11 -32,6 -32,-8c0,-7 -7,-19 -15,-26c-8,-7 -12,-16 -9,-21c3,-5 -9,-9 -25,-9c-29,0 -31,3 -31,35c0,24 -5,35 -15,35c-8,0 -15,-3 -16,-7zm108,-105c15,-12 17,-47 4,-67c-5,-8 -25,-16 -45,-17l-36,-3l0,48c0,26 3,51 7,55c9,9 53,-1 70,-16z"/>
  <path fill="#ec8b3b" id="svg_103" d="m2540,356c0,-2 7,-19 15,-39c8,-19 11,-37 8,-41c-4,-3 0,-6 7,-6c7,0 11,-3 7,-6c-3,-3 5,-25 18,-47c12,-23 23,-46 23,-52c0,-5 5,-11 10,-13c8,-2 16,13 27,53c1,6 16,40 33,75c17,36 28,68 25,72c-6,12 -33,10 -33,-2c0,-5 -25,-10 -56,-10c-34,0 -53,4 -49,10c3,6 -3,10 -14,10c-12,0 -21,-2 -21,-4zm116,-46c10,0 12,-5 7,-12c-4,-7 -8,-15 -9,-18c-6,-30 -18,-60 -24,-60c-8,0 -19,23 -21,45c0,6 -6,16 -12,23c-13,16 9,35 31,27c8,-3 20,-5 28,-5z"/>
  <path fill="#ec8b3b" id="svg_104" d="m920,610l0,-110l48,0c47,0 65,8 91,42c10,14 9,21 -4,41c-14,22 -14,26 0,37c21,17 19,52 -5,78c-17,17 -32,22 -75,22l-55,0l0,-110zm101,71c33,-27 16,-55 -35,-59c-35,-3 -36,-2 -36,31c0,18 3,37 7,40c12,13 41,7 64,-12zm4,-121c0,-22 -5,-25 -37,-28c-36,-3 -38,-2 -38,28c0,30 2,31 38,28c32,-3 37,-6 37,-28z"/>
  <path fill="#ec8b3b" id="svg_105" d="m1149,673c62,-152 70,-169 77,-145c3,12 11,22 17,22c6,0 8,3 4,6c-6,6 39,119 56,142c14,19 -1,28 -23,14c-24,-14 -106,-16 -115,-2c-3,6 -13,10 -20,10c-12,0 -11,-9 4,-47zm111,3c0,-2 -10,-25 -22,-52l-21,-49l-12,30c-30,74 -30,75 14,75c23,0 41,-2 41,-4z"/>
  <path fill="#ec8b3b" id="svg_106" d="m1370,610l0,-110l65,0c51,0 65,3 65,15c0,11 -12,15 -50,15l-50,0l0,41l0,41l43,-4c32,-2 42,1 42,12c0,10 -13,16 -42,18c-43,3 -43,3 -43,43c0,28 -4,39 -15,39c-12,0 -15,-19 -15,-110z"/>
  <path fill="#ec8b3b" id="svg_107" d="m2095,620c23,-55 44,-103 47,-105c3,-4 34,66 85,193c3,6 -2,12 -11,12c-9,0 -16,-4 -16,-10c0,-5 -22,-10 -49,-10c-28,0 -53,5 -56,10c-3,6 -14,10 -25,10c-16,0 -13,-12 25,-100zm84,48c0,-7 -9,-31 -18,-53l-18,-40l-17,39c-24,57 -21,66 19,66c22,0 35,-5 34,-12z"/>
  <path fill="#ec8b3b" id="svg_108" d="m2562,668c11,-29 30,-77 42,-105c23,-58 31,-64 39,-30c2,12 21,59 40,105c27,60 32,82 22,82c-8,0 -17,-4 -20,-10c-3,-5 -28,-10 -55,-10c-27,0 -52,5 -55,10c-3,6 -13,10 -20,10c-12,0 -11,-10 7,-52zm101,5c3,-5 -4,-28 -15,-53l-20,-45l-18,40c-27,58 -25,65 14,65c19,0 37,-3 39,-7z"/>
  <path fill="#ec8b3b" id="svg_109" d="m1450,248c0,-61 2,-109 4,-107c2,2 33,39 70,82l66,79l1,-44c2,-106 4,-123 17,-123c10,0 14,25 14,110c0,134 -7,137 -83,45l-54,-64l-5,64c-3,41 -10,66 -17,68c-10,1 -13,-26 -13,-110z"/>
  <path fill="#ec8b3b" id="svg_110" d="m2544,343c4,-9 24,-57 44,-105c34,-81 52,-107 52,-75c0,6 18,51 39,99c24,53 35,90 29,94c-5,3 -15,1 -21,-5c-14,-14 -117,-15 -117,-1c0,6 -7,10 -16,10c-11,0 -14,-5 -10,-17zm111,-33c12,0 11,-8 -3,-45c-9,-25 -19,-45 -23,-45c-4,0 -14,19 -23,42c-14,33 -15,43 -4,49c7,5 19,7 26,4c8,-3 20,-5 27,-5z"/>
  <path fill="#ec8b3b" id="svg_111" d="m333,785c-98,-27 -194,-108 -240,-205c-23,-47 -27,-68 -27,-150c-1,-86 2,-101 29,-154c38,-76 105,-143 181,-180c51,-26 71,-30 144,-30c95,0 145,13 209,57c62,43 96,82 134,157c29,58 32,73 31,150c0,102 -27,171 -96,246c-57,62 -105,91 -180,109c-77,18 -117,18 -185,0zm247,-37c30,-14 72,-43 93,-64c33,-32 38,-42 33,-68c-3,-17 -1,-38 5,-46c8,-12 9,-9 5,12c-10,47 14,41 37,-9c33,-71 32,-217 -2,-288c-23,-49 -116,-155 -135,-155c-5,0 -17,-7 -27,-16c-9,-8 -41,-18 -71,-21c-52,-5 -56,-4 -92,31c-22,20 -49,36 -61,36c-11,0 -34,13 -49,29c-26,27 -28,35 -24,82c5,46 4,50 -8,34c-37,-50 12,-154 72,-155c12,0 38,-16 59,-36l38,-35l-58,2c-74,3 -155,41 -215,101c-189,187 -108,505 150,589c14,5 63,7 110,6c67,-2 97,-9 140,-29z"/>
  <path fill="#ec8b3b" id="svg_112" d="m376,740c4,-14 11,-43 15,-65l6,-40l1,40c1,22 -5,51 -14,65l-15,25l7,-25z"/>
  <path fill="#ec8b3b" id="svg_113" d="m431,710c-1,-8 6,-33 14,-55c8,-22 14,-33 14,-25c1,8 -6,33 -14,55c-8,22 -14,33 -14,25z"/>
  <path fill="#ec8b3b" id="svg_114" d="m310,641c0,-11 5,-21 11,-21c5,0 7,4 4,10c-4,6 1,7 12,3c19,-7 18,-5 -9,16c-16,12 -18,11 -18,-8z"/>
  <path fill="#ec8b3b" id="svg_115" d="m360,650c0,-7 3,-10 7,-7c3,4 3,10 0,14c-4,3 -7,0 -7,-7z"/>
  <path fill="#ec8b3b" id="svg_116" d="m583,627c-20,-29 -22,-41 -16,-100c4,-44 11,-71 22,-79c14,-11 14,-11 5,2c-6,8 -14,45 -17,82c-6,62 -4,70 19,98c14,16 22,30 17,30c-4,0 -18,-15 -30,-33z"/>
  <path fill="#ec8b3b" id="svg_117" d="m470,640c0,-7 3,-10 7,-7c3,4 3,10 0,14c-4,3 -7,0 -7,-7z"/>
  <path fill="#ec8b3b" id="svg_118" d="m340,617c-28,-14 -38,-44 -19,-61c9,-8 11,-7 6,7c-10,27 2,50 19,36c17,-14 27,-7 22,15c-2,13 -7,14 -28,3z"/>
  <path fill="#ec8b3b" id="svg_119" d="m424,596c-13,-10 -10,-12 20,-8c41,5 44,8 16,15c-10,3 -26,-1 -36,-7z"/>
  <path fill="#ec8b3b" id="svg_120" d="m376,592c-3,-6 0,-13 6,-15c8,-4 7,-6 -4,-6c-9,-1 -20,4 -23,9c-16,25 -24,7 -9,-21c12,-24 13,-34 4,-43c-8,-8 -10,-7 -5,5c8,21 -4,29 -30,18c-15,-6 -16,-8 -4,-8c9,-1 19,-8 23,-16c9,-25 38,-6 32,21c-4,13 -2,24 3,24c14,0 26,-22 24,-45c-1,-11 3,-6 9,12c8,25 7,36 -5,53c-8,12 -18,17 -21,12z"/>
  <path fill="#ec8b3b" id="svg_121" d="m177,542c-24,-27 -21,-67 6,-89c13,-10 23,-21 23,-25c-1,-3 2,-10 7,-14c4,-4 7,0 7,9c0,9 -9,21 -20,27c-28,15 -36,55 -16,85c19,29 16,32 -7,7z"/>
  <path fill="#ec8b3b" id="svg_122" d="m521,545c0,-12 8,-38 19,-60c11,-22 20,-33 20,-24c0,8 -6,24 -14,35c-8,11 -16,31 -19,44c-3,20 -5,21 -6,5z"/>
  <path fill="#ec8b3b" id="svg_123" d="m723,515c0,-22 2,-30 4,-17c2,12 2,30 0,40c-3,9 -5,-1 -4,-23z"/>
  <path fill="#ec8b3b" id="svg_124" d="m399,478c-6,-13 -8,-19 -3,-15c4,4 14,-3 22,-15c10,-18 12,-18 6,-3c-4,11 -7,28 -8,38c0,22 -3,22 -17,-5z"/>
  <path fill="#ec8b3b" id="svg_125" d="m696,446c-23,-36 -20,-44 5,-12c12,15 19,29 16,32c-2,2 -12,-7 -21,-20z"/>
  <path fill="#ec8b3b" id="svg_126" d="m393,436c1,-11 9,-21 17,-23c10,-3 11,-2 4,4c-6,4 -14,15 -17,23c-5,11 -6,9 -4,-4z"/>
  <path fill="#ec8b3b" id="svg_127" d="m536,412c-21,-40 -20,-56 1,-18l15,29l14,-24c7,-13 13,-19 13,-14c0,6 -6,21 -13,34l-14,25l-16,-32z"/>
  <path fill="#ec8b3b" id="svg_128" d="m450,410c0,-11 39,-20 45,-10c3,4 -6,10 -20,12c-14,3 -25,2 -25,-2z"/>
  <path fill="#ec8b3b" id="svg_129" d="m224,391c10,-15 65,-31 71,-20c4,5 -5,9 -19,9c-14,0 -28,5 -31,10c-3,6 -11,10 -16,10c-6,0 -8,-4 -5,-9z"/>
  <path fill="#ec8b3b" id="svg_130" d="m659,367c-11,-15 -26,-21 -45,-20c-25,2 -27,1 -10,-8c17,-11 17,-12 -5,-23c-12,-6 -25,-17 -27,-25c-5,-16 -3,-14 68,48c24,22 42,42 40,44c-3,3 -12,-5 -21,-16z"/>
  <path fill="#ec8b3b" id="svg_131" d="m406,350c7,-40 30,-70 54,-70c9,0 21,-5 28,-12c9,-9 12,-9 12,-1c0,11 -29,25 -41,20c-11,-4 -40,26 -36,38c3,6 -2,22 -9,36c-14,23 -15,23 -8,-11z"/>
  <path fill="#ec8b3b" id="svg_132" d="m496,339c-11,-11 -15,-19 -9,-19c12,0 38,28 32,34c-2,2 -13,-5 -23,-15z"/>
  <path fill="#ec8b3b" id="svg_133" d="m548,353c6,-2 18,-2 25,0c6,3 1,5 -13,5c-14,0 -19,-2 -12,-5z"/>
  <path fill="#ec8b3b" id="svg_134" d="m375,253c9,-21 25,-46 36,-55c22,-19 84,-24 94,-9c3,6 -9,8 -29,4c-29,-4 -39,-1 -61,23c-14,15 -28,38 -31,51c-4,13 -10,23 -15,23c-5,0 -2,-17 6,-37z"/>
  <path fill="#ec8b3b" id="svg_135" d="m530,260c-23,-7 -23,-8 -3,-9c12,-1 25,4 28,9c3,6 5,10 3,9c-2,-1 -14,-5 -28,-9z"/>
  <path fill="#ec8b3b" id="svg_136" d="m1846,723c-3,-3 -6,-55 -6,-115l0,-108l50,0c85,0 124,61 84,129c-15,25 -15,30 0,59c23,44 1,51 -25,8c-16,-28 -27,-36 -50,-36c-25,0 -29,4 -29,29c0,30 -12,46 -24,34zm98,-109c19,-18 21,-55 4,-72c-7,-7 -27,-12 -45,-12c-33,0 -33,0 -33,50c0,49 1,50 29,50c16,0 37,-7 45,-16z"/>
  <path fill="#ec8b3b" id="svg_137" d="m920,610l0,-110l48,0c47,0 65,8 91,42c10,14 9,21 -4,41c-14,22 -14,26 0,37c21,17 19,52 -5,78c-17,17 -32,22 -75,22l-55,0l0,-110zm101,71c33,-27 16,-55 -35,-59c-35,-3 -36,-2 -36,31c0,18 3,37 7,40c12,13 41,7 64,-12zm-76,-71c3,-5 1,-10 -4,-10c-6,0 -11,5 -11,10c0,6 2,10 4,10c3,0 8,-4 11,-10zm80,-50c0,-22 -5,-25 -37,-28c-36,-3 -38,-2 -38,28c0,30 2,31 38,28c32,-3 37,-6 37,-28z"/>
  <path fill="#ec8b3b" id="svg_138" d="m1149,673c62,-152 70,-169 77,-145c3,12 11,22 17,22c6,0 8,3 4,6c-6,6 39,119 56,142c14,19 -1,28 -23,14c-24,-14 -106,-16 -115,-2c-3,6 -13,10 -20,10c-12,0 -11,-9 4,-47zm124,9c-7,-4 -22,-30 -34,-57l-22,-50l-12,30c-30,73 -30,73 17,78c24,2 48,4 53,5c6,1 5,-2 -2,-6z"/>
  <path fill="#ec8b3b" id="svg_139" d="m1370,610l0,-110l65,0c53,0 65,3 65,16c0,13 -10,15 -53,12l-52,-3l4,34c2,21 -2,36 -10,42c-11,7 -12,12 -1,29c18,29 16,90 -3,90c-12,0 -15,-19 -15,-110z"/>
  <path fill="#ec8b3b" id="svg_140" d="m1612,705c-13,-10 -32,-31 -42,-47c-22,-37 -12,-90 25,-127c21,-21 35,-26 76,-26c43,0 54,4 75,28c43,51 44,103 1,153c-29,34 -100,44 -135,19zm93,-21c28,-11 45,-58 35,-94c-18,-62 -81,-80 -125,-35c-31,30 -32,73 -4,109c20,26 57,34 94,20z"/>
  <path fill="#ec8b3b" id="svg_141" d="m2095,620c23,-55 44,-103 47,-105c3,-4 34,66 85,193c3,6 -2,12 -11,12c-9,0 -16,-4 -16,-10c0,-5 -22,-10 -49,-10c-28,0 -53,5 -56,10c-3,6 -14,10 -25,10c-16,0 -13,-12 25,-100zm85,51c0,-5 -7,-25 -15,-45c-9,-20 -14,-42 -13,-49c2,-7 -2,-13 -7,-14c-6,-1 -11,8 -12,22c-1,13 -7,33 -12,44c-20,37 -14,51 24,51c19,0 35,-4 35,-9z"/>
  <path fill="#ec8b3b" id="svg_142" d="m2291,610l-2,-110l53,0c98,0 155,64 128,145c-18,53 -52,75 -120,75l-58,0l-1,-110zm130,64c37,-34 32,-99 -10,-131c-9,-7 -33,-13 -53,-13l-38,0l0,78c0,43 3,82 8,86c11,12 72,-1 93,-20z"/>
  <path fill="#ec8b3b" id="svg_143" d="m2562,668c11,-29 30,-77 42,-105c23,-58 31,-64 39,-30c2,12 21,59 40,105c27,60 32,82 22,82c-8,0 -17,-4 -20,-10c-3,-5 -28,-10 -55,-10c-27,0 -52,5 -55,10c-3,6 -13,10 -20,10c-12,0 -11,-10 7,-52zm100,6c3,-3 -4,-29 -15,-58l-21,-53l-18,51c-9,28 -17,54 -18,59c0,8 64,10 72,1z"/>
  <path fill="#ec8b3b" id="svg_144" d="m1400,626c0,-15 78,-28 86,-14c11,17 -9,28 -47,28c-27,0 -39,-4 -39,-14z"/>
  <path fill="#ec8b3b" id="svg_145" d="m960,353c-32,-12 -41,-25 -29,-40c10,-11 15,-11 30,3c21,19 48,16 62,-8c15,-23 -8,-48 -44,-48c-35,0 -59,-24 -59,-59c0,-37 28,-61 72,-61c41,0 68,24 49,43c-9,9 -14,9 -20,-1c-5,-8 -21,-12 -37,-10c-23,2 -29,8 -29,28c0,20 6,25 40,32c44,9 65,30 65,63c0,12 -6,29 -12,38c-14,18 -64,30 -88,20z"/>
  <path fill="#ec8b3b" id="svg_146" d="m1200,355c-1,0 -2,-48 -3,-108l-2,-107l58,0c31,0 60,0 65,0c4,0 7,6 7,13c0,6 -13,13 -30,13c-16,1 -38,2 -47,3c-14,1 -18,10 -18,36c0,35 0,35 45,35c33,0 45,4 45,15c0,11 -12,15 -45,15c-44,0 -45,1 -45,31c0,31 0,31 50,27c42,-2 50,0 50,14c0,16 -9,18 -65,15c-36,-1 -65,-2 -65,-2z"/>
  <path fill="#ec8b3b" id="svg_147" d="m1450,247c0,-61 2,-108 4,-106c97,114 128,153 130,167c3,21 26,28 26,8c0,-9 -5,-16 -10,-16c-7,0 -10,-30 -8,-82c2,-61 7,-83 16,-83c10,0 14,25 14,110c0,89 -3,110 -15,110c-17,0 -122,-123 -122,-143c0,-9 -6,-17 -12,-19c-15,-5 -17,23 -3,32c6,3 10,34 10,69c0,49 -3,63 -15,63c-12,0 -15,-19 -15,-110z"/>
  <path fill="#ec8b3b" id="svg_148" d="m1732,248c2,-78 7,-113 16,-116c9,-3 12,14 12,62l0,66l45,0c39,0 45,-3 51,-24c3,-13 3,-39 0,-57c-6,-37 -1,-50 17,-43c9,3 11,35 10,112c-2,88 -5,108 -17,110c-12,3 -16,-5 -16,-32l0,-36l-46,0c-46,0 -46,0 -42,30c4,26 -6,40 -28,40c-3,0 -3,-50 -2,-112z"/>
  <path fill="#ec8b3b" id="svg_149" d="m2044,349c-84,-25 -95,-156 -17,-198c50,-26 124,-8 148,38c49,96 -29,191 -131,160zm91,-44c30,-30 32,-73 5,-107c-25,-33 -49,-39 -89,-22c-29,12 -51,46 -51,80c0,25 56,74 85,74c14,0 37,-11 50,-25z"/>
  <path fill="#ec8b3b" id="svg_150" d="m2280,248l0,-113l54,3c66,5 96,28 96,76c0,19 -7,39 -15,46c-19,15 -19,28 -1,62c14,26 12,38 -6,38c-5,0 -16,-16 -25,-35c-13,-28 -23,-35 -45,-35c-25,0 -28,3 -28,35c0,24 -5,35 -15,35c-12,0 -15,-19 -15,-112zm107,0c18,-14 16,-53 -3,-72c-8,-9 -29,-16 -45,-16c-28,0 -29,2 -29,48c0,27 3,52 7,56c9,9 53,-1 70,-16z"/>
  <path fill="#ec8b3b" id="svg_151" d="m2544,343c4,-9 24,-57 44,-105c34,-81 52,-107 52,-75c0,6 18,51 39,99c24,53 35,90 29,94c-5,3 -15,1 -21,-5c-14,-14 -117,-15 -117,-1c0,6 -7,10 -16,10c-11,0 -14,-5 -10,-17zm111,-33c12,0 11,-8 -3,-45c-9,-25 -19,-45 -23,-45c-4,0 -14,19 -23,42c-14,33 -15,43 -4,49c7,5 19,7 26,4c8,-3 20,-5 27,-5zm-15,-110c0,-5 -4,-10 -10,-10c-5,0 -10,5 -10,10c0,6 5,10 10,10c6,0 10,-4 10,-10z"/>
  <path fill="#ec8b3b" id="svg_152" d="m340,786c-69,-20 -121,-50 -172,-101c-110,-111 -136,-267 -70,-410c71,-150 231,-235 390,-206c202,37 339,225 303,418c-15,83 -40,133 -99,195c-91,98 -229,138 -352,104zm194,-18c77,-22 176,-101 176,-140c0,-10 5,-16 10,-13c6,4 21,-18 35,-50c36,-79 35,-191 0,-272c-47,-106 -149,-191 -241,-200c-51,-5 -55,-4 -90,31c-20,20 -46,36 -58,36c-25,0 -70,44 -81,78c-4,13 -9,21 -11,19c-3,-3 1,-20 9,-40c16,-37 51,-67 78,-67c9,0 33,-16 53,-35l37,-35l-53,0c-69,0 -157,41 -218,102c-175,173 -122,462 104,569c50,24 74,29 135,29c40,0 92,-5 115,-12z"/>
  <path fill="#ec8b3b" id="svg_153" d="m329,638c-7,-25 -4,-46 12,-71c26,-43 24,-60 -2,-22c-12,17 -19,22 -15,13c4,-13 0,-18 -12,-18c-10,-1 -5,-6 13,-14c36,-16 48,-11 40,15c-7,21 5,25 22,8c18,-18 26,8 10,32c-9,13 -17,16 -22,10c-3,-6 -1,-11 6,-11c7,0 9,-3 6,-7c-9,-8 -57,17 -57,31c0,6 5,5 12,-2c17,-17 28,-15 28,7c0,15 -5,18 -22,13c-14,-3 -19,-2 -14,6c4,7 5,12 2,12c-3,0 -6,-1 -7,-2z"/>
  <path fill="#ec8b3b" id="svg_154" d="m401,482c-7,-13 -6,-19 2,-19c7,0 13,9 13,19c0,10 -1,18 -3,18c-1,0 -7,-8 -12,-18z"/>
  <path fill="#ec8b3b" id="svg_155" d="m413,332c0,-23 26,-52 47,-52c9,0 20,-3 26,-7c5,-5 1,0 -9,9c-11,10 -23,16 -27,13c-11,-7 -33,22 -26,34c4,5 3,12 -2,15c-5,3 -9,-3 -9,-12z"/>
  <path fill="#ec8b3b" id="svg_156" d="m284,304c-4,-10 -9,-22 -11,-26c-2,-5 0,-8 5,-8c10,0 24,41 17,48c-3,3 -8,-4 -11,-14z"/>
  <path fill="#ec8b3b" id="svg_157" d="m370,283c0,-23 19,-61 41,-82c24,-22 83,-29 94,-11c4,6 -5,7 -23,4c-41,-8 -71,11 -93,59c-10,23 -19,37 -19,30z"/>
  <path fill="#ec8b3b" id="svg_158" d="m920,610l0,-110l50,0c72,0 107,39 80,90c-7,13 -6,21 5,30c21,17 19,52 -5,78c-17,17 -32,22 -75,22l-55,0l0,-110zm101,71c33,-27 16,-55 -35,-59c-35,-3 -36,-2 -36,31c0,18 3,37 7,40c12,13 41,7 64,-12zm-76,-71c3,-5 1,-10 -4,-10c-6,0 -11,5 -11,10c0,6 2,10 4,10c3,0 8,-4 11,-10zm80,-50c0,-22 -5,-25 -37,-28c-36,-3 -38,-2 -38,28c0,30 2,31 38,28c32,-3 37,-6 37,-28z"/>
  <path fill="#ec8b3b" id="svg_159" d="m1149,673c69,-170 69,-170 79,-143c6,14 26,62 46,108c26,60 32,82 21,82c-8,0 -17,-4 -20,-10c-3,-5 -28,-10 -55,-10c-27,0 -52,5 -55,10c-3,6 -13,10 -20,10c-12,0 -11,-9 4,-47zm124,9c-7,-4 -22,-30 -34,-57l-22,-50l-12,30c-30,73 -30,73 17,78c24,2 48,4 53,5c6,1 5,-2 -2,-6z"/>
  <path fill="#ec8b3b" id="svg_160" d="m1370,610l0,-111l62,3c40,2 63,8 66,16c3,11 -8,13 -50,10l-53,-3l4,34c2,21 -2,36 -10,42c-11,7 -12,12 -1,29c18,29 16,90 -3,90c-12,0 -15,-19 -15,-110z"/>
  <path fill="#ec8b3b" id="svg_161" d="m1595,687c-47,-47 -49,-101 -6,-149c26,-29 35,-33 81,-33c44,0 55,4 76,28c64,75 28,173 -69,184c-43,5 -49,3 -82,-30zm110,-3c28,-11 45,-58 35,-94c-18,-62 -81,-80 -125,-35c-31,30 -32,73 -4,109c20,26 57,34 94,20z"/>
  <path fill="#ec8b3b" id="svg_162" d="m1840,610l0,-110l50,0c85,0 124,61 84,129c-15,25 -15,30 0,59c14,28 15,32 2,32c-9,0 -22,-13 -31,-30c-12,-23 -22,-30 -45,-30c-27,0 -30,3 -30,30c0,20 -5,30 -15,30c-12,0 -15,-19 -15,-110zm104,4c19,-18 21,-55 4,-72c-7,-7 -27,-12 -45,-12c-33,0 -33,0 -33,50c0,49 1,50 29,50c16,0 37,-7 45,-16z"/>
  <path fill="#ec8b3b" id="svg_163" d="m2060,711c0,-12 82,-203 85,-199c2,2 64,150 82,196c3,6 -2,12 -11,12c-9,0 -16,-4 -16,-10c0,-5 -22,-10 -49,-10c-28,0 -53,5 -56,10c-8,13 -35,13 -35,1zm120,-40c0,-5 -7,-25 -15,-45c-9,-20 -14,-42 -13,-49c2,-7 -2,-13 -7,-14c-6,-1 -11,8 -12,22c-1,13 -7,33 -12,44c-20,37 -14,51 24,51c19,0 35,-4 35,-9z"/>
  <path fill="#ec8b3b" id="svg_164" d="m2295,698c-3,-13 -5,-61 -3,-108l3,-85l47,-3c93,-6 153,59 129,139c-17,55 -52,79 -117,79c-47,0 -54,-3 -59,-22zm126,-24c37,-34 32,-99 -10,-131c-9,-7 -33,-13 -53,-13l-38,0l0,78c0,43 3,82 8,86c11,12 72,-1 93,-20z"/>
  <path fill="#ec8b3b" id="svg_165" d="m2559,673c11,-27 31,-75 44,-107l25,-59l19,44c49,111 66,159 60,166c-4,4 -13,1 -19,-5c-15,-15 -104,-16 -113,-2c-3,6 -13,10 -20,10c-12,0 -11,-9 4,-47zm103,1c3,-3 -4,-29 -15,-58l-21,-53l-18,51c-9,28 -17,54 -18,59c0,8 64,10 72,1z"/>
  <path fill="#ec8b3b" id="svg_166" d="m1400,626c0,-12 11,-16 41,-16c52,0 48,24 -4,28c-28,2 -37,-1 -37,-12z"/>
  <path fill="#ec8b3b" id="svg_167" d="m953,350c-13,-5 -23,-16 -23,-25c0,-18 13,-19 39,-3c35,22 77,-16 51,-47c-7,-8 -25,-15 -40,-15c-53,0 -81,-68 -42,-103c23,-21 85,-22 102,-2c14,16 13,17 -45,19c-35,1 -40,4 -40,26c0,20 6,25 40,32c44,9 65,30 65,63c0,47 -57,76 -107,55z"/>
  <path fill="#ec8b3b" id="svg_168" d="m1204,351c-2,-2 -4,-51 -4,-108l0,-103l61,0c44,0 60,3 57,13c-3,6 -18,13 -34,13c-16,1 -35,2 -41,3c-8,1 -13,15 -13,36c0,34 1,35 40,35c29,0 40,4 40,15c0,11 -11,15 -40,15c-38,0 -40,2 -40,30c0,29 1,30 51,30c36,0 49,4 46,13c-4,11 -112,18 -123,8z"/>
  <path fill="#ec8b3b" id="svg_169" d="m1450,249l0,-110l66,76c36,42 67,83 68,92c3,22 26,29 26,9c0,-9 -5,-16 -10,-16c-6,0 -10,-26 -9,-62c1,-72 6,-98 20,-98c5,0 9,49 9,110c0,81 -3,110 -12,110c-16,0 -123,-129 -123,-149c0,-8 -6,-16 -12,-18c-15,-5 -17,23 -3,32c17,10 12,122 -5,129c-13,5 -15,-11 -15,-105z"/>
  <path fill="#ec8b3b" id="svg_170" d="m1736,344c-3,-9 -6,-58 -6,-110c0,-77 3,-94 15,-94c12,0 15,13 15,60l0,60l45,0c39,0 45,-3 51,-24c3,-13 3,-38 1,-55c-5,-29 7,-50 20,-37c7,7 4,197 -4,209c-8,13 -23,-13 -23,-40c0,-20 -5,-23 -45,-23c-43,0 -45,1 -45,29c0,34 -15,49 -24,25z"/>
  <path fill="#ec8b3b" id="svg_171" d="m2041,347c-81,-29 -91,-161 -14,-196c55,-25 124,-7 148,38c24,47 19,96 -12,131c-33,35 -74,45 -122,27zm94,-42c30,-30 32,-73 5,-107c-25,-33 -49,-39 -89,-22c-29,12 -51,46 -51,80c0,25 56,74 85,74c14,0 37,-11 50,-25z"/>
  <path fill="#ec8b3b" id="svg_172" d="m2383,325c-13,-28 -23,-35 -45,-35c-24,0 -28,4 -28,30c0,20 -5,30 -15,30c-12,0 -15,-18 -15,-105l0,-105l53,0c40,0 59,5 75,20c26,24 30,81 7,100c-19,15 -19,28 -1,62c12,23 12,27 0,32c-10,4 -20,-7 -31,-29zm4,-77c18,-14 16,-53 -3,-72c-8,-9 -29,-16 -45,-16c-28,0 -29,2 -29,48c0,27 3,52 7,56c9,9 53,-1 70,-16z"/>
  <path fill="#ec8b3b" id="svg_173" d="m2544,343c36,-92 82,-191 87,-185c4,4 24,47 44,95c26,61 35,91 28,98c-8,8 -13,7 -17,0c-9,-14 -116,-15 -116,-1c0,6 -7,10 -16,10c-11,0 -14,-5 -10,-17zm111,-33c12,0 11,-8 -3,-45c-9,-25 -19,-45 -23,-45c-4,0 -14,19 -23,42c-14,33 -15,43 -4,49c7,5 19,7 26,4c8,-3 20,-5 27,-5zm-15,-110c0,-5 -4,-10 -10,-10c-5,0 -10,5 -10,10c0,6 5,10 10,10c6,0 10,-4 10,-10z"/>
  <path fill="#ec8b3b" id="svg_174" d="m920,610l0,-108l48,0c34,0 53,5 70,20c23,22 29,52 12,63c-14,8 -13,21 3,37c11,12 13,21 9,55c-4,28 -33,41 -87,41l-55,-1l0,-107zm112,65c18,-40 -22,-72 -70,-54c-42,16 -20,79 29,79c22,0 32,-6 41,-25zm-87,-65c3,-5 1,-10 -4,-10c-6,0 -11,5 -11,10c0,6 2,10 4,10c3,0 8,-4 11,-10zm73,-23c14,-11 16,-43 4,-51c-24,-15 -63,-14 -71,2c-21,41 29,79 67,49z"/>
  <path fill="#ec8b3b" id="svg_175" d="m1166,643c19,-43 34,-84 34,-90c0,-7 4,-13 10,-13c5,0 7,-8 3,-17c-4,-12 -3,-14 4,-8c5,6 24,48 43,95c18,47 38,91 43,98c7,8 5,12 -7,12c-9,0 -16,-4 -16,-10c0,-5 -24,-10 -54,-10c-30,0 -58,5 -61,10c-3,6 -12,10 -20,10c-9,0 -3,-23 21,-77zm109,39c-6,-4 -20,-28 -33,-54c-13,-27 -25,-48 -28,-48c-6,0 -34,70 -34,86c0,8 16,14 43,17c23,2 47,4 52,5c7,1 7,-1 0,-6z"/>
  <path fill="#ec8b3b" id="svg_176" d="m1370,611l0,-110l62,2c41,1 63,6 66,15c3,11 -8,13 -50,10l-53,-3l4,34c2,21 -2,36 -10,42c-11,7 -12,12 -1,29c18,29 16,90 -3,90c-12,0 -15,-19 -15,-109z"/>
  <path fill="#ec8b3b" id="svg_177" d="m1618,705c-31,-17 -58,-62 -58,-95c0,-34 28,-79 61,-96c64,-33 134,3 153,78c20,83 -81,155 -156,113zm111,-42c45,-51 7,-133 -62,-133c-76,0 -106,94 -45,145c37,32 71,28 107,-12z"/>
  <path fill="#ec8b3b" id="svg_178" d="m1840,609l0,-112l58,6c43,5 62,12 75,29c22,26 18,79 -7,103c-13,14 -13,19 5,50c28,46 3,48 -26,2c-29,-45 -69,-45 -73,1c-2,20 -9,32 -18,32c-11,0 -14,-21 -14,-111zm108,9c16,-16 15,-63 -1,-76c-7,-6 -25,-13 -40,-16c-34,-6 -48,18 -40,68c5,33 9,36 37,36c18,0 37,-5 44,-12z"/>
  <path fill="#ec8b3b" id="svg_179" d="m2060,707c0,-7 4,-17 9,-22c5,-6 23,-47 41,-92c18,-46 34,-83 35,-83c1,0 17,41 35,90c18,50 37,93 41,96c14,8 10,24 -6,24c-8,0 -15,-4 -15,-10c0,-5 -25,-10 -55,-10c-30,0 -55,5 -55,10c0,6 -7,10 -15,10c-8,0 -15,-6 -15,-13zm120,-36c0,-5 -7,-25 -15,-45c-9,-20 -14,-42 -13,-49c2,-7 -2,-12 -7,-12c-6,0 -11,5 -11,10c-1,6 -3,13 -4,18c-1,4 -3,11 -4,16c0,5 -4,13 -8,17c-5,4 -8,18 -8,31c0,20 5,23 35,23c19,0 35,-4 35,-9z"/>
  <path fill="#ec8b3b" id="svg_180" d="m2299,699c-1,-13 -1,-62 -1,-109l1,-85l53,-1c47,0 57,4 87,33c31,31 33,37 29,84c-7,69 -29,89 -107,96c-59,6 -61,5 -62,-18zm129,-34c12,-14 22,-39 22,-55c0,-36 -37,-78 -70,-81c-61,-4 -60,-5 -60,79c0,43 3,82 8,86c14,15 77,-3 100,-29z"/>
  <path fill="#ec8b3b" id="svg_181" d="m2562,673c11,-27 31,-75 44,-108l22,-60l11,30c13,34 19,48 51,122c23,52 22,79 -2,55c-14,-14 -118,-16 -118,-2c0,6 -7,10 -15,10c-12,0 -10,-9 7,-47zm99,-13c-2,-8 -4,-19 -6,-25c-1,-5 -9,-26 -18,-45c-12,-25 -16,-29 -17,-15c0,11 -7,33 -15,49c-25,47 -20,58 23,54c27,-2 36,-7 33,-18z"/>
  <path fill="#ec8b3b" id="svg_182" d="m1400,623c0,-8 15,-13 41,-13c26,0 39,4 37,11c-5,16 -78,17 -78,2z"/>
  <path fill="#ec8b3b" id="svg_183" d="m375,556c11,-8 23,-12 28,-9c13,8 -3,23 -26,23c-20,0 -20,0 -2,-14z"/>
  <path fill="#ec8b3b" id="svg_184" d="m1204,351c-2,-2 -4,-51 -4,-108l0,-103l61,0c43,0 59,4 57,12c-3,7 -22,12 -43,13c-48,0 -64,22 -47,60c11,24 17,27 47,22c26,-4 35,-2 35,9c0,10 -12,14 -39,14c-28,0 -40,5 -43,18c-9,33 2,42 54,42c71,0 57,22 -16,24c-32,0 -60,-1 -62,-3z"/>
  <path fill="#ec8b3b" id="svg_185" d="m1451,250l1,-110l21,27c12,16 24,30 27,33c19,18 88,107 88,115c1,16 22,18 22,1c0,-9 -4,-16 -8,-16c-5,0 -7,-33 -6,-72c2,-90 2,-88 14,-88c6,0 10,43 10,110c0,87 -3,110 -14,110c-7,0 -21,-12 -31,-26c-16,-25 -29,-41 -69,-86c-11,-13 -21,-30 -21,-38c0,-7 -6,-15 -12,-17c-15,-5 -18,23 -3,32c14,9 8,124 -8,130c-10,4 -12,-20 -11,-105z"/>
  <path fill="#ec8b3b" id="svg_186" d="m1740,353c0,-4 -1,-54 -3,-111c-1,-76 1,-102 11,-102c8,0 12,18 12,59l0,59l33,4c63,7 69,2 66,-60c-2,-36 1,-57 9,-60c14,-4 14,-6 12,113c-1,50 -5,94 -11,100c-9,9 -13,-5 -10,-33c5,-32 -27,-43 -91,-33c-5,0 -8,14 -8,30c0,17 -4,33 -10,36c-5,3 -10,3 -10,-2z"/>
  <path fill="#ec8b3b" id="svg_187" d="m2069,352c-48,-4 -93,-50 -93,-95c0,-82 47,-125 125,-114c80,11 117,112 64,175c-28,33 -43,38 -96,34zm65,-43c21,-16 26,-29 26,-64c0,-39 -4,-46 -35,-65c-59,-37 -125,-1 -125,67c0,70 78,106 134,62z"/>
  <path fill="#ec8b3b" id="svg_188" d="m2384,325c-13,-28 -22,-35 -44,-35c-29,0 -49,28 -35,50c3,5 -1,10 -9,10c-14,0 -16,-17 -16,-105l0,-105l46,0c45,0 82,13 96,34c13,19 9,73 -7,86c-19,16 -19,40 0,67c13,18 13,22 0,27c-10,3 -20,-7 -31,-29zm0,-71c19,-19 21,-54 3,-78c-9,-12 -23,-17 -47,-14c-33,3 -35,5 -35,38c-1,19 3,43 7,53c11,21 51,22 72,1z"/>
  <path fill="#ec8b3b" id="svg_189" d="m2540,357c0,-1 20,-49 43,-106l44,-103l16,34c37,79 66,161 61,170c-4,6 -9,5 -14,-2c-10,-16 -113,-17 -118,-1c-3,9 -32,17 -32,8zm122,-68c-2,-28 -22,-69 -33,-69c-10,0 -40,80 -34,91c3,5 20,7 38,5c27,-3 32,-8 29,-27zm-22,-89c0,-5 -4,-10 -10,-10c-5,0 -10,5 -10,10c0,6 5,10 10,10c6,0 10,-4 10,-10z"/>
  <path fill="#ec8b3b" id="svg_190" d="m933,335c-8,-23 5,-31 27,-17c24,15 57,16 65,1c4,-5 4,-21 1,-35c-5,-18 -13,-24 -34,-24c-32,0 -72,-32 -72,-58c0,-10 7,-28 16,-40c17,-24 61,-30 95,-11c29,15 13,29 -20,16c-23,-8 -33,-8 -45,2c-30,25 -9,79 26,66c20,-8 68,32 68,56c0,44 -18,59 -71,59c-35,0 -51,-4 -56,-15zm14,-12c-4,-3 -7,0 -7,7c0,7 3,10 7,7c3,-4 3,-10 0,-14z"/>
  <path fill="#ec8b3b" id="svg_191" d="m744,266c-29,-53 -100,-125 -151,-152c-74,-39 -156,-29 -184,22c-8,17 -21,24 -40,24c-32,0 -66,31 -81,73c-6,15 -12,26 -15,24c-2,-3 2,-20 10,-40c16,-37 51,-67 78,-67c9,0 33,-16 53,-35c24,-23 32,-35 22,-35c-9,0 -16,-4 -16,-10c0,-14 84,-1 147,22c29,10 75,40 103,65c48,43 108,128 97,139c-2,3 -13,-11 -23,-30z"/>
  <path fill="#ec8b3b" id="svg_192" d="m362,790c-118,-25 -213,-100 -266,-210c-27,-57 -31,-75 -30,-150c0,-74 4,-94 31,-152c17,-36 49,-84 71,-106c48,-48 136,-92 194,-98l43,-3l-41,9c-57,12 -135,53 -177,92c-147,139 -152,361 -11,504c144,146 367,145 510,-3c21,-21 31,-40 28,-51c-4,-12 -3,-13 3,-4c11,15 51,-64 64,-125l8,-38l-3,42c-9,103 -113,232 -219,271c-65,25 -148,33 -205,22z"/>
  <path fill="#ec8b3b" id="svg_193" d="m920,668c0,-30 4,-47 10,-43c6,4 7,23 4,45l-6,38l43,-5c24,-3 50,-13 57,-22c7,-9 16,-15 20,-13c7,2 7,-3 4,-29c-1,-5 -6,-8 -11,-4c-5,3 -13,0 -17,-6c-4,-8 -3,-9 4,-5c7,4 12,2 12,-4c0,-7 5,-6 14,2c11,11 13,28 7,60c-4,23 -35,36 -86,36l-55,-1l0,-49z"/>
  <path fill="#ec8b3b" id="svg_194" d="m1136,706c3,-8 12,-12 20,-9c17,6 9,23 -11,23c-8,0 -12,-6 -9,-14z"/>
  <path fill="#ec8b3b" id="svg_195" d="m1280,710c0,-5 4,-10 9,-10c6,0 13,5 16,10c3,6 -1,10 -9,10c-9,0 -16,-4 -16,-10z"/>
  <path fill="#ec8b3b" id="svg_196" d="m1371,673l2,-48l7,40l6,40l6,-35c5,-35 5,-35 6,8c2,31 -2,42 -13,42c-11,0 -15,-11 -14,-47z"/>
  <path fill="#ec8b3b" id="svg_197" d="m1613,700c-18,-11 -33,-22 -33,-25c0,-4 5,-3 12,1c8,5 9,2 5,-10c-5,-12 5,-7 30,13c36,30 71,42 58,21c-3,-5 0,-10 8,-10c8,0 20,-7 27,-15c6,-8 17,-13 23,-12c7,1 11,-9 10,-26c-1,-15 2,-25 7,-22c4,3 11,-1 13,-7c4,-10 6,-10 6,0c2,26 -31,83 -45,78c-8,-3 -11,0 -8,8c3,8 -4,16 -18,20c-39,10 -62,7 -95,-14z"/>
  <path fill="#ec8b3b" id="svg_198" d="m1840,609l0,-112l58,6c64,7 93,31 91,76c-1,25 -2,25 -9,-4l-7,-30l-5,30c-5,28 -5,29 -7,4c-1,-30 -20,-49 -50,-52c-12,-1 -21,-5 -21,-9c0,-4 -9,-8 -20,-8c-19,0 -20,7 -20,93c0,63 3,87 10,77c8,-12 10,-9 10,13c0,17 -5,27 -15,27c-12,0 -15,-19 -15,-111zm124,-74c-4,-8 -11,-15 -16,-15c-6,0 -5,6 2,15c7,8 14,15 16,15c2,0 1,-7 -2,-15z"/>
  <path fill="#ec8b3b" id="svg_199" d="m1949,692c-13,-24 -14,-29 -2,-29c8,0 21,13 29,29c20,39 -5,39 -27,0z"/>
  <path fill="#ec8b3b" id="svg_200" d="m2060,712c0,-5 11,-32 25,-60c14,-29 25,-57 25,-63c0,-5 4,-8 9,-5c14,9 -1,59 -26,85c-8,7 -11,22 -8,32c4,13 2,19 -9,19c-9,0 -16,-4 -16,-8z"/>
  <path fill="#ec8b3b" id="svg_201" d="m2202,709c2,-6 8,-10 13,-10c5,0 11,4 13,10c2,6 -4,11 -13,11c-9,0 -15,-5 -13,-11z"/>
  <path fill="#ec8b3b" id="svg_202" d="m2300,711c0,-7 4,-9 10,-6c14,9 92,-14 114,-33c11,-10 16,-11 12,-4c-4,7 -2,12 5,12c6,0 9,-8 6,-20c-3,-11 -1,-18 4,-14c11,7 11,-2 -1,-47c-13,-47 -39,-69 -84,-71c-20,-1 -36,-5 -36,-10c0,-5 -10,-6 -21,-3c-14,5 -19,3 -15,-4c4,-6 30,-9 63,-7c49,3 61,8 86,36c26,29 29,38 25,82c-7,68 -29,88 -107,95c-44,4 -61,2 -61,-6z"/>
  <path fill="#ec8b3b" id="svg_203" d="m2546,705c4,-8 10,-12 15,-9c14,8 10,24 -6,24c-9,0 -12,-6 -9,-15z"/>
  <path fill="#ec8b3b" id="svg_204" d="m2689,713c-1,-5 -1,-12 0,-17c3,-17 -11,-46 -20,-41c-5,4 -10,1 -10,-4c-2,-15 -6,-31 -9,-33c-1,-2 -4,-13 -5,-25c-1,-12 -5,-29 -9,-39c-6,-16 -8,-16 -16,-4c-12,18 -12,3 0,-25c7,-18 9,-17 19,10c15,40 24,61 50,118c11,26 21,52 21,57c0,12 -19,14 -21,3z"/>
  <path fill="#ec8b3b" id="svg_205" d="m1185,690c3,-5 19,-10 35,-10c16,0 32,5 35,10c4,6 -10,10 -35,10c-25,0 -39,-4 -35,-10z"/>
  <path fill="#ec8b3b" id="svg_206" d="m2110,690c0,-5 13,-10 29,-10c17,0 33,5 36,10c4,6 -8,10 -29,10c-20,0 -36,-4 -36,-10z"/>
  <path fill="#ec8b3b" id="svg_207" d="m2590,690c20,-13 70,-13 70,0c0,6 -19,10 -42,10c-32,0 -39,-3 -28,-10z"/>
  <path fill="#ec8b3b" id="svg_208" d="m1172,628c13,-31 26,-54 30,-52c10,6 -18,74 -37,94c-10,9 -7,-5 7,-42z"/>
  <path fill="#ec8b3b" id="svg_209" d="m1257,648c-14,-18 -27,-49 -29,-68c-3,-19 -9,-44 -13,-55c-5,-11 -5,-17 0,-13c9,8 75,168 70,168c-2,0 -15,-15 -28,-32z"/>
  <path fill="#ec8b3b" id="svg_210" d="m2291,664c0,-11 3,-14 6,-6c3,7 2,16 -1,19c-3,4 -6,-2 -5,-13z"/>
  <path fill="#ec8b3b" id="svg_211" d="m2309,615c-3,-38 -4,-72 -2,-74c10,-12 14,14 11,75l-3,69l-6,-70z"/>
  <path fill="#ec8b3b" id="svg_212" d="m2560,676c0,-17 49,-104 53,-94c6,17 -24,86 -40,92c-7,3 -13,4 -13,2z"/>
  <path fill="#ec8b3b" id="svg_213" d="m2168,634c-8,-21 -13,-46 -10,-57c4,-16 9,-9 24,28c11,29 15,52 10,57c-6,6 -15,-6 -24,-28z"/>
  <path fill="#ec8b3b" id="svg_214" d="m1566,645c-3,-9 -6,-29 -5,-43c0,-24 1,-25 8,-7l8,20l5,-20c4,-14 6,-12 7,10c1,38 -13,64 -23,40z"/>
  <path fill="#ec8b3b" id="svg_215" d="m1875,640c-4,-6 7,-10 25,-10c18,0 29,4 25,10c-3,6 -15,10 -25,10c-10,0 -22,-4 -25,-10z"/>
  <path fill="#ec8b3b" id="svg_216" d="m1456,631c-3,-5 -15,-7 -26,-4c-11,3 -20,0 -20,-6c0,-6 16,-11 35,-11c19,0 35,4 35,9c0,14 -18,23 -24,12z"/>
  <path fill="#ec8b3b" id="svg_217" d="m353,624c-7,-3 -9,-12 -6,-20c3,-8 1,-14 -5,-14c-6,0 -13,6 -15,13c-4,7 -6,8 -6,1c-1,-6 6,-17 14,-24c11,-9 15,-10 15,-1c0,8 8,10 20,6c12,-4 20,-2 20,5c0,6 -4,8 -10,5c-9,-6 -14,8 -11,28c0,4 0,7 -1,6c-2,0 -8,-3 -15,-5z"/>
  <path fill="#ec8b3b" id="svg_218" d="m1956,622c-3,-5 1,-9 9,-9c8,0 15,4 15,9c0,4 -4,8 -9,8c-6,0 -12,-4 -15,-8z"/>
  <path fill="#ec8b3b" id="svg_219" d="m977,605c2,-7 12,-12 21,-11c8,0 21,-10 28,-22c8,-17 13,-20 17,-10c4,9 6,8 6,-3c1,-24 -19,-34 -61,-34c-21,1 -38,-4 -38,-9c0,-25 -19,12 -23,44c-3,30 -4,29 -5,-12l-2,-46l49,0c38,-1 53,4 71,23c23,24 24,60 2,60c-8,0 -19,7 -25,16c-14,18 -47,21 -40,4z"/>
  <path fill="#ec8b3b" id="svg_220" d="m1372,563c-2,-60 -1,-63 21,-62c16,1 17,3 5,6c-13,3 -18,18 -21,61l-3,57l-2,-62z"/>
  <path fill="#ec8b3b" id="svg_221" d="m1862,600c0,-14 2,-19 5,-12c2,6 2,18 0,25c-3,6 -5,1 -5,-13z"/>
  <path fill="#ec8b3b" id="svg_222" d="m1392,575c0,-16 2,-22 5,-12c2,9 2,23 0,30c-3,6 -5,-1 -5,-18z"/>
  <path fill="#ec8b3b" id="svg_223" d="m941,574c0,-11 3,-14 6,-6c3,7 2,16 -1,19c-3,4 -6,-2 -5,-13z"/>
  <path fill="#ec8b3b" id="svg_224" d="m1736,569c-5,-13 -9,-27 -10,-31c0,-3 -5,-10 -10,-15c-5,-4 -6,-3 -3,4c5,8 -4,10 -33,6c-33,-5 -46,-1 -68,18c-20,18 -23,19 -9,3c9,-11 17,-25 17,-31c0,-6 7,-14 16,-17c23,-9 56,-7 50,3c-3,4 5,6 18,4c18,-4 29,3 45,26c13,17 20,37 18,44c-3,6 -6,3 -7,-8c-1,-20 -2,-20 -9,-1c-7,19 -8,18 -15,-5z"/>
  <path fill="#ec8b3b" id="svg_225" d="m363,563c4,-3 10,-3 14,0c3,4 0,7 -7,7c-7,0 -10,-3 -7,-7z"/>
  <path fill="#ec8b3b" id="svg_226" d="m390,554c0,-8 5,-12 10,-9c6,4 8,11 5,16c-9,14 -15,11 -15,-7z"/>
  <path fill="#ec8b3b" id="svg_227" d="m1200,550c0,-7 3,-10 7,-7c3,4 3,10 0,14c-4,3 -7,0 -7,-7z"/>
  <path fill="#ec8b3b" id="svg_228" d="m2131,536c9,-19 15,-23 21,-14c9,16 11,34 1,25c-3,-4 -12,-2 -20,5c-12,10 -12,7 -2,-16z"/>
  <path fill="#ec8b3b" id="svg_229" d="m1580,546c0,-2 8,-10 18,-17c15,-13 16,-12 3,4c-13,16 -21,21 -21,13z"/>
  <path fill="#ec8b3b" id="svg_230" d="m1440,522l35,-5l-30,-8c-28,-7 -27,-7 9,-6c22,1 41,8 44,15c3,8 -10,12 -45,10c-43,-1 -44,-2 -13,-6z"/>
  <path fill="#ec8b3b" id="svg_231" d="m1204,351c-2,-2 -3,-25 -3,-50c1,-25 3,-38 6,-28c2,9 8,15 13,12c5,-3 8,3 7,14c0,11 -5,17 -9,15c-4,-3 -8,1 -8,9c0,12 12,14 61,10c47,-5 61,-3 57,7c-3,11 -113,21 -124,11z"/>
  <path fill="#ec8b3b" id="svg_232" d="m1451,249c0,-61 2,-109 3,-107c1,2 10,13 21,26c16,20 16,22 2,16c-14,-5 -17,0 -17,25c0,17 4,31 9,31c15,0 8,109 -7,115c-10,4 -12,-20 -11,-106z"/>
  <path fill="#ec8b3b" id="svg_233" d="m1575,333l-18,-28l21,18c11,11 26,16 31,12c6,-3 11,1 11,9c0,25 -26,18 -45,-11z"/>
  <path fill="#ec8b3b" id="svg_234" d="m1737,348c-5,-18 3,-48 14,-48c12,0 12,47 0,54c-5,4 -11,0 -14,-6z"/>
  <path fill="#ec8b3b" id="svg_235" d="m1857,346c-3,-8 1,-20 9,-26c11,-10 14,-9 14,8c0,25 -16,37 -23,18z"/>
  <path fill="#ec8b3b" id="svg_236" d="m2070,352c-38,-4 -77,-34 -91,-70c-11,-28 7,-106 21,-97c6,3 7,0 4,-8c-6,-16 35,-37 74,-37c34,0 72,10 72,19c0,9 -46,8 -56,-2c-4,-4 -19,-7 -33,-7c-19,0 -22,3 -12,9c11,7 9,10 -7,15c-11,4 -23,14 -26,22c-3,8 -10,13 -16,9c-6,-4 -8,5 -4,22c3,15 6,41 7,57c2,18 9,31 20,33c71,16 78,15 117,-12c28,-20 40,-35 43,-58c4,-31 4,-31 5,5c2,26 -5,45 -23,66c-28,33 -44,39 -95,34zm85,-42c3,-5 4,-10 1,-10c-3,0 -8,5 -11,10c-3,6 -4,10 -1,10c3,0 8,-4 11,-10z"/>
  <path fill="#ec8b3b" id="svg_237" d="m2385,328c-8,-17 -13,-34 -10,-36c3,-3 5,0 5,6c0,7 6,12 13,12c7,0 18,9 24,19c10,15 9,20 -2,25c-9,3 -20,-7 -30,-26z"/>
  <path fill="#ec8b3b" id="svg_238" d="m2542,352c2,-4 16,-40 32,-81c22,-54 32,-68 37,-55c7,22 -8,62 -33,87c-12,12 -17,26 -13,38c5,13 2,19 -10,19c-9,0 -15,-3 -13,-8z"/>
  <path fill="#ec8b3b" id="svg_239" d="m2690,335c1,-26 2,-28 11,-12c8,14 8,22 0,30c-8,8 -11,3 -11,-18z"/>
  <path fill="#ec8b3b" id="svg_240" d="m933,334c-3,-8 -3,-17 0,-21c9,-8 39,6 33,16c-3,4 9,5 27,2c28,-6 32,-11 32,-41c1,-33 -1,-35 -32,-35c-36,0 -41,-17 -6,-21c29,-3 73,32 73,57c0,43 -17,56 -70,58c-37,0 -52,-3 -57,-15zm14,-11c-4,-3 -7,0 -7,7c0,7 3,10 7,7c3,-4 3,-10 0,-14zm103,-37c0,-3 -5,-8 -12,-12c-7,-4 -8,-3 -4,4c7,12 16,16 16,8z"/>
  <path fill="#ec8b3b" id="svg_241" d="m2280,245l0,-105l46,0c45,0 82,13 96,34c13,18 9,73 -5,85c-19,15 -26,4 -21,-32c7,-42 -12,-63 -62,-71l-41,-6l0,40c0,22 4,43 8,46c5,3 9,10 9,15c0,6 -4,7 -10,4c-14,-9 -13,68 2,83c9,9 8,12 -5,12c-15,0 -17,-13 -17,-105zm138,-36c-3,-20 -5,-19 -9,9c-3,20 -2,29 4,23c5,-5 7,-19 5,-32z"/>
  <path fill="#ec8b3b" id="svg_242" d="m2608,323c28,-11 36,-11 53,0c18,13 15,14 -33,14l-53,0l33,-14z"/>
  <path fill="#ec8b3b" id="svg_243" d="m744,266c-50,-92 -162,-176 -236,-176c-24,0 -37,-4 -33,-10c17,-27 129,17 195,77c48,43 108,128 97,139c-2,3 -13,-11 -23,-30z"/>
  <path fill="#ec8b3b" id="svg_244" d="m1530,280c-6,-11 -8,-26 -4,-33c4,-6 4,-9 -1,-5c-12,11 -35,-11 -28,-28c4,-10 15,-2 38,28c32,39 36,58 15,58c-5,0 -14,-9 -20,-20z"/>
  <path fill="#ec8b3b" id="svg_245" d="m1603,273c-16,-33 -16,-46 -3,-38c14,8 13,-28 -1,-42c-12,-12 -3,-53 12,-53c5,0 9,36 9,80c0,44 -1,80 -2,80c-2,0 -9,-12 -15,-27z"/>
  <path fill="#ec8b3b" id="svg_246" d="m2665,285c-3,-8 -8,-23 -12,-32c-7,-21 -9,-31 -11,-57c-1,-11 -7,-16 -16,-13c-10,4 -12,0 -9,-14c5,-19 6,-19 18,-2c6,10 20,38 29,63c10,25 20,51 23,58c3,6 0,12 -6,12c-7,0 -14,-7 -16,-15z"/>
  <path fill="#ec8b3b" id="svg_247" d="m1773,273c0,-8 14,-12 39,-11c21,1 38,6 38,12c0,6 -17,11 -38,11c-24,0 -39,-4 -39,-12z"/>
  <path fill="#ec8b3b" id="svg_248" d="m2314,281c7,-11 66,-20 66,-10c0,4 -7,10 -16,13c-24,9 -56,7 -50,-3z"/>
  <path fill="#ec8b3b" id="svg_249" d="m1240,260c0,-5 9,-10 19,-10c11,0 26,-3 35,-6c11,-4 16,-1 16,10c0,12 -10,16 -35,16c-19,0 -35,-4 -35,-10z"/>
  <path fill="#ec8b3b" id="svg_250" d="m1740,223c0,-21 -3,-48 -6,-60c-5,-17 -2,-23 10,-23c13,0 16,11 16,54c0,30 -4,58 -10,61c-6,4 -10,-9 -10,-32z"/>
  <path fill="#ec8b3b" id="svg_251" d="m1868,255c-11,-18 -13,-108 -1,-112c6,-2 12,2 14,9c7,20 -5,114 -13,103z"/>
  <path fill="#ec8b3b" id="svg_252" d="m1201,198l-1,-58l61,0c42,0 59,4 57,12c-5,13 -66,19 -74,6c-3,-4 -12,-8 -21,-8c-16,0 -15,28 3,74c5,13 4,17 -3,13c-6,-4 -14,-1 -16,5c-3,7 -6,-13 -6,-44z"/>
  <path fill="#ec8b3b" id="svg_253" d="m925,217c-15,-59 47,-98 106,-66c22,11 17,31 -6,23c-8,-4 -12,-11 -9,-16c4,-7 -2,-7 -17,-2c-13,4 -32,7 -42,6c-13,-1 -16,5 -11,23c3,13 1,32 -4,42c-9,16 -11,15 -17,-10z"/>
  <path fill="#ec8b3b" id="svg_254" d="m2148,194c-16,-8 -28,-17 -28,-19c0,-9 40,1 52,13c18,18 6,22 -24,6z"/>
  <path fill="#ec8b3b" id="svg_255" d="m420,70c0,-6 7,-10 15,-10c8,0 15,2 15,4c0,2 -7,6 -15,10c-8,3 -15,1 -15,-4z"/>
  <path fill="#ec8b3b" id="svg_256" d="m362,790c-69,-14 -143,-54 -191,-101c-42,-43 -87,-116 -78,-126c3,-2 13,12 23,32c46,97 180,184 290,188c33,1 77,-1 99,-6c25,-5 35,-4 25,2c-23,14 -121,21 -168,11z"/>
  <path fill="#ec8b3b" id="svg_257" d="m603,740c26,-16 62,-45 81,-65c19,-19 38,-35 42,-35c4,0 -8,16 -27,36c-35,38 -115,94 -133,94c-5,0 11,-13 37,-30z"/>
  <path fill="#ec8b3b" id="svg_258" d="m1020,710c8,-5 20,-10 25,-10c6,0 3,5 -5,10c-8,5 -19,10 -25,10c-5,0 -3,-5 5,-10z"/>
  <path fill="#ec8b3b" id="svg_259" d="m1135,710c4,-6 11,-8 16,-5c14,9 11,15 -7,15c-8,0 -12,-5 -9,-10z"/>
  <path fill="#ec8b3b" id="svg_260" d="m1285,710c4,-6 11,-8 16,-5c14,9 11,15 -7,15c-8,0 -12,-5 -9,-10z"/>
  <path fill="#ec8b3b" id="svg_261" d="m1370,712c0,-5 7,-9 15,-9c8,0 15,4 15,9c0,4 -7,8 -15,8c-8,0 -15,-4 -15,-8z"/>
  <path fill="#ec8b3b" id="svg_262" d="m1840,709c0,-5 4,-8 9,-5c5,4 12,0 14,-6c3,-8 6,-6 6,5c1,9 -6,17 -14,17c-8,0 -15,-5 -15,-11z"/>
  <path fill="#ec8b3b" id="svg_263" d="m1966,705c4,-8 7,-15 9,-15c2,0 5,7 9,15c3,9 0,15 -9,15c-9,0 -12,-6 -9,-15z"/>
  <path fill="#ec8b3b" id="svg_264" d="m2060,703c0,-10 4,-14 8,-8c4,6 11,13 16,18c5,4 2,7 -7,7c-10,0 -17,-8 -17,-17z"/>
  <path fill="#ec8b3b" id="svg_265" d="m2200,716c0,-2 7,-6 15,-10c8,-3 15,-1 15,4c0,6 -7,10 -15,10c-8,0 -15,-2 -15,-4z"/>
  <path fill="#ec8b3b" id="svg_266" d="m2545,710c4,-6 11,-8 16,-5c14,9 11,15 -7,15c-8,0 -12,-5 -9,-10z"/>
  <path fill="#ec8b3b" id="svg_267" d="m2696,705c4,-8 8,-15 10,-15c2,0 4,7 4,15c0,8 -4,15 -10,15c-5,0 -7,-7 -4,-15z"/>
  <path fill="#ec8b3b" id="svg_268" d="m1713,703c4,-3 10,-3 14,0c3,4 0,7 -7,7c-7,0 -10,-3 -7,-7z"/>
  <path fill="#ec8b3b" id="svg_269" d="m2413,703c4,-3 10,-3 14,0c3,4 0,7 -7,7c-7,0 -10,-3 -7,-7z"/>
  <path fill="#ec8b3b" id="svg_270" d="m2383,693c4,-3 10,-3 14,0c3,4 0,7 -7,7c-7,0 -10,-3 -7,-7z"/>
  <path fill="#ec8b3b" id="svg_271" d="m448,643c5,-21 7,-23 10,-9c2,10 0,22 -6,28c-6,6 -7,0 -4,-19z"/>
  <path fill="#ec8b3b" id="svg_272" d="m2166,634c-8,-21 -8,-21 8,-21c8,0 11,8 8,19c-5,22 -8,23 -16,2z"/>
  <path fill="#ec8b3b" id="svg_273" d="m324,628c-4,-7 -3,-8 4,-4c7,4 12,9 12,12c0,8 -9,4 -16,-8z"/>
  <path fill="#ec8b3b" id="svg_274" d="m1463,625c0,-8 4,-15 9,-15c4,0 8,4 8,9c0,6 -4,12 -8,15c-5,3 -9,-1 -9,-9z"/>
  <path fill="#ec8b3b" id="svg_275" d="m710,620c0,-7 3,-10 7,-7c3,4 3,10 0,14c-4,3 -7,0 -7,-7z"/>
  <path fill="#ec8b3b" id="svg_276" d="m730,623c1,-5 9,-24 20,-43c23,-42 27,-26 4,18c-15,31 -24,40 -24,25z"/>
  <path fill="#ec8b3b" id="svg_277" d="m1235,619c-4,-6 -5,-12 -2,-15c2,-3 7,2 10,11c7,17 1,20 -8,4z"/>
  <path fill="#ec8b3b" id="svg_278" d="m2115,620c3,-5 8,-10 11,-10c3,0 2,5 -1,10c-3,6 -8,10 -11,10c-3,0 -2,-4 1,-10z"/>
  <path fill="#ec8b3b" id="svg_279" d="m2600,620c0,-7 3,-10 7,-7c3,4 3,10 0,14c-4,3 -7,0 -7,-7z"/>
  <path fill="#ec8b3b" id="svg_280" d="m320,604c0,-23 24,-33 40,-16c13,14 12,15 -5,9c-11,-5 -22,-3 -27,5c-5,8 -8,9 -8,2z"/>
  <path fill="#ec8b3b" id="svg_281" d="m2660,600c0,-7 3,-10 7,-7c3,4 3,10 0,14c-4,3 -7,0 -7,-7z"/>
  <path fill="#ec8b3b" id="svg_282" d="m380,590c0,-7 3,-10 7,-7c3,4 3,10 0,14c-4,3 -7,0 -7,-7z"/>
  <path fill="#ec8b3b" id="svg_283" d="m324,558c3,-10 -1,-18 -12,-21c-12,-3 -11,-5 6,-6c24,-1 27,6 11,29c-9,13 -10,13 -5,-2z"/>
  <path fill="#ec8b3b" id="svg_284" d="m394,548c-4,-7 -3,-8 4,-4c7,4 12,9 12,12c0,8 -9,4 -16,-8z"/>
  <path fill="#ec8b3b" id="svg_285" d="m76,535c-3,-9 -6,-26 -5,-38c1,-16 4,-12 10,12c10,34 6,55 -5,26z"/>
  <path fill="#ec8b3b" id="svg_286" d="m354,530c0,-13 4,-16 10,-10c7,7 7,13 0,20c-6,6 -10,3 -10,-10z"/>
  <path fill="#ec8b3b" id="svg_287" d="m263,533c4,-3 10,-3 14,0c3,4 0,7 -7,7c-7,0 -10,-3 -7,-7z"/>
  <path fill="#ec8b3b" id="svg_288" d="m777,505c7,-49 13,-58 13,-19c0,16 -5,36 -10,44c-6,10 -7,2 -3,-25z"/>
  <path fill="#ec8b3b" id="svg_289" d="m1217,533c-4,-3 -7,-11 -7,-17c0,-6 5,-5 12,2c6,6 9,14 7,17c-3,3 -9,2 -12,-2z"/>
  <path fill="#ec8b3b" id="svg_290" d="m1726,525c-11,-8 -15,-15 -9,-15c6,0 16,7 23,15c16,19 11,19 -14,0z"/>
  <path fill="#ec8b3b" id="svg_291" d="m2136,525c4,-8 7,-15 9,-15c2,0 5,7 9,15c3,9 0,15 -9,15c-9,0 -12,-6 -9,-15z"/>
  <path fill="#ec8b3b" id="svg_292" d="m2627,533c-4,-3 -7,-11 -7,-17c0,-6 5,-5 12,2c6,6 9,14 7,17c-3,3 -9,2 -12,-2z"/>
  <path fill="#ec8b3b" id="svg_293" d="m1473,515c0,-18 19,-15 25,3c2,7 -3,12 -10,12c-8,0 -15,-7 -15,-15z"/>
  <path fill="#ec8b3b" id="svg_294" d="m2368,523c7,-3 16,-2 19,1c4,3 -2,6 -13,5c-11,0 -14,-3 -6,-6z"/>
  <path fill="#ec8b3b" id="svg_295" d="m1370,510c0,-5 5,-10 11,-10c5,0 7,5 4,10c-3,6 -8,10 -11,10c-2,0 -4,-4 -4,-10z"/>
  <path fill="#ec8b3b" id="svg_296" d="m2295,510c3,-5 8,-10 11,-10c3,0 2,5 -1,10c-3,6 -8,10 -11,10c-3,0 -2,-4 1,-10z"/>
  <path fill="#ec8b3b" id="svg_297" d="m928,503c6,-2 18,-2 25,0c6,3 1,5 -13,5c-14,0 -19,-2 -12,-5z"/>
  <path fill="#ec8b3b" id="svg_298" d="m547,469c4,-13 8,-18 11,-10c2,7 -1,18 -6,23c-8,8 -9,4 -5,-13z"/>
  <path fill="#ec8b3b" id="svg_299" d="m390,431c0,-10 19,-25 25,-20c1,2 -3,10 -11,17c-8,7 -14,8 -14,3z"/>
  <path fill="#ec8b3b" id="svg_300" d="m545,430c-3,-5 -1,-10 4,-10c6,0 11,5 11,10c0,6 -2,10 -4,10c-3,0 -8,-4 -11,-10z"/>
  <path fill="#ec8b3b" id="svg_301" d="m566,397c3,-10 9,-15 12,-12c3,3 0,11 -7,18c-10,9 -11,8 -5,-6z"/>
  <path fill="#ec8b3b" id="svg_302" d="m781,385c0,-16 -4,-41 -6,-55l-6,-25l11,25c6,13 9,38 7,55l-4,30l-2,-30z"/>
  <path fill="#ec8b3b" id="svg_303" d="m71,355c-2,-35 56,-142 99,-185c23,-23 44,-39 47,-36c3,3 -10,20 -29,38c-49,47 -79,94 -99,152c-10,28 -18,42 -18,31z"/>
  <path fill="#ec8b3b" id="svg_304" d="m1204,348c-4,-7 -3,-8 4,-4c7,4 12,9 12,12c0,8 -9,4 -16,-8z"/>
  <path fill="#ec8b3b" id="svg_305" d="m1310,346c0,-9 5,-16 10,-16c6,0 10,4 10,9c0,6 -4,13 -10,16c-5,3 -10,-1 -10,-9z"/>
  <path fill="#ec8b3b" id="svg_306" d="m1450,334c0,-23 2,-24 15,-10c8,8 15,17 15,19c0,3 -7,7 -15,11c-11,4 -15,-2 -15,-20z"/>
  <path fill="#ec8b3b" id="svg_307" d="m1586,352c-2,-4 4,-8 15,-8c10,0 19,4 19,8c0,4 -6,8 -14,8c-8,0 -17,-4 -20,-8z"/>
  <path fill="#ec8b3b" id="svg_308" d="m1737,346c-4,-10 -1,-13 8,-9c8,3 12,9 9,14c-7,12 -11,11 -17,-5z"/>
  <path fill="#ec8b3b" id="svg_309" d="m1857,346c-4,-10 -1,-13 8,-9c8,3 12,9 9,14c-7,12 -11,11 -17,-5z"/>
  <path fill="#ec8b3b" id="svg_310" d="m2395,351c-3,-5 2,-11 10,-15c8,-3 17,-1 20,3c3,5 -2,11 -10,15c-8,3 -17,1 -20,-3z"/>
  <path fill="#ec8b3b" id="svg_311" d="m2540,350c0,-5 7,-10 15,-10c8,0 15,5 15,10c0,6 -7,10 -15,10c-8,0 -15,-4 -15,-10z"/>
  <path fill="#ec8b3b" id="svg_312" d="m2690,351c0,-5 5,-13 10,-16c6,-3 10,-2 10,4c0,5 -4,13 -10,16c-5,3 -10,2 -10,-4z"/>
  <path fill="#ec8b3b" id="svg_313" d="m413,332c0,-23 26,-52 47,-52c9,0 22,-6 30,-12c12,-11 12,-10 1,5c-7,9 -21,17 -31,17c-21,0 -44,25 -36,39c4,5 3,12 -2,15c-5,3 -9,-3 -9,-12z"/>
  <path fill="#ec8b3b" id="svg_314" d="m937,343c-13,-13 -7,-33 11,-33c14,0 15,2 2,10c-13,9 -13,11 0,20c8,5 10,10 4,10c-6,0 -14,-3 -17,-7z"/>
  <path fill="#ec8b3b" id="svg_315" d="m1041,330c14,-31 19,-36 19,-24c0,6 -7,19 -16,30c-14,18 -14,18 -3,-6z"/>
  <path fill="#ec8b3b" id="svg_316" d="m2133,339c10,-6 27,-25 38,-42c10,-18 19,-27 19,-20c0,16 -49,73 -63,73c-7,0 -4,-5 6,-11z"/>
  <path fill="#ec8b3b" id="svg_317" d="m2288,343c7,-3 16,-2 19,1c4,3 -2,6 -13,5c-11,0 -14,-3 -6,-6z"/>
  <path fill="#ec8b3b" id="svg_318" d="m2626,325c4,-8 9,-15 13,-15c4,0 8,7 8,15c0,8 -6,15 -13,15c-8,0 -11,-6 -8,-15z"/>
  <path fill="#ec8b3b" id="svg_319" d="m440,320c0,-7 3,-10 7,-7c3,4 3,10 0,14c-4,3 -7,0 -7,-7z"/>
  <path fill="#ec8b3b" id="svg_320" d="m598,314c-16,-8 -28,-19 -28,-25c0,-6 5,-6 13,1c6,6 21,17 32,25c26,19 17,18 -17,-1z"/>
  <path fill="#ec8b3b" id="svg_321" d="m283,303c-3,-10 -8,-21 -10,-25c-2,-5 0,-8 5,-8c5,0 12,11 14,25c6,29 0,33 -9,8z"/>
  <path fill="#ec8b3b" id="svg_322" d="m744,266c-29,-53 -100,-125 -151,-152c-25,-13 -39,-24 -31,-24c23,0 100,54 140,98c38,42 73,100 65,108c-3,3 -13,-11 -23,-30z"/>
  <path fill="#ec8b3b" id="svg_323" d="m1530,280c-6,-11 -8,-20 -6,-20c3,0 10,9 16,20c6,11 8,20 6,20c-3,0 -10,-9 -16,-20z"/>
  <path fill="#ec8b3b" id="svg_324" d="m370,282c0,-19 31,-75 49,-89c19,-15 77,-17 86,-4c3,6 -9,7 -30,4c-42,-7 -61,7 -86,62c-10,22 -19,34 -19,27z"/>
  <path fill="#ec8b3b" id="svg_325" d="m1787,276c-5,-13 0,-16 22,-14c20,1 27,6 24,16c-5,11 -7,11 -14,0c-8,-11 -10,-11 -18,0c-7,11 -9,11 -14,-2z"/>
  <path fill="#ec8b3b" id="svg_326" d="m1286,255c4,-8 10,-15 15,-15c5,0 9,7 9,15c0,8 -7,15 -15,15c-9,0 -12,-6 -9,-15z"/>
  <path fill="#ec8b3b" id="svg_327" d="m1971,254c0,-11 3,-14 6,-6c3,7 2,16 -1,19c-3,4 -6,-2 -5,-13z"/>
  <path fill="#ec8b3b" id="svg_328" d="m271,257c-1,-4 5,-23 13,-41c15,-36 50,-66 77,-66c10,0 31,-13 47,-30c17,-16 36,-30 44,-29c7,0 3,5 -8,11c-12,5 -27,21 -35,34c-8,17 -21,24 -41,24c-30,0 -63,31 -84,78c-7,15 -13,23 -13,19z"/>
  <path fill="#ec8b3b" id="svg_329" d="m1591,244c0,-11 3,-14 6,-6c3,7 2,16 -1,19c-3,4 -6,-2 -5,-13z"/>
  <path fill="#ec8b3b" id="svg_330" d="m2416,247c3,-10 9,-15 12,-12c3,3 0,11 -7,18c-10,9 -11,8 -5,-6z"/>
  <path fill="#ec8b3b" id="svg_331" d="m993,233c4,-3 10,-3 14,0c3,4 0,7 -7,7c-7,0 -10,-3 -7,-7z"/>
  <path fill="#ec8b3b" id="svg_332" d="m2407,174c-13,-18 -14,-22 -3,-18c8,3 17,13 20,21c10,25 3,23 -17,-3z"/>
  <path fill="#ec8b3b" id="svg_333" d="m1591,180c-1,-21 16,-46 26,-37c4,5 3,11 -3,15c-6,4 -14,14 -17,22c-5,13 -5,13 -6,0z"/>
  <path fill="#ec8b3b" id="svg_334" d="m1033,165c0,-8 4,-12 9,-9c5,3 6,10 3,15c-9,13 -12,11 -12,-6z"/>
  <path fill="#ec8b3b" id="svg_335" d="m1306,157c3,-10 9,-15 12,-12c3,3 0,11 -7,18c-10,9 -11,8 -5,-6z"/>
  <path fill="#ec8b3b" id="svg_336" d="m1450,155c0,-8 2,-15 4,-15c2,0 6,7 10,15c3,8 1,15 -4,15c-6,0 -10,-7 -10,-15z"/>
  <path fill="#ec8b3b" id="svg_337" d="m1730,155c0,-8 7,-15 15,-15c8,0 15,4 15,9c0,5 -7,11 -15,15c-9,3 -15,0 -15,-9z"/>
  <path fill="#ec8b3b" id="svg_338" d="m1867,163c-9,-2 -15,-9 -12,-14c9,-14 22,-11 29,6c3,8 4,14 3,14c-1,-1 -10,-3 -20,-6z"/>
  <path fill="#ec8b3b" id="svg_339" d="m2133,153c4,-3 10,-3 14,0c3,4 0,7 -7,7c-7,0 -10,-3 -7,-7z"/>
  <path fill="#ec8b3b" id="svg_340" d="m235,121c9,-15 113,-51 143,-50c20,1 16,3 -15,9c-22,5 -59,18 -82,29c-44,23 -55,26 -46,12z"/>
  <path fill="#ec8b3b" id="svg_341" d="m488,78c8,-8 17,-8 34,0c22,10 21,11 -11,11c-27,1 -32,-2 -23,-11z"/>
  <path fill="#ec8b3b" id="svg_342" d="m370,750c0,-7 3,-10 7,-7c3,4 3,10 0,14c-4,3 -7,0 -7,-7z"/>
  <path fill="#ec8b3b" id="svg_343" d="m322,710c0,-19 2,-27 5,-17c2,9 2,25 0,35c-3,9 -5,1 -5,-18z"/>
  <path fill="#ec8b3b" id="svg_344" d="m432,700c0,-14 2,-19 5,-12c2,6 2,18 0,25c-3,6 -5,1 -5,-13z"/>
  <path fill="#ec8b3b" id="svg_345" d="m1136,708c3,-5 10,-6 15,-3c13,9 11,12 -6,12c-8,0 -12,-4 -9,-9z"/>
  <path fill="#ec8b3b" id="svg_346" d="m1294,708c-4,-7 -3,-8 4,-4c12,7 16,16 8,16c-3,0 -8,-5 -12,-12z"/>
  <path fill="#ec8b3b" id="svg_347" d="m1370,710c0,-7 3,-10 7,-7c3,4 3,10 0,14c-4,3 -7,0 -7,-7z"/>
  <path fill="#ec8b3b" id="svg_348" d="m1975,709c-4,-6 -5,-12 -2,-15c2,-3 7,2 10,11c7,17 1,20 -8,4z"/>
  <path fill="#ec8b3b" id="svg_349" d="m2545,710c3,-5 8,-10 11,-10c3,0 2,5 -1,10c-3,6 -8,10 -11,10c-3,0 -2,-4 1,-10z"/>
  <path fill="#ec8b3b" id="svg_350" d="m393,675c0,-22 2,-30 4,-17c2,12 2,30 0,40c-3,9 -5,-1 -4,-23z"/>
  <path fill="#ec8b3b" id="svg_351" d="m310,650c0,-7 3,-10 7,-7c3,4 3,10 0,14c-4,3 -7,0 -7,-7z"/>
  <path fill="#ec8b3b" id="svg_352" d="m585,630c-10,-11 -16,-22 -14,-24c2,-2 12,7 22,20c22,29 17,32 -8,4z"/>
  <path fill="#ec8b3b" id="svg_353" d="m495,600c10,-11 20,-20 23,-20c3,0 -3,9 -13,20c-10,11 -20,20 -23,20c-3,0 3,-9 13,-20z"/>
  <path fill="#ec8b3b" id="svg_354" d="m424,596c-15,-11 -13,-12 14,-8c36,5 38,7 18,15c-8,3 -22,0 -32,-7z"/>
  <path fill="#ec8b3b" id="svg_355" d="m561,574c0,-11 3,-14 6,-6c3,7 2,16 -1,19c-3,4 -6,-2 -5,-13z"/>
  <path fill="#ec8b3b" id="svg_356" d="m710,570c0,-7 3,-10 7,-7c3,4 3,10 0,14c-4,3 -7,0 -7,-7z"/>
  <path fill="#ec8b3b" id="svg_357" d="m179,543c-13,-16 -12,-17 4,-4c9,7 17,15 17,17c0,8 -8,3 -21,-13z"/>
  <path fill="#ec8b3b" id="svg_358" d="m522,540c0,-14 2,-19 5,-12c2,6 2,18 0,25c-3,6 -5,1 -5,-13z"/>
  <path fill="#ec8b3b" id="svg_359" d="m720,540c0,-7 3,-10 7,-7c3,4 3,10 0,14c-4,3 -7,0 -7,-7z"/>
  <path fill="#ec8b3b" id="svg_360" d="m572,515c0,-16 2,-22 5,-12c2,9 2,23 0,30c-3,6 -5,-1 -5,-18z"/>
  <path fill="#ec8b3b" id="svg_361" d="m1216,523c-6,-14 -5,-15 5,-6c7,7 10,15 7,18c-3,3 -9,-2 -12,-12z"/>
  <path fill="#ec8b3b" id="svg_362" d="m1473,513c0,-9 4,-10 14,-2c7,6 13,12 13,14c0,1 -6,2 -13,2c-8,0 -14,-6 -14,-14z"/>
  <path fill="#ec8b3b" id="svg_363" d="m390,510c0,-7 3,-10 7,-7c3,4 3,10 0,14c-4,3 -7,0 -7,-7z"/>
  <path fill="#ec8b3b" id="svg_364" d="m161,494c0,-11 3,-14 6,-6c3,7 2,16 -1,19c-3,4 -6,-2 -5,-13z"/>
  <path fill="#ec8b3b" id="svg_365" d="m404,488c-4,-7 -3,-8 4,-4c7,4 12,9 12,12c0,8 -9,4 -16,-8z"/>
  <path fill="#ec8b3b" id="svg_366" d="m720,490c0,-7 3,-10 7,-7c3,4 3,10 0,14c-4,3 -7,0 -7,-7z"/>
  <path fill="#ec8b3b" id="svg_367" d="m570,473c0,-6 8,-17 18,-24c16,-13 16,-13 2,6c-8,11 -16,22 -17,24c-2,2 -3,0 -3,-6z"/>
  <path fill="#ec8b3b" id="svg_368" d="m182,454c10,-10 20,-16 22,-13c3,3 -5,11 -17,18c-21,13 -21,12 -5,-5z"/>
  <path fill="#ec8b3b" id="svg_369" d="m690,435c-7,-9 -11,-17 -9,-20c3,-2 10,5 17,15c14,24 10,26 -8,5z"/>
  <path fill="#ec8b3b" id="svg_370" d="m390,430c0,-7 3,-10 7,-7c3,4 3,10 0,14c-4,3 -7,0 -7,-7z"/>
  <path fill="#ec8b3b" id="svg_371" d="m597,411c-4,-17 -3,-21 5,-13c5,5 8,16 6,23c-3,8 -7,3 -11,-10z"/>
  <path fill="#ec8b3b" id="svg_372" d="m458,403c7,-3 16,-2 19,1c4,3 -2,6 -13,5c-11,0 -14,-3 -6,-6z"/>
  <path fill="#ec8b3b" id="svg_373" d="m526,395c-9,-26 -7,-32 5,-12c6,10 9,21 6,23c-2,3 -7,-2 -11,-11z"/>
  <path fill="#ec8b3b" id="svg_374" d="m247,379c7,-7 15,-10 18,-7c3,3 -2,9 -12,12c-14,6 -15,5 -6,-5z"/>
  <path fill="#ec8b3b" id="svg_375" d="m653,363c-12,-13 -19,-23 -14,-23c10,0 46,39 40,43c-2,2 -14,-7 -26,-20z"/>
  <path fill="#ec8b3b" id="svg_376" d="m400,370c0,-7 3,-10 7,-7c3,4 3,10 0,14c-4,3 -7,0 -7,-7z"/>
  <path fill="#ec8b3b" id="svg_377" d="m506,343c-6,-14 -5,-15 5,-6c7,7 10,15 7,18c-3,3 -9,-2 -12,-12z"/>
  <path fill="#ec8b3b" id="svg_378" d="m548,353c7,-3 16,-2 19,1c4,3 -2,6 -13,5c-11,0 -14,-3 -6,-6z"/>
  <path fill="#ec8b3b" id="svg_379" d="m2547,349c7,-7 15,-10 18,-7c3,3 -2,9 -12,12c-14,6 -15,5 -6,-5z"/>
  <path fill="#ec8b3b" id="svg_380" d="m413,330c-1,-11 2,-22 6,-24c4,-3 7,4 6,14c-2,27 -10,33 -12,10z"/>
  <path fill="#ec8b3b" id="svg_381" d="m593,343c4,-3 10,-3 14,0c3,4 0,7 -7,7c-7,0 -10,-3 -7,-7z"/>
  <path fill="#ec8b3b" id="svg_382" d="m2406,338c3,-5 10,-6 15,-3c13,9 11,12 -6,12c-8,0 -12,-4 -9,-9z"/>
  <path fill="#ec8b3b" id="svg_383" d="m614,318c-4,-7 -3,-8 4,-4c12,7 16,16 8,16c-3,0 -8,-5 -12,-12z"/>
  <path fill="#ec8b3b" id="svg_384" d="m575,299c-4,-6 -5,-12 -2,-15c2,-3 7,2 10,11c7,17 1,20 -8,4z"/>
  <path fill="#ec8b3b" id="svg_385" d="m470,286c0,-2 8,-10 18,-17c15,-13 16,-12 3,4c-13,16 -21,21 -21,13z"/>
  <path fill="#ec8b3b" id="svg_386" d="m544,258c-4,-7 -3,-8 4,-4c12,7 16,16 8,16c-3,0 -8,-5 -12,-12z"/>
  <path fill="#ec8b3b" id="svg_387" d="m270,251c0,-6 4,-13 10,-16c6,-3 7,1 4,9c-7,18 -14,21 -14,7z"/>
  <path fill="#ec8b3b" id="svg_388" d="m513,253c4,-3 10,-3 14,0c3,4 0,7 -7,7c-7,0 -10,-3 -7,-7z"/>
  <path fill="#ec8b3b" id="svg_389" d="m1455,159c-4,-6 -5,-12 -2,-15c2,-3 7,2 10,11c7,17 1,20 -8,4z"/>
  <path fill="#ec8b3b" id="svg_390" d="m2620,160c0,-7 3,-10 7,-7c3,4 3,10 0,14c-4,3 -7,0 -7,-7z"/>
  <path fill="#ec8b3b" id="svg_391" d="m1735,150c-3,-5 -2,-10 4,-10c5,0 13,5 16,10c3,6 2,10 -4,10c-5,0 -13,-4 -16,-10z"/>
  <path fill="#ec8b3b" id="svg_392" d="m375,791c-18,-4 3,-7 55,-7c52,0 73,3 55,7c-16,4 -41,7 -55,7c-14,0 -38,-3 -55,-7z"/>
  <path fill="#ec8b3b" id="svg_393" d="m300,770c-8,-5 -10,-10 -5,-10c6,0 17,5 25,10c8,5 11,10 5,10c-5,0 -17,-5 -25,-10z"/>
  <path fill="#ec8b3b" id="svg_394" d="m255,750c-3,-5 -2,-10 4,-10c5,0 13,5 16,10c3,6 2,10 -4,10c-5,0 -13,-4 -16,-10z"/>
  <path fill="#ec8b3b" id="svg_395" d="m220,729c0,-5 5,-7 10,-4c6,3 10,8 10,11c0,2 -4,4 -10,4c-5,0 -10,-5 -10,-11z"/>
  <path fill="#ec8b3b" id="svg_396" d="m665,694c28,-27 52,-48 54,-46c7,4 -41,52 -74,75c-18,12 -10,1 20,-29z"/>
  <path fill="#ec8b3b" id="svg_397" d="m169,683l-34,-38l38,34c34,33 42,41 34,41c-2,0 -19,-17 -38,-37z"/>
  <path fill="#ec8b3b" id="svg_398" d="m1010,716c0,-2 7,-7 16,-10c8,-3 12,-2 9,4c-6,10 -25,14 -25,6z"/>
  <path fill="#ec8b3b" id="svg_399" d="m2064,708c-4,-7 -3,-8 4,-4c12,7 16,16 8,16c-3,0 -8,-5 -12,-12z"/>
  <path fill="#ec8b3b" id="svg_400" d="m1970,700c0,-7 3,-10 7,-7c3,4 3,10 0,14c-4,3 -7,0 -7,-7z"/>
  <path fill="#ec8b3b" id="svg_401" d="m1370,650c0,-7 3,-10 7,-7c3,4 3,10 0,14c-4,3 -7,0 -7,-7z"/>
  <path fill="#ec8b3b" id="svg_402" d="m2167,627c-3,-8 1,-14 8,-14c7,0 11,6 8,14c-6,16 -10,16 -16,0z"/>
  <path fill="#ec8b3b" id="svg_403" d="m1580,610c0,-7 3,-10 7,-7c3,4 3,10 0,14c-4,3 -7,0 -7,-7z"/>
  <path fill="#ec8b3b" id="svg_404" d="m320,596c0,-2 8,-10 18,-17c15,-13 16,-12 3,4c-13,16 -21,21 -21,13z"/>
  <path fill="#ec8b3b" id="svg_405" d="m1980,560c0,-7 3,-10 7,-7c3,4 3,10 0,14c-4,3 -7,0 -7,-7z"/>
  <path fill="#ec8b3b" id="svg_406" d="m325,540c-3,-5 -1,-10 4,-10c6,0 11,5 11,10c0,6 -2,10 -4,10c-3,0 -8,-4 -11,-10z"/>
  <path fill="#ec8b3b" id="svg_407" d="m355,540c3,-5 8,-10 11,-10c3,0 2,5 -1,10c-3,6 -8,10 -11,10c-3,0 -2,-4 1,-10z"/>
  <path fill="#ec8b3b" id="svg_408" d="m1473,515c0,-8 4,-12 9,-9c5,3 6,10 3,15c-9,13 -12,11 -12,-6z"/>
  <path fill="#ec8b3b" id="svg_409" d="m1658,523c7,-3 16,-2 19,1c4,3 -2,6 -13,5c-11,0 -14,-3 -6,-6z"/>
  <path fill="#ec8b3b" id="svg_410" d="m2373,523c4,-3 10,-3 14,0c3,4 0,7 -7,7c-7,0 -10,-3 -7,-7z"/>
  <path fill="#ec8b3b" id="svg_411" d="m1375,510c3,-5 8,-10 11,-10c3,0 2,5 -1,10c-3,6 -8,10 -11,10c-3,0 -2,-4 1,-10z"/>
  <path fill="#ec8b3b" id="svg_412" d="m938,503c7,-3 16,-2 19,1c4,3 -2,6 -13,5c-11,0 -14,-3 -6,-6z"/>
  <path fill="#ec8b3b" id="svg_413" d="m1003,503c4,-3 10,-3 14,0c3,4 0,7 -7,7c-7,0 -10,-3 -7,-7z"/>
  <path fill="#ec8b3b" id="svg_414" d="m782,480c0,-14 2,-19 5,-12c2,6 2,18 0,25c-3,6 -5,1 -5,-13z"/>
  <path fill="#ec8b3b" id="svg_415" d="m62,435c0,-16 2,-22 5,-12c2,9 2,23 0,30c-3,6 -5,-1 -5,-18z"/>
  <path fill="#ec8b3b" id="svg_416" d="m550,430c0,-7 3,-10 7,-7c3,4 3,10 0,14c-4,3 -7,0 -7,-7z"/>
  <path fill="#ec8b3b" id="svg_417" d="m782,385c0,-16 2,-22 5,-12c2,9 2,23 0,30c-3,6 -5,-1 -5,-18z"/>
  <path fill="#ec8b3b" id="svg_418" d="m1743,343c4,-3 10,-3 14,0c3,4 0,7 -7,7c-7,0 -10,-3 -7,-7z"/>
  <path fill="#ec8b3b" id="svg_419" d="m1863,343c4,-3 10,-3 14,0c3,4 0,7 -7,7c-7,0 -10,-3 -7,-7z"/>
  <path fill="#ec8b3b" id="svg_420" d="m2033,343c4,-3 10,-3 14,0c3,4 0,7 -7,7c-7,0 -10,-3 -7,-7z"/>
  <path fill="#ec8b3b" id="svg_421" d="m2405,340c3,-5 8,-10 11,-10c3,0 2,5 -1,10c-3,6 -8,10 -11,10c-3,0 -2,-4 1,-10z"/>
  <path fill="#ec8b3b" id="svg_422" d="m2553,343c4,-3 10,-3 14,0c3,4 0,7 -7,7c-7,0 -10,-3 -7,-7z"/>
  <path fill="#ec8b3b" id="svg_423" d="m2695,340c3,-5 8,-10 11,-10c3,0 2,5 -1,10c-3,6 -8,10 -11,10c-3,0 -2,-4 1,-10z"/>
  <path fill="#ec8b3b" id="svg_424" d="m1040,335c0,-5 5,-17 10,-25c5,-8 10,-10 10,-5c0,6 -5,17 -10,25c-5,8 -10,11 -10,5z"/>
  <path fill="#ec8b3b" id="svg_425" d="m1450,325c0,-8 2,-15 4,-15c2,0 6,7 10,15c3,8 1,15 -4,15c-6,0 -10,-7 -10,-15z"/>
  <path fill="#ec8b3b" id="svg_426" d="m2140,336c0,-2 8,-10 18,-17c15,-13 16,-12 3,4c-13,16 -21,21 -21,13z"/>
  <path fill="#ec8b3b" id="svg_427" d="m2620,336c0,-2 6,-9 13,-15c10,-8 14,-7 14,4c0,8 -6,15 -14,15c-7,0 -13,-2 -13,-4z"/>
  <path fill="#ec8b3b" id="svg_428" d="m280,300c0,-7 3,-10 7,-7c3,4 3,10 0,14c-4,3 -7,0 -7,-7z"/>
  <path fill="#ec8b3b" id="svg_429" d="m1472,270c0,-14 2,-19 5,-12c2,6 2,18 0,25c-3,6 -5,1 -5,-13z"/>
  <path fill="#ec8b3b" id="svg_430" d="m2323,283c4,-3 10,-3 14,0c3,4 0,7 -7,7c-7,0 -10,-3 -7,-7z"/>
  <path fill="#ec8b3b" id="svg_431" d="m100,271c0,-6 4,-13 10,-16c6,-3 7,1 4,9c-7,18 -14,21 -14,7z"/>
  <path fill="#ec8b3b" id="svg_432" d="m1524,268c-4,-7 -3,-8 4,-4c12,7 16,16 8,16c-3,0 -8,-5 -12,-12z"/>
  <path fill="#ec8b3b" id="svg_433" d="m1784,268c-3,-5 8,-7 25,-6c33,2 33,11 0,13c-11,1 -22,-2 -25,-7z"/>
  <path fill="#ec8b3b" id="svg_434" d="m1285,260c3,-5 8,-10 11,-10c2,0 4,5 4,10c0,6 -5,10 -11,10c-5,0 -7,-4 -4,-10z"/>
  <path fill="#ec8b3b" id="svg_435" d="m1970,250c0,-7 3,-10 7,-7c3,4 3,10 0,14c-4,3 -7,0 -7,-7z"/>
  <path fill="#ec8b3b" id="svg_436" d="m388,235c6,-11 21,-29 34,-40c22,-19 22,-19 -2,10c-40,48 -43,51 -32,30z"/>
  <path fill="#ec8b3b" id="svg_437" d="m120,230c0,-5 5,-10 11,-10c5,0 7,5 4,10c-3,6 -8,10 -11,10c-2,0 -4,-4 -4,-10z"/>
  <path fill="#ec8b3b" id="svg_438" d="m692,193c-47,-53 -55,-69 -16,-32c25,23 69,79 62,79c-2,0 -22,-21 -46,-47z"/>
  <path fill="#ec8b3b" id="svg_439" d="m172,175c21,-22 39,-37 41,-34c2,2 -15,19 -37,38l-41,35l37,-39z"/>
  <path fill="#ec8b3b" id="svg_440" d="m2399,163c-13,-16 -12,-17 4,-4c16,13 21,21 13,21c-2,0 -10,-8 -17,-17z"/>
  <path fill="#ec8b3b" id="svg_441" d="m370,153c8,-4 27,-19 42,-35c14,-15 32,-28 40,-28c7,1 3,6 -10,13c-12,7 -29,23 -38,35c-8,12 -23,22 -32,21c-14,0 -14,-2 -2,-6z"/>
  <path fill="#ec8b3b" id="svg_442" d="m1603,153c4,-3 10,-3 14,0c3,4 0,7 -7,7c-7,0 -10,-3 -7,-7z"/>
  <path fill="#ec8b3b" id="svg_443" d="m1740,149c0,-5 5,-7 10,-4c6,3 10,8 10,11c0,2 -4,4 -10,4c-5,0 -10,-5 -10,-11z"/>
  <path fill="#ec8b3b" id="svg_444" d="m1863,153c4,-3 10,-3 14,0c3,4 0,7 -7,7c-7,0 -10,-3 -7,-7z"/>
  <path fill="#ec8b3b" id="svg_445" d="m2325,150c-3,-5 1,-10 10,-10c9,0 13,5 10,10c-3,6 -8,10 -10,10c-2,0 -7,-4 -10,-10z"/>
  <path fill="#ec8b3b" id="svg_446" d="m1263,143c4,-3 10,-3 14,0c3,4 0,7 -7,7c-7,0 -10,-3 -7,-7z"/>
  <path fill="#ec8b3b" id="svg_447" d="m255,110c3,-5 11,-10 16,-10c6,0 7,5 4,10c-3,6 -11,10 -16,10c-6,0 -7,-4 -4,-10z"/>
  <path fill="#ec8b3b" id="svg_448" d="m590,110c-9,-6 -10,-10 -3,-10c6,0 15,5 18,10c8,12 4,12 -15,0z"/>
  <path fill="#ec8b3b" id="svg_449" d="m300,90c8,-5 20,-10 25,-10c6,0 3,5 -5,10c-8,5 -19,10 -25,10c-5,0 -3,-5 5,-10z"/>
  <path fill="#ec8b3b" id="svg_450" d="m487,79c7,-7 15,-10 18,-7c3,3 -2,9 -12,12c-14,6 -15,5 -6,-5z"/>
  <path fill="#ec8b3b" id="svg_451" d="m363,73c9,-2 23,-2 30,0c6,3 -1,5 -18,5c-16,0 -22,-2 -12,-5z"/>
  <path fill="#ec8b3b" id="svg_452" d="m478,783c6,-2 18,-2 25,0c6,3 1,5 -13,5c-14,0 -19,-2 -12,-5z"/>
  <path fill="#ec8b3b" id="svg_453" d="m313,773c4,-3 10,-3 14,0c3,4 0,7 -7,7c-7,0 -10,-3 -7,-7z"/>
  <path fill="#ec8b3b" id="svg_454" d="m580,756c0,-2 7,-7 16,-10c8,-3 12,-2 9,4c-6,10 -25,14 -25,6z"/>
  <path fill="#ec8b3b" id="svg_455" d="m620,736c0,-2 8,-10 18,-17c15,-13 16,-12 3,4c-13,16 -21,21 -21,13z"/>
  <path fill="#ec8b3b" id="svg_456" d="m184,698l-19,-23l23,19c21,18 27,26 19,26c-2,0 -12,-10 -23,-22z"/>
  <path fill="#ec8b3b" id="svg_457" d="m923,713c4,-3 10,-3 14,0c3,4 0,7 -7,7c-7,0 -10,-3 -7,-7z"/>
  <path fill="#ec8b3b" id="svg_458" d="m1144,708c-4,-7 -3,-8 4,-4c12,7 16,16 8,16c-3,0 -8,-5 -12,-12z"/>
  <path fill="#ec8b3b" id="svg_459" d="m2695,710c3,-5 8,-10 11,-10c3,0 2,5 -1,10c-3,6 -8,10 -11,10c-3,0 -2,-4 1,-10z"/>
  <path fill="#ec8b3b" id="svg_460" d="m685,680c3,-5 8,-10 11,-10c3,0 2,5 -1,10c-3,6 -8,10 -11,10c-3,0 -2,-4 1,-10z"/>
  <path fill="#ec8b3b" id="svg_461" d="m144,658c-4,-7 -3,-8 4,-4c12,7 16,16 8,16c-3,0 -8,-5 -12,-12z"/>
  <path fill="#ec8b3b" id="svg_462" d="m1060,660c0,-7 3,-10 7,-7c3,4 3,10 0,14c-4,3 -7,0 -7,-7z"/>
  <path fill="#ec8b3b" id="svg_463" d="m120,629c0,-5 5,-7 10,-4c6,3 10,8 10,11c0,2 -4,4 -10,4c-5,0 -10,-5 -10,-11z"/>
  <path fill="#ec8b3b" id="svg_464" d="m730,624c0,-6 7,-19 16,-30c14,-18 14,-18 3,6c-14,31 -19,36 -19,24z"/>
  <path fill="#ec8b3b" id="svg_465" d="m100,589c-7,-11 -10,-23 -7,-25c2,-2 9,7 15,21c14,30 7,33 -8,4z"/>
  <path fill="#ec8b3b" id="svg_466" d="m760,560c0,-7 3,-10 7,-7c3,4 3,10 0,14c-4,3 -7,0 -7,-7z"/>
  <path fill="#ec8b3b" id="svg_467" d="m80,540c0,-7 3,-10 7,-7c3,4 3,10 0,14c-4,3 -7,0 -7,-7z"/>
  <path fill="#ec8b3b" id="svg_468" d="m324,538c-4,-7 -3,-8 4,-4c7,4 12,9 12,12c0,8 -9,4 -16,-8z"/>
  <path fill="#ec8b3b" id="svg_469" d="m770,530c0,-7 3,-10 7,-7c3,4 3,10 0,14c-4,3 -7,0 -7,-7z"/>
  <path fill="#ec8b3b" id="svg_470" d="m1734,528c-4,-7 -3,-8 4,-4c12,7 16,16 8,16c-3,0 -8,-5 -12,-12z"/>
  <path fill="#ec8b3b" id="svg_471" d="m1913,523c4,-3 10,-3 14,0c3,4 0,7 -7,7c-7,0 -10,-3 -7,-7z"/>
  <path fill="#ec8b3b" id="svg_472" d="m71,494c0,-11 3,-14 6,-6c3,7 2,16 -1,19c-3,4 -6,-2 -5,-13z"/>
  <path fill="#ec8b3b" id="svg_473" d="m780,490c0,-7 3,-10 7,-7c3,4 3,10 0,14c-4,3 -7,0 -7,-7z"/>
  <path fill="#ec8b3b" id="svg_474" d="m780,370c0,-7 3,-10 7,-7c3,4 3,10 0,14c-4,3 -7,0 -7,-7z"/>
  <path fill="#ec8b3b" id="svg_475" d="m71,354c0,-11 3,-14 6,-6c3,7 2,16 -1,19c-3,4 -6,-2 -5,-13z"/>
  <path fill="#ec8b3b" id="svg_476" d="m1310,340c0,-7 3,-10 7,-7c3,4 3,10 0,14c-4,3 -7,0 -7,-7z"/>
  <path fill="#ec8b3b" id="svg_477" d="m80,316c0,-8 4,-17 9,-20c5,-4 7,3 4,14c-6,23 -13,26 -13,6z"/>
  <path fill="#ec8b3b" id="svg_478" d="m770,320c0,-7 3,-10 7,-7c3,4 3,10 0,14c-4,3 -7,0 -7,-7z"/>
  <path fill="#ec8b3b" id="svg_479" d="m746,263c-6,-14 -5,-15 5,-6c7,7 10,15 7,18c-3,3 -9,-2 -12,-12z"/>
  <path fill="#ec8b3b" id="svg_480" d="m390,231c5,-11 15,-23 21,-27c6,-3 3,5 -6,20c-20,30 -30,35 -15,7z"/>
  <path fill="#ec8b3b" id="svg_481" d="m724,228c-4,-7 -3,-8 4,-4c7,4 12,9 12,12c0,8 -9,4 -16,-8z"/>
  <path fill="#ec8b3b" id="svg_482" d="m2300,220c0,-7 3,-10 7,-7c3,4 3,10 0,14c-4,3 -7,0 -7,-7z"/>
  <path fill="#ec8b3b" id="svg_483" d="m285,210c3,-5 8,-10 11,-10c3,0 2,5 -1,10c-3,6 -8,10 -11,10c-3,0 -2,-4 1,-10z"/>
  <path fill="#ec8b3b" id="svg_484" d="m699,193c-13,-16 -12,-17 4,-4c16,13 21,21 13,21c-2,0 -10,-8 -17,-17z"/>
  <path fill="#ec8b3b" id="svg_485" d="m305,180c3,-5 8,-10 11,-10c3,0 2,5 -1,10c-3,6 -8,10 -11,10c-3,0 -2,-4 1,-10z"/>
  <path fill="#ec8b3b" id="svg_486" d="m187,159c12,-12 24,-21 27,-18c2,2 -8,13 -22,23l-27,19l22,-24z"/>
  <path fill="#ec8b3b" id="svg_487" d="m660,160c-8,-5 -12,-12 -9,-15c4,-3 12,1 19,10c14,17 11,19 -10,5z"/>
  <path fill="#ec8b3b" id="svg_488" d="m1310,150c0,-7 3,-10 7,-7c3,4 3,10 0,14c-4,3 -7,0 -7,-7z"/>
  <path fill="#ec8b3b" id="svg_489" d="m400,130c6,-11 13,-20 16,-20c2,0 0,9 -6,20c-6,11 -13,20 -16,20c-2,0 0,-9 6,-20z"/>
  <path fill="#ec8b3b" id="svg_490" d="m624,128c-4,-7 -3,-8 4,-4c12,7 16,16 8,16c-3,0 -8,-5 -12,-12z"/>
  <path fill="#ec8b3b" id="svg_491" d="m523,83c4,-3 10,-3 14,0c3,4 0,7 -7,7c-7,0 -10,-3 -7,-7z"/>
  <path fill="#ec8b3b" id="svg_492" d="m363,73c4,-3 10,-3 14,0c3,4 0,7 -7,7c-7,0 -10,-3 -7,-7z"/>
 </g>
</svg>