<?xml version="1.0" encoding="UTF-8"?>
<svg xmlns="http://www.w3.org/2000/svg" id="Layer_1" data-name="Layer 1" viewBox="0 0 512 512" width="512" height="512"><path d="M91.421,104.253c3.943-3.708,9.343-8.786,9.343-18.39a6,6,0,0,0-12,0c0,4.229-1.807,6.115-5.565,9.649-3.942,3.708-9.343,8.787-9.343,18.391s5.4,14.682,9.343,18.39c3.758,3.535,5.565,5.421,5.565,9.65s-1.807,6.115-5.565,9.649c-3.943,3.708-9.343,8.787-9.343,18.391s5.4,14.683,9.343,18.391c3.758,3.534,5.565,5.421,5.565,9.65s-1.807,6.117-5.565,9.652c-3.943,3.709-9.343,8.788-9.343,18.393s5.4,14.684,9.343,18.393c3.758,3.535,5.565,5.422,5.565,9.652a6,6,0,0,0,12,0c0-9.6-5.4-14.684-9.343-18.392-3.758-3.535-5.565-5.423-5.565-9.653s1.807-6.117,5.565-9.652c3.943-3.709,9.343-8.789,9.343-18.393s-5.4-14.683-9.343-18.391c-3.758-3.534-5.565-5.421-5.565-9.65s1.807-6.115,5.565-9.65c3.943-3.708,9.343-8.787,9.343-18.39s-5.4-14.683-9.343-18.391c-3.758-3.534-5.565-5.421-5.565-9.649S87.663,107.788,91.421,104.253Z"/><path d="M134.012,160.333c3.943-3.708,9.343-8.787,9.343-18.39a6,6,0,0,0-12,0c0,4.228-1.806,6.115-5.564,9.649-3.943,3.708-9.343,8.787-9.343,18.391s5.4,14.683,9.343,18.391c3.758,3.534,5.564,5.421,5.564,9.65s-1.806,6.117-5.564,9.652c-3.943,3.709-9.343,8.788-9.343,18.393a6,6,0,0,0,12,0c0-4.23,1.807-6.117,5.565-9.652,3.942-3.709,9.342-8.789,9.342-18.393s-5.4-14.683-9.343-18.391c-3.757-3.534-5.564-5.421-5.564-9.65S130.255,163.868,134.012,160.333Z"/><path d="M40.608,151.592c-3.943,3.708-9.343,8.787-9.343,18.391s5.4,14.683,9.343,18.391c3.757,3.534,5.564,5.421,5.564,9.65a6,6,0,0,0,12,0c0-9.6-5.4-14.683-9.343-18.391-3.758-3.534-5.564-5.421-5.564-9.65s1.806-6.115,5.564-9.65c3.943-3.708,9.343-8.787,9.343-18.39s-5.4-14.683-9.343-18.391c-3.758-3.534-5.564-5.421-5.564-9.649s1.806-6.115,5.564-9.65c3.943-3.708,9.343-8.786,9.343-18.39a6,6,0,0,0-12,0c0,4.229-1.806,6.115-5.564,9.649-3.943,3.708-9.343,8.787-9.343,18.391s5.4,14.682,9.343,18.39c3.758,3.535,5.564,5.421,5.564,9.65S44.366,148.058,40.608,151.592Z"/><path d="M26.916,303h2.062a6,6,0,1,0,0-12H26.916a6,6,0,1,0,0,12Z"/><path d="M47.272,303H99.448a6,6,0,0,0,0-12H47.272a6,6,0,1,0,0,12Z"/><path d="M487.823,213H347.846a130.414,130.414,0,0,0-89.6,35.3L216.9,287.015c-.091,0-.181-.015-.272-.015H182V274.449c0-3.314-2.761-6.449-6.074-6.449H11c-3.314,0-6,3.135-6,6.449v74.243A83.422,83.422,0,0,0,88.445,432H98.481a83.588,83.588,0,0,0,79.282-57h38.866A6.613,6.613,0,0,0,223,368.673v-1.23l57.968-72.035A118.49,118.49,0,0,1,373.65,251H487.823a19,19,0,1,0,0-38ZM98.481,420H88.445a71.485,71.485,0,0,1-71.078-64.12l12.182,4.5a65.924,65.924,0,0,0,45.362.017,53.919,53.919,0,0,1,37.094.008c.019.007.038.018.057.025a65.926,65.926,0,0,0,45.308-.015l12.189-4.538A71.487,71.487,0,0,1,98.481,420ZM170,343.032l-16.725,6.12a53.967,53.967,0,0,1-37.111,0c-.019-.007-.048-.014-.068-.021a65.942,65.942,0,0,0-45.313.02,53.931,53.931,0,0,1-37.1,0L17,343.032V324.009l12.549,4.6a65.936,65.936,0,0,0,45.362,0,53.919,53.919,0,0,1,37.094,0l.057.02a66.046,66.046,0,0,0,45.345-.017L170,324.008Zm0-31.805-16.725,6.119a53.967,53.967,0,0,1-37.111,0c-.019-.007-.048-.013-.068-.02a65.936,65.936,0,0,0-45.313.019,53.936,53.936,0,0,1-37.1,0L17,311.227V280H170ZM211,363H180.731A92.149,92.149,0,0,0,182,348.692V299h29ZM487.823,239H373.65a130.44,130.44,0,0,0-102.029,48.888L223,348.294V297.712l43.458-40.639A118.477,118.477,0,0,1,347.846,225H487.823a7,7,0,1,1,0,14Z"/></svg>
