<svg id="_x33_0" enable-background="new 0 0 64 64" height="512" viewBox="0 0 64 64" width="512" xmlns="http://www.w3.org/2000/svg" xmlns:xlink="http://www.w3.org/1999/xlink"><linearGradient id="SVGID_1_" gradientUnits="userSpaceOnUse" x1="32" x2="32" y1="63" y2="1"><stop offset="0" stop-color="#9f2fff"/><stop offset="1" stop-color="#0bb1d3"/></linearGradient><path d="m63 10c0 4.963-4.037 9-9 9h-7c-1.103 0-2 .897-2 2h-2c0-2.206 1.794-4 4-4h7c3.859 0 7-3.141 7-7s-3.141-7-7-7h-17c-3.309 0-6 2.691-6 6 0 1.603.624 3.108 1.758 4.241 1.133 1.133 2.639 1.757 4.24 1.757h.002l1.003-.001c1.652-.001 2.997-1.345 2.997-2.997 0-1.69-1.31-2.998-2.919-2.998-.634 0-1.081.448-1.081.998 0 .551.449.999 1.001 1h.999v2h-1c-1.654-.001-3-1.348-3-3 0-1.651 1.343-2.997 2.994-2.998 2.799 0 5.006 2.205 5.006 4.915 0 2.837-2.241 5.079-4.996 5.08l-1.003.001c-.001 0-.001 0-.002 0-2.137 0-4.145-.832-5.655-2.342-1.027-1.026-1.732-2.286-2.084-3.656h-11.26c-2.757 0-5 2.243-5 5s2.243 5 5 5h10c6.065 0 11 4.935 11 11s4.935 11 11 11h3c2.206 0 4 1.794 4 4s-1.794 4-4 4h-14c-3.859 0-7 3.141-7 7v5h-2v-5c0-4.963 4.037-9 9-9h14c1.103 0 2-.897 2-2s-.897-2-2-2h-3c-7.168 0-13-5.832-13-13 0-4.963-4.037-9-9-9h-10c-3.859 0-7-3.141-7-7s3.141-7 7-7h11c0-4.411 3.589-8 8-8h17c4.963 0 9 4.037 9 9zm-9 3h-5v2h5c2.757 0 5-2.243 5-5s-2.243-5-5-5h-9v2h9c1.654 0 3 1.346 3 3s-1.346 3-3 3zm0 18h-3v2h3c1.654 0 3-1.346 3-3s-1.346-3-3-3h-2c-2.757 0-5 2.243-5 5s2.243 5 5 5h1v-2h-1c-1.654 0-3-1.346-3-3s1.346-3 3-3h2c.552 0 1 .448 1 1s-.448 1-1 1zm9-1c0-3.859-3.141-7-7-7h-6c-4.963 0-9 4.037-9 9s4.037 9 9 9h3c3.309 0 6 2.691 6 6s-2.691 6-6 6h-14c-2.757 0-5 2.243-5 5s2.243 5 5 5h1v-2h-1c-1.654 0-3-1.346-3-3s1.346-3 3-3h14c4.411 0 8-3.589 8-8s-3.589-8-8-8h-3c-3.859 0-7-3.141-7-7s3.141-7 7-7h6c2.757 0 5 2.243 5 5s-2.243 5-5 5h-1v2h1c3.859 0 7-3.141 7-7zm-40 13h2v-2h-2c-2.206 0-4 1.794-4 4s1.794 4 4 4h1c1.87 0 3.628-.729 4.95-2.051 1.322-1.323 2.051-3.081 2.05-4.951-.001-3.858-3.142-6.998-7-6.998h-5c-5.514 0-10 4.486-10 10s4.486 10 10 10h3c2.206 0 4 1.794 4 4v4h2v-4c0-3.309-2.691-6-6-6h-3c-4.411 0-8-3.589-8-8s3.589-8 8-8h5c2.756 0 4.999 2.242 5 4.998 0 1.336-.52 2.592-1.464 3.537-.944.944-2.2 1.465-3.536 1.465h-1c-1.103 0-2-.897-2-2s.897-2 2-2zm1-10c4.963 0 9 4.037 9 9h2c0-6.065-4.935-11-11-11h-6c-8.271 0-15-6.729-15-15h-2c0 9.374 7.626 17 17 17zm-6-6h10c2.757 0 5 2.243 5 5h2c0-3.859-3.141-7-7-7h-10c-4.963 0-9-4.037-9-9s4.037-9 9-9h7v-2h-7c-6.065 0-11 4.935-11 11s4.935 11 11 11zm0-12h9v-2h-9c-1.654 0-3 1.346-3 3s1.346 3 3 3h3v-2h-3c-.552 0-1-.448-1-1s.448-1 1-1zm21 4v6h2v-6z" fill="url(#SVGID_1_)"/></svg>