<svg id="Layer" enable-background="new 0 0 64 64" height="512" viewBox="0 0 64 64" width="512" xmlns="http://www.w3.org/2000/svg"><path d="m56 32c0-5.229-3.367-9.675-8.043-11.315.013-.23.043-.456.043-.685 0-6.617-5.383-12-12-12-3.946 0-7.442 1.923-9.63 4.871-1.028-.567-2.173-.871-3.37-.871-3.86 0-7 3.141-7 7 0 1.958.81 3.729 2.11 5h-9.11c-.552 0-1 .447-1 1s.448 1 1 1h21c2.206 0 4-1.794 4-4 0-.553-.448-1-1-1s-1 .447-1 1c0 1.103-.897 2-2 2h-7c-2.757 0-5-2.243-5-5s2.243-5 5-5c.819 0 1.605.195 2.314.567-.834 1.634-1.314 3.477-1.314 5.433 0 .553.448 1 1 1s1-.447 1-1c0-5.514 4.486-10 10-10s10 4.486 10 10c0 .06-.01.119-.011.179-.649-.109-1.31-.179-1.989-.179h-3c-.552 0-1 .447-1 1s.448 1 1 1h3c5.514 0 10 4.486 10 10s-4.486 10-10 10h-3c-.552 0-1 .447-1 1s.448 1 1 1h3c.679 0 1.34-.07 1.989-.179.001.06.011.118.011.179 0 5.514-4.486 10-10 10s-10-4.486-10-10c0-.553-.448-1-1-1s-1 .447-1 1c0 1.956.48 3.799 1.314 5.432-.71.372-1.495.568-2.314.568-2.757 0-5-2.243-5-5s2.243-5 5-5h7c1.103 0 2 .897 2 2 0 .553.448 1 1 1s1-.447 1-1c0-2.206-1.794-4-4-4h-21c-.552 0-1 .447-1 1s.448 1 1 1h9.11c-1.3 1.271-2.11 3.042-2.11 5 0 3.859 3.14 7 7 7 1.197 0 2.343-.304 3.37-.871 2.188 2.948 5.684 4.871 9.63 4.871 6.617 0 12-5.383 12-12 0-.229-.03-.455-.043-.685 4.676-1.64 8.043-6.086 8.043-11.315z"/><path d="m50 32c0-3.309-2.691-6-6-6s-6 2.691-6 6 2.691 6 6 6 6-2.691 6-6zm-10 0c0-2.206 1.794-4 4-4s4 1.794 4 4-1.794 4-4 4-4-1.794-4-4z"/><path d="m35 33c.552 0 1-.447 1-1s-.448-1-1-1h-24c-.552 0-1 .447-1 1s.448 1 1 1z"/></svg>